<svg id="Layer_1" data-name="Layer 1" xmlns="http://www.w3.org/2000/svg" viewBox="0 0 1200 315">
  <defs>
    <style>
      .cls-1 {
        fill: #f4f482;
      }

      .cls-2 {
        stroke: #ccc;
      }

      .cls-2, .cls-31, .cls-32, .cls-33 {
        stroke-miterlimit: 10;
      }

      .cls-3, .cls-33 {
        fill: #fff;
      }

      .cls-4 {
        fill: aqua;
      }

      .cls-5 {
        fill: #f0f;
      }

      .cls-6 {
        fill: #eae134;
      }

      .cls-7 {
        fill: #166610;
      }

      .cls-8 {
        fill: #b73786;
      }

      .cls-9 {
        fill: #d85025;
      }

      .cls-10 {
        font-size: 25.19px;
      }

      .cls-10, .cls-11, .cls-22, .cls-35 {
        font-family: KeplerStd-BoldScnDisp, Kepler Std;
        font-weight: 700;
      }

      .cls-11, .cls-22 {
        font-size: 20.15px;
      }

      .cls-12 {
        letter-spacing: 0.01em;
      }

      .cls-13 {
        letter-spacing: -0.07em;
      }

      .cls-14 {
        letter-spacing: 0.01em;
      }

      .cls-15 {
        letter-spacing: 0em;
      }

      .cls-16 {
        letter-spacing: 0.01em;
      }

      .cls-17 {
        letter-spacing: 0em;
      }

      .cls-18 {
        letter-spacing: 0em;
      }

      .cls-19 {
        letter-spacing: 0em;
      }

      .cls-20 {
        letter-spacing: 0em;
      }

      .cls-21 {
        letter-spacing: 0em;
      }

      .cls-22 {
        fill: #f4f9f7;
      }

      .cls-23 {
        letter-spacing: -0.02em;
      }

      .cls-24 {
        letter-spacing: 0.01em;
      }

      .cls-25 {
        letter-spacing: 0em;
      }

      .cls-26 {
        letter-spacing: 0.01em;
      }

      .cls-27 {
        letter-spacing: 0em;
      }

      .cls-28 {
        letter-spacing: 0.01em;
      }

      .cls-29 {
        fill: red;
      }

      .cls-30 {
        fill: #eaad5c;
      }

      .cls-31 {
        fill: #f2f2f2;
      }

      .cls-31, .cls-32, .cls-33 {
        stroke: #000;
      }

      .cls-34 {
        fill: #b597ff;
      }

      .cls-35 {
        font-size: 30px;
      }

      .cls-36 {
        letter-spacing: -0.02em;
      }

      .cls-37 {
        letter-spacing: 0.01em;
      }

      .cls-38 {
        letter-spacing: 0em;
      }

      .cls-39 {
        letter-spacing: 0em;
      }

      .cls-40 {
        letter-spacing: 0em;
      }

      .cls-41 {
        letter-spacing: 0.01em;
      }

      .cls-42 {
        letter-spacing: 0.05em;
      }

      .cls-43 {
        letter-spacing: 0.01em;
      }

      .cls-44 {
        letter-spacing: 0em;
      }

      .cls-45 {
        letter-spacing: 0.01em;
      }

      .cls-46 {
        letter-spacing: 0.01em;
      }

      .cls-47 {
        letter-spacing: 0em;
      }

      .cls-48 {
        fill: #bea4ff;
      }

      .cls-49 {
        letter-spacing: 0em;
      }

      .cls-50 {
        letter-spacing: 0.01em;
      }

      .cls-51 {
        letter-spacing: -0.01em;
      }

      .cls-52 {
        letter-spacing: 0em;
      }

      .cls-53 {
        letter-spacing: 0.01em;
      }

      .cls-54 {
        letter-spacing: 0em;
      }

      .cls-55 {
        letter-spacing: 0.02em;
      }

      .cls-56 {
        letter-spacing: 0.01em;
      }

      .cls-57 {
        letter-spacing: 0em;
      }

      .cls-58 {
        letter-spacing: 0em;
      }

      .cls-59 {
        letter-spacing: 0.01em;
      }
    </style>
  </defs>
  <title>keachoicestoryboard</title>
  <rect class="cls-1" x="4" y="1.5" width="388" height="307"/>
  <rect class="cls-1" x="403" y="1.5" width="388" height="307"/>
  <rect class="cls-1" x="807" y="1.5" width="388" height="307"/>
  <path class="cls-2" d="M595.16,252.49c-4.37,1-8.76,2-13.17,2.81,2.24-.15,4.47-.34,6.71-.56A26.82,26.82,0,0,0,595.16,252.49Z"/>
  <path class="cls-2" d="M663,80.5H494.24c-15.87,0-28.74,11.69-28.74,26.12v207.8c8.21.14,16.41.5,24.63.36,9.63-.16,19.27-.49,28.89.07,3.22.18,6.45.63,9.68,1.09,18.88-.3,37.75-1,56.66-1.11,19.5-.08,39-.3,58.5-.4,16-.08,31.92.23,47.88.37V106.62C691.75,92.19,678.89,80.5,663,80.5Z"/>
  <path class="cls-3" d="M642.81,105.53H515.18c-15.87,0-28.74,11.69-28.74,26.12V314.81q1.85,0,3.7,0c9.63-.16,19.27-.49,28.89.07,3.21.18,6.43.63,9.65,1.08,18.89-.3,37.78-1,56.69-1.1,19.5-.08,39-.3,58.5-.4,9.23,0,18.46,0,27.68.15V131.65C671.55,117.23,658.68,105.53,642.81,105.53Z"/>
  <rect class="cls-4" x="486.07" y="167.81" width="93.19" height="48.69"/>
  <rect class="cls-5" x="579.26" y="167.81" width="93.19" height="48.69"/>
  <rect class="cls-6" x="579.26" y="216.5" width="93.19" height="48.69"/>
  <rect class="cls-7" x="486.07" y="216.5" width="93.19" height="48.69"/>
  <rect class="cls-8" x="579.26" y="265.2" width="93.19" height="48.69"/>
  <rect class="cls-9" x="486.07" y="265.2" width="93.19" height="48.69"/>
  <text class="cls-10" transform="translate(489.06 199.34)">UI</text>
  <text class="cls-11" transform="translate(583.93 244.63)"><tspan class="cls-12">I</tspan><tspan class="cls-13" x="5.96" y="0">T</tspan><tspan x="14.55" y="0">-</tspan><tspan class="cls-14" x="20.23" y="0">u</tspan><tspan class="cls-15" x="29.9" y="0">d</tspan><tspan class="cls-16" x="39.35" y="0">v</tspan><tspan class="cls-17" x="47.29" y="0">i</tspan><tspan class="cls-18" x="52.35" y="0">k</tspan><tspan class="cls-14" x="61.27" y="0">l</tspan><tspan class="cls-19" x="66.19" y="0">e</tspan><tspan x="74.11" y="0">r</tspan></text>
  <text class="cls-11" transform="translate(490.74 296.68)">S<tspan class="cls-20" x="8.3" y="0">l</tspan><tspan class="cls-21" x="13.12" y="0">ø</tspan><tspan class="cls-17" x="22.38" y="0">j</tspan><tspan x="27.32" y="0">d</tspan></text>
  <text class="cls-22" transform="translate(492.42 245.47)"><tspan class="cls-23">I</tspan><tspan x="5.5" y="0">t </tspan><tspan class="cls-24" x="14.1" y="0">s</tspan><tspan class="cls-25" x="21.05" y="0">c</tspan><tspan class="cls-14" x="28.95" y="0">i</tspan><tspan class="cls-19" x="34.03" y="0">e</tspan><tspan class="cls-17" x="41.95" y="0">n</tspan><tspan class="cls-26" x="51.78" y="0">c</tspan><tspan x="59.82" y="0">e</tspan></text>
  <text class="cls-11" transform="translate(583.93 200.14)"><tspan class="cls-27">U</tspan><tspan x="10.76" y="0">X</tspan></text>
  <text class="cls-11" transform="translate(583.93 296.68)"><tspan class="cls-28">P</tspan><tspan x="10.28" y="0">C</tspan></text>
  <g>
    <path class="cls-29" d="M464.23,46.44l13.62,13.62"/>
    <path class="cls-29" d="M460.69,50l13.62,13.62c4.56,4.56,11.63-2.51,7.07-7.07L467.77,42.9c-4.56-4.56-11.63,2.51-7.07,7.07Z"/>
  </g>
  <g>
    <path class="cls-29" d="M512.88,41c-5.33-5.84-10.33-11.89-15.14-18.16"/>
    <path class="cls-29" d="M516.42,37.5q-7.52-8.28-14.35-17.15c-1.66-2.16-4.28-3.25-6.84-1.79-2.12,1.21-3.44,4.7-1.79,6.84,5.07,6.59,10.33,13,15.92,19.18,4.33,4.78,11.39-2.31,7.07-7.07Z"/>
  </g>
  <g>
    <path class="cls-29" d="M584,42.55c-.92-7.3,1.23-14,1.51-21.19"/>
    <path class="cls-29" d="M589,42.55c-.69-7.15,1.11-14.08,1.51-21.19.37-6.43-9.64-6.41-10,0-.4,7.11-2.21,14-1.51,21.19.62,6.35,10.62,6.41,10,0Z"/>
  </g>
  <g>
    <path class="cls-29" d="M637,48.6c1.82-7.72,2-16,6.05-22.7"/>
    <path class="cls-29" d="M641.82,49.93c1.6-7.19,1.87-15,5.55-21.51,3.16-5.62-5.48-10.66-8.63-5-4.18,7.43-4.74,15.74-6.56,23.9-1.39,6.27,8.24,8.95,9.64,2.66Z"/>
  </g>
  <g>
    <path class="cls-29" d="M707.55,232c8.11,6.26,17.45,10.68,25.73,16.65"/>
    <path class="cls-29" d="M705,236.31c8.18,6.16,17.37,10.76,25.73,16.65,5.27,3.71,10.27-5,5-8.63-8.36-5.89-17.55-10.49-25.73-16.65-5.14-3.87-10.13,4.81-5,8.63Z"/>
  </g>
  <g>
    <path class="cls-29" d="M449.31,260.5a22,22,0,0,1-13.62,6.05"/>
    <path class="cls-29" d="M445.78,257a17.16,17.16,0,0,1-10.09,4.59c-2.69.26-5,2.11-5,5,0,2.51,2.3,5.26,5,5A28.4,28.4,0,0,0,452.85,264c4.71-4.4-2.37-11.46-7.07-7.07Z"/>
  </g>
  <g>
    <path class="cls-29" d="M446.28,216.61c-9.8-2.35-20.39-2.08-30.27-4.54"/>
    <path class="cls-29" d="M447.61,211.79c-10-2.23-20.3-2.22-30.27-4.54-6.26-1.46-8.93,8.18-2.66,9.64,10,2.32,20.29,2.31,30.27,4.54,6.27,1.4,8.95-8.24,2.66-9.64Z"/>
  </g>
  <g>
    <path class="cls-29" d="M451.26,156.07c-5.82-4.57-12.55-7.4-18.16-12.11"/>
    <path class="cls-29" d="M453.78,151.75c-5.46-4.16-11.82-7-17.15-11.33-5-4-12.07,3-7.07,7.07,6,4.88,13,8.21,19.18,12.89,2.16,1.65,5.57.32,6.84-1.79,1.53-2.55.34-5.21-1.79-6.84Z"/>
  </g>
  <g>
    <path class="cls-29" d="M450.23,111.66c-4.64-7.33-11.07-16.15-19.68-19.68"/>
    <path class="cls-29" d="M454.55,109.13c-5.45-8.53-11.95-17.28-21.47-21.47-5.84-2.57-10.93,6-5,8.63,8,3.54,13.28,10.68,17.88,17.88,3.45,5.41,12.11.4,8.63-5Z"/>
  </g>
  <g>
    <path class="cls-29" d="M711.25,115a50.85,50.85,0,0,1,18.16,3"/>
    <path class="cls-29" d="M711.25,120a50.44,50.44,0,0,1,16.83,2.85c6.08,2.16,8.69-7.5,2.66-9.64A59.1,59.1,0,0,0,711.25,110c-6.44,0-6.44,10,0,10Z"/>
  </g>
  <g>
    <path class="cls-29" d="M705.87,164.42a165.82,165.82,0,0,0,21.19,12.11"/>
    <path class="cls-29" d="M703.35,168.74a176.35,176.35,0,0,0,21.19,12.11c5.75,2.85,10.82-5.77,5-8.63a176.35,176.35,0,0,1-21.19-12.11c-5.33-3.64-10.34,5-5,8.63Z"/>
  </g>
  <g>
    <path class="cls-29" d="M697.08,53.41c8.72-5.37,16.16-12.54,24.67-18.18"/>
    <path class="cls-29" d="M699.6,57.72c8.66-5.47,16.2-12.45,24.67-18.18,5.3-3.59.3-12.26-5-8.63-8.47,5.73-16,12.71-24.67,18.18-5.43,3.43-.41,12.09,5,8.63Z"/>
  </g>
  <path class="cls-30" d="M30.93,291.51a9.67,9.67,0,0,0,.25,4.37c11.87,10.83,157.85,16.78,189.66,5,.49-27.85-18.71-61.65-38.16-80.26-8.62-8.25-32.83-17.83-38.46-26.6-6.26-9.76,3-14.93,8.28-25.21,13-25.34,8.06-57.59-18.27-73.29C113.68,83.26,61,89.45,53,114.85c-7.3,23.13,15,63.87,32.49,78C59.6,219.34,42.77,253.35,30.93,291.51Z"/>
  <circle class="cls-31" cx="130.15" cy="133.67" r="18.85"/>
  <circle class="cls-32" cx="135.44" cy="127.06" r="10.58"/>
  <ellipse class="cls-33" cx="142.06" cy="126.73" rx="3.97" ry="4.3" transform="translate(-48 137.57) rotate(-45)"/>
  <path class="cls-30" d="M1160.71,291.51a9.67,9.67,0,0,1-.25,4.37c-11.87,10.83-157.85,16.78-189.66,5-.49-27.85,18.71-61.65,38.16-80.26,8.62-8.25,32.83-17.83,38.46-26.6,6.26-9.76-3-14.93-8.28-25.21-13-25.34-8.06-57.59,18.27-73.29,20.55-12.26,73.27-6.07,81.28,19.33,7.3,23.13-15,63.87-32.49,78C1132,219.34,1148.86,253.35,1160.71,291.51Z"/>
  <g>
    <circle class="cls-31" cx="1107.79" cy="146.35" r="18.85"/>
    <circle class="cls-32" cx="1102.5" cy="152.74" r="10.58"/>
    <ellipse class="cls-33" cx="1095.88" cy="154.41" rx="3.97" ry="4.3"/>
  </g>
  <g>
    <circle class="cls-31" cx="1065.79" cy="144.35" r="18.85"/>
    <circle class="cls-32" cx="1060.5" cy="150.74" r="10.58"/>
    <ellipse class="cls-33" cx="1053.88" cy="152.41" rx="3.97" ry="4.3"/>
  </g>
  <path class="cls-34" d="M172.5,146c28.31-9.15,9.14-22.14,4-46.43-2.86-13.52-9.13-42.2-4.05-56,11-30.11,98.22-15.13,125.95-21.21,44.77-9.82,77.43,114.27,63.24,164.07-7.16,25.13-6.19,51.06-14.6,75.35-4.89,14.12-50.77,7-61.84,6.17-47.13-3.73-104.46-96.28-116.82-117.65"/>
  <text class="cls-35" transform="translate(209.95 86.65)"><tspan class="cls-36">H</tspan><tspan class="cls-37" x="17.34" y="0">v</tspan><tspan class="cls-38" x="29.16" y="0">il</tspan><tspan class="cls-39" x="43.98" y="0">k</tspan><tspan x="57.06" y="0">e </tspan><tspan class="cls-40" x="0" y="36">v</tspan><tspan class="cls-38" x="11.55" y="36">a</tspan><tspan class="cls-41" x="24.42" y="36">l</tspan><tspan class="cls-42" x="31.83" y="36">g</tspan><tspan x="45.96" y="36">f</tspan><tspan class="cls-43" x="53.67" y="36">a</tspan><tspan x="66.81" y="36">g</tspan><tspan class="cls-43" x="0" y="72">k</tspan><tspan class="cls-44" x="13.62" y="72">a</tspan><tspan x="26.37" y="72">n j</tspan><tspan class="cls-45" x="52.38" y="72">e</tspan><tspan x="64.38" y="72">g </tspan><tspan class="cls-37" x="0" y="108">l</tspan><tspan class="cls-46" x="7.47" y="108">æ</tspan><tspan class="cls-47" x="25.98" y="108">s</tspan><tspan x="36.09" y="108">e?</tspan></text>
  <g>
    <path class="cls-34" d="M1003,196.4c-8.75,1.53-11.91-4.85-19.51-6.31-9.74-1.86-6.82-2.15-16.36,4.48-12.39,8.61-21.79,15-37.45,16.84-58.21,6.85-91.53-25.24-89.62-84.4,1.73-53.34,38.44-103.18,94.71-102.52,44.14.52,91.06,26.57,90.67,76.24-.15,18.66-10.35,35.67-20.08,50.68-4.57,7-12.45,13.22-12.93,20.31s7.55,20,12.06,24.66"/>
    <g>
      <path class="cls-48" d="M1004,196.86c.29.17.3-.08-.34-.74l-.68-.27Z"/>
      <path class="cls-48" d="M1000.72,191.71c-.73-.78-1.65-1.65-1.52-.91.86.7.88,1,1.86,1.69.55.72.86,1.33.67,1.28.26.21.81,1.16,1.29,1.4a16.8,16.8,0,0,0-2.52-3.4C1000.37,191.46,1000.62,191.68,1000.72,191.71Z"/>
      <path class="cls-48" d="M1024.14,114.38c-.05.18-.12.36-.18.54A3.34,3.34,0,0,0,1024.14,114.38Z"/>
      <path class="cls-48" d="M1014.73,61.83c.24.35.36.47.4.47C1014.9,62,1014.7,61.74,1014.73,61.83Z"/>
      <path class="cls-48" d="M1009.27,54.17c.13.15.23.29.35.44A1.62,1.62,0,0,0,1009.27,54.17Z"/>
      <path class="cls-48" d="M1024.14,114.38l.42-1.41C1024.48,112.85,1024.32,113.68,1024.14,114.38Z"/>
      <path class="cls-48" d="M994,181.49a4.62,4.62,0,0,0,.41.7c-.12-.22-.24-.44-.34-.67Z"/>
      <path class="cls-48" d="M1015.2,136.75l-.21.39a2.86,2.86,0,0,0-.07.39Z"/>
      <path class="cls-48" d="M1005.59,152.55a1,1,0,0,0,.09-.82,2.45,2.45,0,0,1-.36.87S1005.44,152.62,1005.59,152.55Z"/>
      <path class="cls-48" d="M993.61,177.2l.18.48Z"/>
      <path class="cls-48" d="M1021,124.83a.36.36,0,0,0,.16-.12S1021.09,124.74,1021,124.83Z"/>
      <path class="cls-48" d="M983.36,188.72s0,0,0,0S983.5,188.75,983.36,188.72Z"/>
      <path class="cls-48" d="M1003,196.47l-.29.05a.33.33,0,0,0,0,.16Z"/>
      <path class="cls-48" d="M996.67,42.39l.06,0C997.12,42.68,996.91,42.54,996.67,42.39Z"/>
      <path class="cls-48" d="M857.5,66.28c1.17-1.37-1.27,2.64.39.51C857.64,66.93,858.89,64.53,857.5,66.28Z"/>
      <path class="cls-48" d="M993.85,181l-.3-.71C993.67,180.65,993.77,180.87,993.85,181Z"/>
      <path class="cls-48" d="M857.9,66.8h0l.17-.22Z"/>
      <path class="cls-48" d="M960.56,26.48a1.59,1.59,0,0,0,.36.22S960.84,26.61,960.56,26.48Z"/>
      <path class="cls-48" d="M987.84,37.43l-.61-.4C987.47,37.2,987.67,37.32,987.84,37.43Z"/>
      <path class="cls-48" d="M945.42,24.33a6.11,6.11,0,0,0-1.06-.13l.16.05A3,3,0,0,1,945.42,24.33Z"/>
      <path class="cls-48" d="M929.54,23.79l.3.05.5,0Z"/>
      <path class="cls-48" d="M940.44,208a2.89,2.89,0,0,1,.76,0C940.91,207.87,943,207.1,940.44,208Z"/>
      <path class="cls-48" d="M994.14,181.42a.86.86,0,0,1-.3-.39l.22.49C994.12,181.54,994.16,181.54,994.14,181.42Z"/>
      <path class="cls-48" d="M944.57,26.47c-.82-.1-1.64-.2-2.46-.26Z"/>
      <path class="cls-48" d="M847.23,168.59l.23.52A2.51,2.51,0,0,0,847.23,168.59Z"/>
      <path class="cls-48" d="M934.75,25.92a9.78,9.78,0,0,0-1.39-.17,1.6,1.6,0,0,0-.29.08Z"/>
      <path class="cls-48" d="M941.2,208h0Z"/>
      <path class="cls-48" d="M955.53,200.43c-2,1.21-.76.88-1.08,1.32-2.38,1.52-1.27.42-2.19.73-.74.48-1.36.94-2,1.35a10.67,10.67,0,0,1-1.74,1.06c-.11,0-.35.08-.12-.12-1.53,1.12-5,2.23-6.94,3.23a.82.82,0,0,1-.3,0c.39.07.5.23.47.38-1,.35-1.81.83-2.27.69a2.29,2.29,0,0,0,.92-.43l-1,.4c-1.06-.07,1.43-.51,1.35-.79-1,.38-2.11.78-3.17,1.13a18.19,18.19,0,0,1-2.9.71c-.39-.22,3.76-1,1.54-.75.84-.15,1.68-.29,2.51-.49-2,0,1.5-.38-.37-.45a55.61,55.61,0,0,1-6.91,1.48c-.72.29.29.24-.44.53a10.11,10.11,0,0,1-4.13.21,7.34,7.34,0,0,0-3.18.13,7.08,7.08,0,0,1-3.75.65l.84-.43a11.5,11.5,0,0,0-2.58.34,8.15,8.15,0,0,1-2.71.11c.61-.16,2.57-.17,2.08-.21-2.23-.27-1.57.24-3.28.27l-.35-.34c-1.74,0-3.57,0-5.45,0s-3.81-.08-5.73-.34c.22-.07.89-.1,0-.31A56.62,56.62,0,0,1,888,207.15c-.6-.06-1.2-.15-1.78-.27-.39-.14-.68-.38-.24-.29-1.67-.72-.15.14-1,0s-1.23-.62-.58-.48l-1.28-.36-1.43-.51c-1-.39-2.1-.73-3.13-1.24s-2.1-1-3-1.51-1.78-1.1-2.47-1.6l.61.26a12,12,0,0,0-1.41-.78c-.39-.21-.73-.35-1.06-.5a8,8,0,0,1-2.25-1.39l.42.22c-4.64-3.34-9.31-7.73-11.69-11.42a11.64,11.64,0,0,1-2-2.45c-.79-1.11-1.46-2.22-1.82-2.2-.39-.72-.65-1.21-.84-1.62l-.45-1.07c-.15-.35-.32-.73-.59-1.27s-.65-1.25-1.1-2.31-1.17-1.46-1.87-2.81l.27-.16-1.11-1.77-.09-1.15c-.22-.42-.42-.85-.6-1.29.17.54.31,1.18.19,1.13-.93-2-1.69-5.17-1.51-5.29-.58-1.66-1.24-3.29-1.71-5a7.48,7.48,0,0,1,.65,1.58c-1-2.65.19-.58-.72-3,0,.35-.22-.14-.3-.18,0-.32-.1-.74-.2-1.22s-.17-1-.27-1.6c-.21-1.15-.5-2.39-.71-3.45l.27.38c-.55-3.87-1.32-8.15-1.53-12.56,0,1.58-.39,1.25-.51,0l.29-.54c-.25-.82,0,1.36-.39-.34-.07-1.65.3-1.12.47-.19-.09-.66-.16-1.33-.2-2,.09-.12.16.35.28.46-.22-.82.24-3.46-.14-4.64l.09-.11c0-2.2,0-3.8,0-5.3s.09-2.89.17-4.68c-.3-.09-.1-1.48-.22-2.57.3-2.63.91-5.5,1.39-8.64.25-2.22-.12-.68-.11-1.7.28-.12.81-3.25.7-1.59.74-3.74.92-4.78,2-9.5-.23.48-.43,1-.43.72.17-.86.62-1.9.72-1.74l0,.23c.3-1.32.73-2.72,1.21-4.14s1.12-2.81,1.69-4.2c1.22-2.73,2.41-5.31,3.08-7.37l-.07.23.79-2.1c.27-.7.58-1.38.87-2.07,1-1.82-.38,1.19.44-.1,1.77-4.52,3.66-6.67,5.5-10.19a18.66,18.66,0,0,0,2-2.37c.36-.5.73-1,1.11-1.6l1.23-1.7a41.05,41.05,0,0,1,5-6.09l-.29.06c.59-.91.94-.89,1.5-1.45-.18,0-.9.75-.52.2a68.16,68.16,0,0,1,10.06-9.57c1.82-1.48,3.78-2.8,5.7-4.13s3.94-2.53,6-3.61c2.94-1.66,1.21-1.79,5.21-3.37l-.93.85c5.92-3.47,12.84-5.52,19.28-7.3a3.27,3.27,0,0,1-1,.43,10.16,10.16,0,0,0,1.39-.25c.55-.1,1.14-.22,1.7-.35a7.09,7.09,0,0,0,2-.64c1-.17.27.13.91.11,1.42-.06,3.49-.77,4.26-.64.13,0-.39.13-.64.18.9-.3,4.29-.36,3.38-.58,1.26,0,2.46-.17,3.6-.23a31.54,31.54,0,0,1,3.22,0c1.31-.38,4.31.23,4.74-.21-.2.41,4.4.59,6,.56-.54.08,1.37.28.73.41,1.81.16,3.47.3,3.19,0a28.32,28.32,0,0,0,4.81.79,9,9,0,0,1,3.67.88,96.18,96.18,0,0,1,14.87,3.57c-.31.37-5.13-1.67-5.08-1.1,4.45,1.2,7.12,1.7,11.3,3.6,1.07.52-.7-.08-1.1-.17a101.94,101.94,0,0,1,11.75,5.59,3.58,3.58,0,0,1-.82-.33c.71.39,1.59,1,1.62.78l-.71-.35c-.48-.45.29-.18,1.21.19s2,.94,2.07.9c-1.47-.26,3.34,2.33,1.1,1.76.47.25,1.06.57,1,.39.62.49.78.7,0,.37,2.41,1.6,1.75.76,3.81,2.39-.07.07-.51-.22-.79-.3a17.89,17.89,0,0,1,4,2.83c-.14,0,0,.19-.49-.25.72.62,1.41,1.17,2.09,1.69l1.92,1.62a30.89,30.89,0,0,1,3.87,3.89c-.59-.3-.36,0,0,.4s.77,1,.7,1.2l1.52,1.65-.44-.8,1.81,2.15a14.09,14.09,0,0,1,1.55,2.09c-.3-.39-.64-.74-1-1.1.78,1,1.41,2,2.13,3l-1-1.83c1.26,1.56.27-.44,1.63,1.82-.16-.21.11.2.47.79a14.55,14.55,0,0,1,.89,1.91h0a11.61,11.61,0,0,1,1.76,3c.06.39-.5-.09-.47.17a12.2,12.2,0,0,1,1.41,2.45,16.41,16.41,0,0,0,1.37,2.7c-.23-.35-.42-.29-.41-.16l.55.65c.24.89.24,1,0,.94.86,2.61.16-1,1,2.17a6.26,6.26,0,0,1-.31-.6,63.66,63.66,0,0,1,2.41,9c-.19.94-.63-2.55-.73-1.5.54,2.1.91,4.3,1.32,6.5a45.69,45.69,0,0,1,.53,6.52l0-.79c.52.57-.13,3.14,0,5.26,0-.52-.27-.69-.21-.55a79.28,79.28,0,0,1-1,10.16v-.56c-.45,1.64-1.12,4.32-1.72,6,0,.56-.39,1.55,0,1-2.49,5.09-3.54,10.25-6.45,14.44.27-.54.54-1.33.32-.91-.59,1.3-1.27,2.56-1.9,3.84.36-.19.39-.43,1-1.14a12.48,12.48,0,0,1-1.15,2.59c.82-1.76-.33-.17-.86.49.13-.09.06.2.15.17-1.47,1.74.23.57-1.57,3.07l0-.2a30.59,30.59,0,0,1-1.62,3c-.5.3.53-1.11.39-1.29-.89,1.49-1.37,3.19-2.44,4.37.33-.66.9-1.56,1.23-2.23a15.49,15.49,0,0,0-1.94,2.54l.07-.1-1.71,2.4.48-.58c-.58,2.23-2.29,3.75-3.8,6.29,1.44-2.49.1-.52,0-.88-.54.53-1.32,1.34-1.19,1-.69,1.22-1.63,1.64-2.61,3.39-.13,0-1,1.15-.94.75-1.08,1.47.4-.23.4,0-.75,1.19-1.85,2.42-2.94,3.89a12.73,12.73,0,0,0-2.52,5.34,9.22,9.22,0,0,0-.09,3.89l.38,1.53c.19.54.34,1.16.6,1.92.16,1.08-.6-.76-.56-.77a14.8,14.8,0,0,0,1.48,4.5c-.21-.28-.14.07,0,.58.54,1.22.68.67,1.28,2.32a6.32,6.32,0,0,1-.92-1c.74,1.39,1.6,2.7,2.47,4.06.06.46-.71-.72-1.07-1.18.92,1.58,2.47,4,3,4.35l-.54-1c.36.55,0,.42-.31,0-1-1.23-1.06-2-1-2.11.2.33.41.65.62,1-.11-1.29-2.33-4-3.2-6.15q.37.37.77.71c-.44-.66-.83-1.36-1.25-2-.07-.52,0-.91.49.12-.38-1.61-.68-1.31-.87-2.73,0-.16,0-.1.09,0-.19-.5-.4-1-.54-1.51.16.28.22-.32.39.64-.12-.7-.24-1.33-.36-1.89s-.21-1.07-.25-1.52-.08-.86-.07-1.21a3.14,3.14,0,0,1,.22-.9V171c.27-1.91.34-2,.21-2s-.3.11.08-1.39a18.73,18.73,0,0,1,1.58-1.46l-.07-.49c.2-.36.68-1,.7-.83.65-1.4-.25.15.06-.71,1.32-1.5,3.24-4.44,3.9-4.48.28-.7-1.35,1.35-.12-.39.79-.13,1.52-1.94,2.86-3.2-.14.61-1.36,1.85,0,.59.35-1.13,2.32-2.72,3.13-4.07-.24-.26,1.73-2.88,3-5.14,0,.21,2.77-4,4.09-6l0,.09c-.07-.58,1.24-2.69,2.05-4.31.16.17.07.49-.33,1.39l.84-1.48a8.73,8.73,0,0,1,.77-1.9l0,.51c.54-1,1-2,1.49-3.17s1.05-2.29,1.74-3.58c-.17-.25-1.62,1.79-.48-1.06.17,0,.44-.05.15.7a9.39,9.39,0,0,1,.56-1.36c-.09.41-.2.81-.3,1.21.65-1.16.12-.7.56-1.67.17.1.44-.67.52-.46a10,10,0,0,0-.53,1.22,17.62,17.62,0,0,1,1.5-2.76c-.15.05-.23-.09.05-.93.79-2.13.5-.64,1.07-1.85.09-.55.67-1.89.4-2a2.24,2.24,0,0,1,.54-.92c.3-1.14,1.48-5.3.84-4.1l-.1.28,0-.19h0c.69-3.78,1.83-7.79,1.94-11.64h.1c0-1.15.08-2.42,0-3.6s-.12-2.29-.24-3.1.08-1.59.23-1.32a35,35,0,0,1-.43-4.44c.39,1.72.12-.62.31,1.77a25.1,25.1,0,0,0-.18-2.55,18.89,18.89,0,0,0-.53-2.63c.18.39.22-.05.12-.71a19.47,19.47,0,0,0-.44-2.07l.15,1.6c-.29-1.18-.48-2.22-.68-3.29l.44.5a18.85,18.85,0,0,0-.78-3.25l-.49-1.49-.59-1.39c-.39-.91-.74-1.78-1.07-2.65a14.4,14.4,0,0,1-.84-2.59c-.69-1,.83,2.4.15,1.49-.4-1-.67-2.06-1-2.94s-.51-1.58-.66-1.88a11.64,11.64,0,0,0-.76-1.55,10.57,10.57,0,0,0-.71-.92,11.68,11.68,0,0,1-1.65-2.46c.09.41,0,.86-1.3-1-1.13-1.8-1-2.47-.21-1.39.29.42.4.65.35.66.42.55,1,1.29.6.51l-.25-.17c-.24-.48-.77-1.33-1.17-2s-.74-1.13-.45-.91c-1.06-1.24-.57-.44.1.56-.75-1.15-1.39-2-2-2.89s-1.41-1.66-2.28-2.79c.24.39.4.8.11.45-2.66-3.19-1.4-1.2-3.33-3.22-1-1.25.72.09-1.42-1.77-1.16-1.29,0-.48.52-.07-2-1.67-3.49-3.35-4.58-4.37l1.1.82c-.66-.49-1.15-.94-1.7-1.35l.46.67c-.6-.53-1.14-.94-1.06-1-.75-.39.25.7-1.17-.14-.74-.78-2.66-1.83-2.78-2.29,2.66,2-.11-.49,2.22,1.15-.45-.32-1-.69-1.63-1.19-.08-.1.13,0,.32.12-2.48-2.07-1.38-.62-4.17-2.41.45.08-.47-.7-.95-1,1.13.73.38.59-.72.05a22.75,22.75,0,0,0-3-1.65l1.07.69a17.56,17.56,0,0,1-2.68-1.27c0-.19,1.23.55.79.24-1.61-.46-3.11-2.06-5.3-2.81-.91-.56,0-.35-.76-.82-2.42-.88-2.46-1.33-5-2.23.63.54.79.48-1.08,0,1.41.45,2.77,1,4.17,1.53L976.27,32c1.23.52,2.66,1,3.38,1.31-1.33-.35-1.17-.35-.66.08-1.55-1-3.4-1.24-5.29-2.17l.27-.53a20.1,20.1,0,0,0-2.13-.86c-.71-.22-1.43-.41-2.17-.61-1.48-.42-3.09-.77-5.06-1.41l1.25.47c-.59.07-2.45-.69-3.78-.89.17-.16-.62-.43-1.15-.69,0,.13-2.95-.69-3.4-.37l-1.75-.64c-3.27-.68-3.84-.14-7-.62,1-.08-.44-.42,1.71-.28a6.36,6.36,0,0,0-2-.18c-.6-.24-3-.07-3.93-.36a5.1,5.1,0,0,1-1.81.11c-.13,0,0-.1,0-.1s-1.88,0-.85.3a19.3,19.3,0,0,0-2.84-.45C938,24,936.83,24,935.71,24a44.5,44.5,0,0,1-5.88-.16c-1.17.09-2.45.24-3.7.35l-1.84.18-1.68.24c.13-.08,0-.1.39-.13a5.88,5.88,0,0,0-2.36.5,9.2,9.2,0,0,1-2.64.61c-1.72,0,1.7-.5.64-.42-.28-.28-1.27-.07-2.46.22l-1.89.44a10.91,10.91,0,0,1-1.83.34L913,26a16.65,16.65,0,0,0-3,.78c-1.12.4-2.34.91-3.68,1.3,0,0,.11-.1,0-.1-.87.42-2.13,1-3.48,1.61l-2.07.88-1.93.93c.66-.57,1.06-.62.49-.65-1.09.52.48.24-1.68,1.27a15.2,15.2,0,0,1-2.71.7c.67-.35,1.34-.71,2-1-1.23.12-2.63,1.33-3.73,1.79l.06-.21a18.1,18.1,0,0,0-3,1.91c-.73.57-1.54,1.06-3.11,2.07l.39-.11c-1.49,1.44-1.55.75-3.09,2.11-.24,0-.5,0-.73,0-1,.89-3.62,3.06-5.39,4.69a22.74,22.74,0,0,1,2-2.06l2.36-2.06c-.54.4-1.45,1.08-2.29,1.73a12,12,0,0,0-1.74,1.63A10.41,10.41,0,0,1,880,42.08a25.21,25.21,0,0,1-2,2.07q-.59.55-1.27,1.14t-1.39,1.29c-.07-.43-1.42.66-2.9,2.06a39.42,39.42,0,0,1-4,3.6,143.52,143.52,0,0,0-9.33,11.59c1.59-1.28-.89,1.34-.19,1.4a14,14,0,0,1-1.05,1.55l-2.34,3.11c-.64.69.52-1.11.34-1.08-1.51,2.37-.85.86-1.91,2.41.38-.22-.2,1-1.06,2.37l1.34-1.83c-1.63,3.57-2.1,2.73-3.59,6.42l.39-1.21c-.2.47-.51,1.12-.87,1.87l-1.06,2.48a20.1,20.1,0,0,0-1.48,4.5c-.2.31-.53.69-.24-.16A67.37,67.37,0,0,0,845,92.95c-.65,2.48-1.32,4.81-1.9,6.6l-.05-.39a12,12,0,0,1-.56,2.65c0-.07-.05-.39-.17,0a28.77,28.77,0,0,1-.61,3.55l.05-1a31.87,31.87,0,0,0-.68,3.12c-.14,1-.23,1.84-.31,2.69-.19,1.71-.21,3.34-.42,5.31-.21,0-.51.86-.72,2s-.39,2.53-.51,3.45l-.06-.07a90.9,90.9,0,0,0,.16,14.44,23,23,0,0,0-.14,3.09c0,1.23.1,2.63.19,4.09.24,2.91.57,6.06.87,8.59,0-.78.36.07.54,1,.06,1.2.92,3.18.47,3.08l-.08-.42c-.21,1,.35,3.36.85,5.22l.59.18c.06.63.16,1.3.29,2s.35,1.41.57,2.13.44,1.46.68,2.2.56,1.44.83,2.14l.8,2,.79,1.81a18.32,18.32,0,0,1,1,2.79c.67,1,1.33,2.38,2,3.39l-.28.08c.82,1.48,1.41,2.6,2.11,3.77s1.52,2.4,2.8,4.05l-.68-.56a8.31,8.31,0,0,0,1.92,1.87,12,12,0,0,1,1.9,1.67l.1.77c1.31,1.59,2.73,3.09,4.15,4.59a29.67,29.67,0,0,0,4.78,3.87c-.09,0-.26,0-.8-.37,1.45,1.29,6,4.6,5.68,3.71-.09.19.83.72,2,1.35.59.31,1.24.65,1.88.94l1.79.74-.43.09a35.76,35.76,0,0,1,4.33,1.41c.55.27.41.42-.32,0,1.84.92,1.55.44,3.83,1.4l-.93-.15a9.78,9.78,0,0,0,3,.78,14.77,14.77,0,0,1,4,1.54,8,8,0,0,1,2.67.35c.14.13-.31.09-.54.06a21,21,0,0,0,4.16.83,21.88,21.88,0,0,1,3.36.58c0,.1.19.16.38.22-2.77-.42-5-.88-4.77-.85-.05.25,2.18.69.33.73.92.07,2.16.13,3.44.24a29.89,29.89,0,0,1,3.7.34,1.45,1.45,0,0,1,.28.12h-.23a7,7,0,0,0,1.39.12c.7.1,1.14.16,1.82.22a15.49,15.49,0,0,0,3.71.36c-.08-.28,1.39-.2,0-.47.18,0-.21,0-1,0h-.48l.08,0-2.79-.19a10.06,10.06,0,0,1,3.06.12c.59-.15,1.23-.33,1.59-.4,1.51.45,4.48.73,4.9.93,3.44-.15,8.1-.38,10.2-1.11a2.87,2.87,0,0,1,1.5.09c-.55.11-1.22.17-1.52.27,1-.16,2.4-.32,3.65-.48a7.16,7.16,0,0,0,2.51-.63c2.46-.2-1.32.57,2,0l-.43.19a27,27,0,0,0,8.57-2.27c2.6-1.09,5.19-2.31,8.65-3.64a2.63,2.63,0,0,1-.84.28,72.3,72.3,0,0,0,11.07-6.47c3.54-2.44,7-4.87,10.53-7.11a24.4,24.4,0,0,0,3.08-2.5l.55,0a4.23,4.23,0,0,1,2-.73,15.66,15.66,0,0,1,4.67,1c1.6.48,3.15.85,5.18,1.47l-.43-.4c1.43.55,4.43,2.15,4.08,2.22a2.18,2.18,0,0,1,1,.48l0,.16a31.16,31.16,0,0,0,3.61,1.57c1.4.62,1.27.67,1.27.85s.06.17.39.32a7.35,7.35,0,0,0,2.12.52,10.44,10.44,0,0,0,3-.25c.9-.23,1.48-.44,1.17-.45-.67.07-1.72.14-1.78-.06.5,0,1-.17,1.48-.25.1-.24.4-.53.23-.72a1.15,1.15,0,0,0-.68-.23c-.39,0-1,0-1.8-.14a7.17,7.17,0,0,1-1.17.09,6.67,6.67,0,0,1-1.18,0,7.4,7.4,0,0,1-.69-.38,11.17,11.17,0,0,0,1.93.31,15.25,15.25,0,0,0-2.57-.41,3.34,3.34,0,0,0-.84-.57,17.09,17.09,0,0,1-2.33-.61c-.17-.3,1.12.19-.25-.66-1.1-.39.76.91-1,.07-.94-.79-.53-.77-1.88-1.33-.12-.21.19-.12.71.12-1.16-.54-3.07-1.63-3.81-1.65a9.3,9.3,0,0,0-2.55-1c-.46-.11-.88-.22-1.17-.33s-.42-.18-.37-.28a22.24,22.24,0,0,1-3.42-.3c1.1,0,0-.29-1.28-.52-.66-.12-1.43-.2-2-.24s-1,0-.85-.2l-.88.34c-.3.15-.67.31-1,.5a21.57,21.57,0,0,0-2,1.33c-1.3,1-2.67,2-3.73,2.9a2.32,2.32,0,0,1,.52-.49,26,26,0,0,1-2.62,1.52c.06.44-1.9,1.91-2.86,2.85-1.8.78.7-1,0-1,.26.21-2.58,2.15-1.89,2-1.35.62-1.11.62-1.92.76.05.55-1.09.82-2,1.73-1.93.91-.7-.08-2.6,1.25-.51.22-.35,0-.06-.22S955.53,200.43,955.53,200.43Zm-52.89,10.43h0l1.14.13Zm-4.6-.66c.56.1,1.25.25,2,.35.15.11,0,.21-.51.12C899.77,210.65,898.7,210.4,898,210.2Zm9.64,3.09a2.41,2.41,0,0,1-1.1-.16l1.31.07.09,0A.77.77,0,0,1,907.68,213.29Z"/>
      <path class="cls-48" d="M909,213h.31l-.44-.08-.27.07Z"/>
      <path class="cls-48" d="M1023.92,115l0-.09a1.17,1.17,0,0,1-.1.19A.94.94,0,0,1,1023.92,115Z"/>
      <polygon class="cls-48" points="849.32 173.29 849.26 173.32 849.48 173.67 849.32 173.29"/>
      <path class="cls-48" d="M1012.86,138.29a1.11,1.11,0,0,0-.23.26A1.42,1.42,0,0,0,1012.86,138.29Z"/>
      <path class="cls-48" d="M1007,147.78l-.93,1.27C1006.51,148.51,1006.8,148.1,1007,147.78Z"/>
      <path class="cls-48" d="M1002.08,154.69a.4.4,0,0,0,0,.21h0Z"/>
      <path class="cls-48" d="M987.43,39.36l-.29-.15C986.44,38.87,986.91,39.11,987.43,39.36Z"/>
      <path class="cls-48" d="M1016.39,66.55c-.26-.35-.51-.69-.76-1.06C1016,66.12,1016.25,66.61,1016.39,66.55Z"/>
      <path class="cls-48" d="M944.83,26.5h0l-.28,0Z"/>
      <path class="cls-48" d="M1014.65,63.9c.35.62.68,1.12,1,1.59A9.79,9.79,0,0,0,1014.65,63.9Z"/>
      <path class="cls-48" d="M997.57,188.38l.2.37s0,0,.06,0Z"/>
      <path class="cls-48" d="M997.84,188.77l.27.38A1.86,1.86,0,0,0,997.84,188.77Z"/>
      <path class="cls-48" d="M998.7,189.93l-.58-.79A3.57,3.57,0,0,0,998.7,189.93Z"/>
      <path class="cls-48" d="M992.75,177.92l-.14-.1C992.65,177.89,992.7,177.92,992.75,177.92Z"/>
      <path class="cls-48" d="M991.87,174.46a14.18,14.18,0,0,0,.63,3.28l.11.08a6,6,0,0,1-.41-1.57A12,12,0,0,0,991.87,174.46Z"/>
      <path class="cls-48" d="M998,161.62c-.61.74-1.22,1.48-1.78,2.24.38-.35.87-.79.15.28C998.73,161.43,995.67,164.57,998,161.62Z"/>
      <path class="cls-48" d="M1003.79,154.77c-.93,1.27.14.08.13.19C1004.46,154.1,1004.58,153.89,1003.79,154.77Z"/>
      <path class="cls-48" d="M1025.92,94.8l.27.14C1026,93.74,1026.08,94.94,1025.92,94.8Z"/>
      <path class="cls-48" d="M1022.68,82.8a11.55,11.55,0,0,1,.12,1.16l.34.48C1023,83.89,1022.88,83.33,1022.68,82.8Z"/>
      <path class="cls-48" d="M1022.23,75.24l.21.49c-.24-.64-.52-1.25-.82-1.86C1021.82,74.33,1022.06,74.77,1022.23,75.24Z"/>
      <path class="cls-48" d="M932.37,23.49l.37.31C933.55,23.73,933.73,23.38,932.37,23.49Z"/>
      <path class="cls-48" d="M887.45,36.9a7.36,7.36,0,0,0-2.29,1.38C886.07,37.71,887,37.23,887.45,36.9Z"/>
      <path class="cls-48" d="M842.69,162.47c-.13-.29-.24-.6-.35-.9.16.58.38,1.15.58,1.71Z"/>
    </g>
  </g>
  <text class="cls-35" transform="translate(862.95 82.65)"><tspan class="cls-39">N</tspan><tspan x="16.05" y="0">u </tspan><tspan class="cls-49" x="34.59" y="0">v</tspan><tspan class="cls-38" x="46.02" y="0">e</tspan><tspan x="57.99" y="0">d j</tspan><tspan class="cls-50" x="83.7" y="0">e</tspan><tspan x="95.7" y="0">g </tspan><tspan class="cls-51" x="0" y="36">h</tspan><tspan class="cls-40" x="13.98" y="36">v</tspan><tspan class="cls-45" x="25.53" y="36">a</tspan><tspan x="38.43" y="36">d j</tspan><tspan class="cls-50" x="64.14" y="36">e</tspan><tspan x="76.14" y="36">g </tspan><tspan class="cls-40" x="92.94" y="36">s</tspan><tspan class="cls-43" x="103.02" y="36">k</tspan><tspan class="cls-52" x="116.64" y="36">a</tspan><tspan x="129.51" y="36">l </tspan><tspan class="cls-40" x="0" y="72">v</tspan><tspan class="cls-47" x="11.55" y="72">æ</tspan><tspan class="cls-53" x="29.76" y="72">l</tspan><tspan class="cls-54" x="37.17" y="72">g</tspan><tspan x="49.59" y="72">e.</tspan></text>
  <text class="cls-10" transform="translate(512.22 143.34)">K<tspan class="cls-55" x="13.95" y="0">E</tspan><tspan x="26.57" y="0">A </tspan><tspan class="cls-56" x="43.04" y="0">C</tspan><tspan class="cls-57" x="56.24" y="0">h</tspan><tspan class="cls-58" x="68.33" y="0">o</tspan><tspan class="cls-57" x="79.84" y="0">i</tspan><tspan class="cls-59" x="86.16" y="0">c</tspan><tspan class="cls-28" x="96.21" y="0">e</tspan><tspan x="106.46" y="0">s</tspan></text>
  <circle class="cls-31" cx="81.15" cy="133.67" r="18.85"/>
  <circle class="cls-32" cx="88.44" cy="131.06" r="10.58"/>
  <ellipse class="cls-33" cx="93.06" cy="126.73" rx="3.97" ry="4.3" transform="translate(-62.36 102.92) rotate(-45)"/>
</svg>
