<svg id="Layer_1" data-name="Layer 1" xmlns="http://www.w3.org/2000/svg" viewBox="0 0 1200 305">
  <defs>
    <style>
      .cls-1 {
        fill: #f7b06b;
      }

      .cls-2 {
        fill: #29abe2;
      }

      .cls-3 {
        fill: #f2f2f2;
      }

      .cls-3, .cls-4, .cls-5 {
        stroke: #000;
      }

      .cls-3, .cls-4, .cls-41, .cls-5 {
        stroke-miterlimit: 10;
      }

      .cls-42, .cls-5 {
        fill: #fff;
      }

      .cls-6 {
        fill: #fcb6fc;
      }

      .cls-7 {
        fill: #d2d2d2;
      }

      .cls-8 {
        font-size: 30px;
      }

      .cls-23, .cls-49, .cls-56, .cls-8 {
        font-family: KeplerStd-BoldScnDisp, Kepler Std;
        font-weight: 700;
      }

      .cls-9 {
        letter-spacing: 0em;
      }

      .cls-10 {
        letter-spacing: 0em;
      }

      .cls-11 {
        letter-spacing: 0.01em;
      }

      .cls-12 {
        letter-spacing: 0.01em;
      }

      .cls-13 {
        letter-spacing: 0em;
      }

      .cls-14 {
        letter-spacing: 0em;
      }

      .cls-15 {
        letter-spacing: 0.01em;
      }

      .cls-16 {
        letter-spacing: 0.02em;
      }

      .cls-17 {
        letter-spacing: 0em;
      }

      .cls-18 {
        letter-spacing: 0.01em;
      }

      .cls-19 {
        letter-spacing: 0.01em;
      }

      .cls-20 {
        letter-spacing: 0em;
      }

      .cls-21 {
        letter-spacing: 0.01em;
      }

      .cls-22 {
        fill: red;
      }

      .cls-23 {
        font-size: 24.66px;
      }

      .cls-24 {
        letter-spacing: -0.02em;
      }

      .cls-25 {
        letter-spacing: 0em;
      }

      .cls-26 {
        letter-spacing: 0.01em;
      }

      .cls-27 {
        letter-spacing: 0em;
      }

      .cls-28 {
        letter-spacing: 0em;
      }

      .cls-29 {
        letter-spacing: 0em;
      }

      .cls-30 {
        letter-spacing: 0em;
      }

      .cls-31 {
        letter-spacing: -0.01em;
      }

      .cls-32 {
        letter-spacing: 0.01em;
      }

      .cls-33 {
        letter-spacing: 0em;
      }

      .cls-34 {
        letter-spacing: 0em;
      }

      .cls-35 {
        letter-spacing: 0em;
      }

      .cls-36 {
        letter-spacing: 0.01em;
      }

      .cls-37 {
        letter-spacing: -0.01em;
      }

      .cls-38 {
        letter-spacing: 0.01em;
      }

      .cls-39 {
        letter-spacing: 0.01em;
      }

      .cls-40 {
        letter-spacing: -0.01em;
      }

      .cls-41 {
        stroke: #ccc;
      }

      .cls-43 {
        fill: aqua;
      }

      .cls-44 {
        fill: #f0f;
      }

      .cls-45 {
        fill: #eae134;
      }

      .cls-46 {
        fill: #166610;
      }

      .cls-47 {
        fill: #b73786;
      }

      .cls-48 {
        fill: #d85025;
      }

      .cls-49 {
        font-size: 25.19px;
      }

      .cls-50 {
        letter-spacing: 0em;
      }

      .cls-51 {
        letter-spacing: 0.01em;
      }

      .cls-52 {
        letter-spacing: 0.02em;
      }

      .cls-53 {
        letter-spacing: 0.01em;
      }

      .cls-54 {
        letter-spacing: 0em;
      }

      .cls-55 {
        letter-spacing: 0.01em;
      }

      .cls-56 {
        font-size: 20.15px;
      }

      .cls-57 {
        letter-spacing: -0.01em;
      }

      .cls-58 {
        letter-spacing: 0em;
      }

      .cls-59 {
        letter-spacing: 0.01em;
      }

      .cls-60 {
        letter-spacing: -0.01em;
      }

      .cls-61 {
        letter-spacing: 0em;
      }

      .cls-62 {
        letter-spacing: 0em;
      }

      .cls-63 {
        letter-spacing: 0.01em;
      }

      .cls-64 {
        letter-spacing: 0em;
      }

      .cls-65 {
        letter-spacing: 0em;
      }

      .cls-66 {
        letter-spacing: -0.01em;
      }

      .cls-67 {
        letter-spacing: 0em;
      }

      .cls-68 {
        letter-spacing: 0em;
      }

      .cls-69 {
        letter-spacing: 0.01em;
      }

      .cls-70 {
        letter-spacing: 0em;
      }

      .cls-71 {
        letter-spacing: 0.01em;
      }

      .cls-72 {
        letter-spacing: 0.01em;
      }

      .cls-73 {
        letter-spacing: -0.04em;
      }

      .cls-74 {
        letter-spacing: 0.01em;
      }

      .cls-75 {
        letter-spacing: 0em;
      }

      .cls-76 {
        letter-spacing: 0em;
      }

      .cls-77 {
        letter-spacing: 0.01em;
      }

      .cls-78 {
        letter-spacing: 0.02em;
      }

      .cls-79 {
        letter-spacing: 0.01em;
      }

      .cls-80 {
        letter-spacing: 0em;
      }

      .cls-81 {
        letter-spacing: 0.01em;
      }

      .cls-82 {
        letter-spacing: 0.01em;
      }
    </style>
  </defs>
  <title>keachoicestoryboard</title>
  <rect class="cls-1" x="4.5" width="388" height="307"/>
  <rect class="cls-1" x="403.5" width="388" height="307"/>
  <rect class="cls-1" x="803.5" y="-1" width="404" height="305.14"/>
  <g>
    <path class="cls-2" d="M21.43,292a9.67,9.67,0,0,0,.25,4.37c11.87,10.83,157.85,16.78,189.66,5,.49-27.85-18.71-61.65-38.16-80.26-8.62-8.25-32.83-17.83-38.46-26.6-6.26-9.76,3-14.93,8.28-25.21C156,144,151.07,111.73,124.73,96c-20.55-12.26-73.27-6.07-81.28,19.33-7.3,23.13,15,63.87,32.49,78C50.1,219.84,33.27,253.85,21.43,292Z"/>
    <circle class="cls-3" cx="74.35" cy="132.85" r="18.85"/>
    <circle class="cls-4" cx="79.64" cy="126.24" r="10.58"/>
    <ellipse class="cls-5" cx="86.26" cy="125.91" rx="3.97" ry="4.3"/>
    <circle class="cls-3" cx="120.65" cy="134.17" r="18.85"/>
    <circle class="cls-4" cx="125.94" cy="127.56" r="10.58"/>
    <ellipse class="cls-5" cx="132.56" cy="127.23" rx="3.97" ry="4.3"/>
  </g>
  <g>
    <path class="cls-6" d="M167.65,145.54c32.85-9.15,10.61-22.14,4.65-46.43-3.31-13.52-10.59-42.2-4.7-56C180.43,13,281.56,27.95,313.72,21.87c51.94-9.82,89.83,114.27,73.37,164.07-8.31,25.13-7.18,51.06-16.94,75.35-5.68,14.12-58.9,7-71.74,6.17-54.68-3.73-121.19-96.28-135.52-117.65"/>
    <g>
      <path class="cls-7" d="M163.44,149.44c-.31-.3-.34,0,.35.95l.74.5Z"/>
      <path class="cls-7" d="M167.38,156.24c.91,1,2.06,2.15,1.8,1.26-1-.92-1.12-1.27-2.27-2.25-.7-.93-1.07-1.73-.86-1.64a18.23,18.23,0,0,0-1.49-1.93,19.93,19.93,0,0,0,3.06,4.51C167.79,156.57,167.48,156.28,167.38,156.24Z"/>
      <path class="cls-7" d="M242.91,241.22l-.55-.49C242.5,240.87,242.69,241,242.91,241.22Z"/>
      <path class="cls-7" d="M306.74,268.84a2.4,2.4,0,0,0-.79,0C306.45,268.86,306.86,268.88,306.74,268.84Z"/>
      <path class="cls-7" d="M318.74,270.21l-.71-.07A3.19,3.19,0,0,0,318.74,270.21Z"/>
      <path class="cls-7" d="M242.91,241.22l1.41,1.27C244.48,242.48,243.61,241.81,242.91,241.22Z"/>
      <path class="cls-7" d="M177.24,168.48c-.25-.31-.47-.55-.68-.77l.61.75Z"/>
      <path class="cls-7" d="M219.62,220.48l-.4-.41a4.42,4.42,0,0,0-.43-.25Z"/>
      <path class="cls-7" d="M203.23,203a1.36,1.36,0,0,0,.91.44,4,4,0,0,1-.93-.75S203.17,202.86,203.23,203Z"/>
      <path class="cls-7" d="M179.56,173.43l-.44-.51Z"/>
      <path class="cls-7" d="M232,232.34a.49.49,0,0,0,.1.22S232.07,232.45,232,232.34Z"/>
      <path class="cls-7" d="M185.85,127.82s0,0,0,0S185.89,128,185.85,127.82Z"/>
      <path class="cls-7" d="M167.63,145.47l.36-.12a.3.3,0,0,0,0-.18Z"/>
      <path class="cls-7" d="M340.88,271.35h-.1C340.19,271.39,340.53,271.38,340.88,271.35Z"/>
      <path class="cls-7" d="M381.57,93.76c.46,2.27-1.45-3.47-.66-.08C380.92,93.33,382.29,96.54,381.57,93.76Z"/>
      <path class="cls-7" d="M177.58,169l.59.78C177.91,169.41,177.73,169.17,177.58,169Z"/>
      <path class="cls-7" d="M380.91,93.67h0L381,94Z"/>
      <path class="cls-7" d="M376.84,243.41a2.5,2.5,0,0,0-.24.48S376.69,243.77,376.84,243.41Z"/>
      <path class="cls-7" d="M353.89,269.92l.94-.1C354.46,269.85,354.16,269.88,353.89,269.92Z"/>
      <path class="cls-7" d="M380,223.92a10.1,10.1,0,0,0,.23-1.36,2.11,2.11,0,0,0-.07.2A5,5,0,0,1,380,223.92Z"/>
      <path class="cls-7" d="M383.36,203.77l-.13.36-.11.64Z"/>
      <path class="cls-7" d="M167.42,69a4.64,4.64,0,0,1-.13,1C167.45,69.64,167.89,72.58,167.42,69Z"/>
      <path class="cls-7" d="M177.12,168.58a1.34,1.34,0,0,1,.46.41l-.42-.53C177.09,168.44,177.05,168.45,177.12,168.58Z"/>
      <path class="cls-7" d="M377.92,222.76l.54-3.21C378.29,220.45,378.09,221.61,377.92,222.76Z"/>
      <path class="cls-7" d="M282.31,24.67l-.75,0A4.27,4.27,0,0,0,282.31,24.67Z"/>
      <path class="cls-7" d="M380,210c.19-.56.36-1.16.51-1.78a2.64,2.64,0,0,0,0-.39Z"/>
      <path class="cls-7" d="M167.29,70h0Z"/>
      <path class="cls-7" d="M171.94,90.77c-.69-3-.68-1.33-1-1.92-.91-3.57-.12-1.72-.2-3-.58-2.22-1.27-3.88-1.58-5.57,0-.14,0-.47.14-.1-.78-2.33-1.3-7.08-2-9.83a1.32,1.32,0,0,1,0-.38c-.13.48-.3.57-.45.5a12.23,12.23,0,0,1-.38-3.07,4,4,0,0,0,.33,1.29l-.29-1.43c.19-1.33.36,1.95.62,1.92-.25-1.39-.51-2.9-.71-4.33a26.64,26.64,0,0,1-.35-3.87c.16-.23.26,1,.33,2s.18,1.6.2.16l.18,3.33c.29-2.59.15,2,.5-.37-.17-2.18-.31-3.39-.4-4.61l-.16-1.94c0-.73,0-1.57,0-2.66-.2-1-.28.32-.47-.66a13.22,13.22,0,0,1,.58-5.27,11.34,11.34,0,0,0,.43-1.51,22.62,22.62,0,0,0,.42-2.42,7.43,7.43,0,0,1,.06-1.66,8.74,8.74,0,0,1,.3-1.19c.08-.24.17-.51.28-.81s.31-.59.51-.93l-.11,1.11c.43-.89.68-1.48.91-1.89s.29-.72.43-1a7.21,7.21,0,0,1,2.12-2.61,21.6,21.6,0,0,0-1.58,2,10.39,10.39,0,0,0,1.48-1.71,4.5,4.5,0,0,1,1.17-1.4l.56,0a38.57,38.57,0,0,1,12.46-6.75c-.23.18-1,.55.13.28,5.91-2.12,13.07-3.2,19.13-3.76l2.28-.57c.54-.06,1,0,.44.14,2.38-.14.1-.2,1.23-.44,1.35-.16,1.8,0,1,.16a101.8,101.8,0,0,1,16.38-1.34l-.86.12c3.46,0,3.88-.75,7.1-.57l-.61.07c7.52-.08,15.83-.36,21.57.11,1.09-.42,7.45.24,7.94-.34,4.3.33,3.06.43,9.12.69,1.62,0,2.42-.34,4.42-.39l0,.31,2.72-.3,1.44.38,1.88-.07c-.75,0-1.59-.15-1.48-.23a37.83,37.83,0,0,1,7.23.37q3.47-.15,6.95-.35a12.31,12.31,0,0,1-2.23.29c3.71-.39.68.32,4.08-.05-.46-.06.24-.19.32-.25a59.65,59.65,0,0,0,8.43-.31l-.53.25a77.1,77.1,0,0,0,8.14-.91c1.45-.27,2.74-.5,4.1-.68l2-.16h2.07c-2-.11-1.54-.48.11-.5.21.11.43.25.64.37,1.07-.11-1.7-.27.49-.33,2.09.21,1.35.49.16.49a21.81,21.81,0,0,1,2.51.21c.13.12-.46.08-.63.17,1.08-.12,4.15,1.2,5.65,1.36l.1.13a45.17,45.17,0,0,1,6.09,2.74c.84.44,1.61.94,2.45,1.43s1.66,1.09,2.57,1.78c.23-.16,1.65.94,2.83,1.68a91.07,91.07,0,0,1,7.77,8.16c2,2.1.74.48,1.69,1.38,0,.32,2.51,3.53,1.05,2l1.93,2.5,1.55,2.11c1,1.41,2.13,3,3.88,5.57-.27-.63-.65-1.3-.36-1,.66.93,1.26,2.27,1.08,2.19l-.18-.24c4.05,5.82,7.08,14.62,9.76,19.54l-.15-.28c.87,1.74,1.69,3.5,2.51,5.26.95,2.51-.77-1.42-.19.48,2.7,5.69,3.44,9.3,5.3,14.13a77.69,77.69,0,0,0,2.36,9,80.77,80.77,0,0,1,2.43,10l.1-.34a9.76,9.76,0,0,1,.46,2.68c.1-.17-.17-1.51.11-.69a176.42,176.42,0,0,1,4.48,36.17c.08,4.41,1,2.49.61,8.07-.1-.53-.2-1.06-.32-1.58a94.47,94.47,0,0,1-3,26.6,7.09,7.09,0,0,1,.21-1.37c-.33.87-.85,2.41-1.24,3.89a12.24,12.24,0,0,0-.58,2.75c-.43,1.32-.26.26-.61,1-.62,1.79-.95,4.65-1.39,5.56-.07.16,0-.53.11-.87-.17,1.22-1.32,5.56-.79,4.48-.83,3.23-1.16,6.26-1.78,8.84,0,1.75-1.09,5.58-.75,6.19-.41-.31-1.27,5.68-1.37,7.78,0-.71-.42,1.77-.48.94-.36,2.36-.63,4.52-.33,4.15-1.22,4.24-1.06,8.76-2.22,11a119.13,119.13,0,0,1-4.68,19.29c-.09-.09,0-.55.22-1.18s.43-1.46.68-2.26c.52-1.6,1-3.16.69-3.1-.79,2.88-1.35,5.19-2.11,7.41l-.55,1.69c-.1.28-.19.58-.29.84a5.42,5.42,0,0,1-.35.73,7.54,7.54,0,0,1-2.59,2.61c-1.25.73.61-.59.86-1a17.8,17.8,0,0,1-7.42,3.5c-2.67.7-5.35,1.11-8,1.53a6.77,6.77,0,0,1,1.11-.25c-1,.15-2.42.2-2.29.39l1-.16c.85.05-.17.34-1.43.59s-2.77.47-2.86.56c1.75-.67-5.29.12-2.48-.76-.69.07-1.55.19-1.39.32-1,0-1.36-.08-.32-.27-3.77.2-2.43.39-5.85.39,0-.1.7-.14,1.06-.25a33.54,33.54,0,0,1-6.37.2c.18-.05-.16-.14.71-.12-5-.12-8.5.18-13.95-.4,1.64-.31-1.84-.28-2.1-.67l-2.94-.12,1.16.28c-2.57-.21-4.86-.15-7.06-.47l1.92,0-4.82-.37,2.71.39c-2.62,0,.24.5-3.17.08.7,0-2.57-.24-3.89-.58h0c-.64,0-1.29,0-2,0a23.3,23.3,0,0,1-2.46-.29c-.47-.18.44-.36.13-.48a8.66,8.66,0,0,1-1.49,0,14.28,14.28,0,0,1-2.15-.27,27.45,27.45,0,0,0-3.88-.59c.54,0,.61-.15.45-.23-.36,0-.72,0-1.08,0-1.12-.42-1.27-.5-1-.6-3.4-1.06,1,.78-3-.62.33.07.18,0,.86.15a82.12,82.12,0,0,1-11.32-4.37c-.89-.81,3.16,1.32,2.08.49-1.28-.58-2.63-1.07-3.92-1.72l-3.92-1.88c-1.31-.63-2.55-1.37-3.8-2.05s-2.46-1.39-3.59-2.17l.84.59c-.91,0-3.31-2.39-5.72-3.76.58.36.89.27.71.21-1.51-1.11-3.09-2.18-4.9-3.37s-3.75-2.6-6-4.29l.63.34c-1.63-1.5-4.52-3.67-6.28-5.29-.63-.36-1.65-1.26-1.15-.57a99,99,0,0,0-7.85-7.14,62.15,62.15,0,0,1-7.18-6.94c.56.55,1.41,1.22,1,.78l-4.05-3.82c.14.48.41.62,1.12,1.57a20.57,20.57,0,0,1-2.75-2.43c1.86,1.69.25-.28-.42-1.14.08.18-.24,0-.23.08-1.74-2.37-.69,0-3.24-3.08l.23.07c-1.07-1-2.13-1.93-3.2-3.12-.26-.67,1.18,1.07,1.41,1-1.57-1.62-3.42-2.9-4.59-4.59.7.66,1.63,1.67,2.33,2.33a25.23,25.23,0,0,0-2.58-3.24l.1.12c-.82-1-1.65-1.93-2.45-2.92l.58.78c-2.38-1.65-3.93-4.19-6.74-6.78,2.74,2.52.59.3,1,.32-.57-.79-1.46-2-1.12-1.7-1.36-1.2-1.8-2.4-3.7-4.11,0-.15-1.23-1.48-.78-1.32-1.56-1.74.22.53,0,.46-2.57-2.54-5.07-6.77-8.65-10.53-2.9-3.39-3.68-3.83-6.33-7-.73-1.2,1,.69,1,.69a55.23,55.23,0,0,0-3.68-4.84c.33.29.12-.1-.18-.69-1-1.35-1-.7-2.2-2.59a10.11,10.11,0,0,1,1.33,1.14c-1.26-1.57-2.6-3-3.89-4.68-.19-.55.94.87,1.47,1.39a56.3,56.3,0,0,0-4.32-5.25l.79,1.28c-.51-.69-.07-.49.34,0a5.66,5.66,0,0,1,1.61,2.54l-.92-1.16c.43,1.57,3.58,4.76,5.35,7.16l-1.08-.75,2.12,2.24c.31.59.39,1.08-.55-.06,1.13,1.83,1.25,1.43,2.19,3,.1.18,0,.12-.1,0l1.37,1.58c-.32-.27,0,.46-.76-.6,2.09,3.13,4,4.59,4.58,5.9l-.21-.23c3.34,4,.55.21,3.26,3l1.06,2.52.56.21c.33.42,1,1.26.77,1.19,1.43,1.42-.11-.35.78.43,1.41,2.19,4.64,5.41,4.65,6.17.77.56-1.45-2,.45,0,.1.95,2.12,2.39,3.49,4.33-.68-.37-2-2.16-.67-.21,1.28.78,2.93,3.56,4.33,5,.34-.17,3,3.16,5.34,5.53a27.76,27.76,0,0,0,2.22,2.66l4,4.45-.11,0c.67.19,2.88,2.52,4.57,4.15-.22.09-.58-.15-1.53-1l1.54,1.57a17,17,0,0,1,2,1.7l-.59-.19c2.1,2,4.42,3.92,7.05,6.62.33,0-1.69-2.57,1.32,0,0,.2,0,.48-.84-.2a13.61,13.61,0,0,1,1.42,1.26l-1.32-.92c1.18,1.25.79.47,1.77,1.43-.15.13.66.78.41.77-.28-.22-.83-.86-1.26-1.17a34.15,34.15,0,0,1,2.78,2.94c0-.17.18-.2,1,.54,2.19,1.95.59.85,1.79,2.07.63.36,2,1.68,2.19,1.49a3.58,3.58,0,0,1,.88,1c1.21.92,5.49,4.48,4.36,3.16l-.29-.26.2.15h0c1,.72,2,1.5,3,2.3l3,2.38a75.56,75.56,0,0,0,6.12,4.53l-.06.08c1.22.82,2.61,1.7,3.92,2.5s2.52,1.56,3.47,2c.75.44,1.68,1.19,1.3,1.1l2.21,1.18,2.81,1.64c-2.09-.91.6.53-2.11-1a36.91,36.91,0,0,0,6,3.12c-1.09-.22,1.88,1.2,3.19,1.7l-1.8-1c1.45.61,2.69,1.19,4,1.79h-.82a30.13,30.13,0,0,0,4,1.64l1.92.64c.64.18,1.28.31,1.89.46,1.24.3,2.43.58,3.58.92a25.11,25.11,0,0,1,3.39,1c1.61.1-3.18-.84-1.72-.81,1.35.3,2.71.74,3.85,1.07s2.09.49,2.52.54a13,13,0,0,0,3.69.22,17.39,17.39,0,0,1,3.78.13c-.49-.16-.94-.52,2-.36,2.73.3,3.32.8,1.58.74-.66-.05-1-.12-.94-.15-.89,0-2.05-.1-1,.13l.37-.09c1.35.25,5.12.58,4.21.69,2.08.07.9-.11-.63-.31,3.5.49,5.49.49,9.11.88-.57-.11-1.09-.29-.52-.24,5.31.53,2.36-.05,6,.13,2,.3-.76.4,2.88.44,2.21.23.46.34-.43.39,3.33-.05,6.19.41,8.1.5l-1.75.05c1,0,1.91,0,2.78,0l-1-.26a7.54,7.54,0,0,1,1.88.17c1.06-.14-.81-.4,1.3-.6,1.37.14,4.17-.15,4.65.15-4.32,0,.48.32-3.17.4.71,0,1.56,0,2.6,0,.16,0-.15.07-.43.09,4.15.18,1.89-.37,6.18-.57-.53.21,1,.28,1.71.18-1.73.11-.84-.23.72-.49a27.65,27.65,0,0,0,4.4-.56l-1.64.14a35.49,35.49,0,0,1,3.78-.74c.19.11-1.71.37-1,.32,2-.64,4.83-.49,7.66-1.67,1.36-.37.24.28,1.44-.1,1.56-.77,2.41-1.2,3.29-1.67a8,8,0,0,0,3-2.72c-.43.41-.69.61-.63.47a10.85,10.85,0,0,0,1-1.93,10.42,10.42,0,0,1-4.23,4.48,12.15,12.15,0,0,0,2.85-2.71,12.63,12.63,0,0,1-3.89,3,7.23,7.23,0,0,0,1.14-.82c0-.07-.19.05-.61.16a7.41,7.41,0,0,0,3-2.16,9.39,9.39,0,0,0,1.11-1.62c.18-.29.3-.61.45-.92s.26-.61.4-.92l.52.29a33.82,33.82,0,0,0,1.95-5.56l.84-3c.27-1.08.59-2.24,1-3.52l-.56,1.63c0-.75.86-3.19,1.14-4.9.15.2.48-.83.77-1.52-.13.06.84-3.82.55-4.37.25-.76.5-1.52.72-2.28.9-4.21.33-4.93,1.08-9,0,1.26.46-.57.15,2.19a9.93,9.93,0,0,0,.33-2.62c.25-.78.34-3.82.72-5a7.63,7.63,0,0,1,.08-2.33c.07-.16.1,0,.1,0s.24-2.41-.18-1.11c1.24-4.09,1.84-11.71,3.09-15.22.5-3,1.23-6.49,1.88-9.12,0,.18.09,0-.06.52a9.6,9.6,0,0,0,.61-3,9.73,9.73,0,0,1,.79-3.39c.95-2-.5,2.21,0,.95.4-.19.75-1.42,1.16-2.94s.91-3.36,1.43-4.72l-.14.69c.83-2.1,1-5.35,1.63-8.92,0,0,0,.18.09,0,.06-2.5.43-7.16.49-10.64.21,1.09,0,1.58.35.94,0-1.56-.43.43-.37-2.67.19-1,.33-3.24.62-3.54l0,2.94c.39-1.5.07-3.8.1-5.35l.16.2c-.11-4.51-.5-4.55-.75-9.37l-.09.51c-.56-2.6.08-2.22-.43-4.82l.33-.83c-.25-1.73-1-6-1.51-9.1A75.8,75.8,0,0,1,391,140a50.4,50.4,0,0,0-1-6.7,14.4,14.4,0,0,1,.36,2.23,80.13,80.13,0,0,1-1.62-8.19c.42.24.11-2-.33-4.57a57,57,0,0,1-1-6.83c-1.57-5.89-2.61-11.8-4.7-18.59.16,2.58-.62-2-1.08-1.38a21.11,21.11,0,0,1-.72-2.32c-.38-1.63-.8-3.24-1.23-4.86-.21-1.18.63,1.44.71,1.26-1.12-3.45-.24-1.52-.89-3.84-.05.54-.7-1.09-1.36-3,.26.94.5,1.88.74,2.83-2-4.63-1-4.29-3.22-8.92l.78,1.43c-.54-1.2-1.45-3.44-2.47-5.63a36.23,36.23,0,0,0-2.88-5.39c-.14-.45-.26-1.07.29-.05-1.31-2.85-3-5.89-4.7-8.75s-3.37-5.5-4.57-7.63l.38.32a26.4,26.4,0,0,1-2-2.86c.09,0,.39.31.09-.15s-2-2.41-2.83-3.72c.32.32.61.65.91,1-.84-1.29-1.69-2.35-2.46-3.33s-1.57-1.82-2.34-2.63c-1.56-1.61-3.08-3.07-4.94-4.85.36-.33-3.06-3.79-5-5.35h.11a39.21,39.21,0,0,0-8.21-5.2,40.18,40.18,0,0,0-8.84-3,24.55,24.55,0,0,0-9.43-1.14l-1.47.1c-.49.06-1,.14-1.47.2-1,.14-1.92.3-2.83.44-1.83.27-3.64.42-5.25.51,1,0-.13.36-1.27.5-1.52,0-4.18.58-4,.16l.54,0c-1.17-.32-4.28-.08-6.73,0l-.39.54c-6.42-.59-16.82.38-20.33-.34-1.55.12-3.47.1-5,.21l.09-.28C265.18,22,263,22,257.71,22l1.09-.19c-3,0-3.79.79-6.56.8l-.83-.43c-5.23,0-10.54-.35-15.72.14.08-.06.24-.19,1.08-.22-2.47,0-9.56,0-8.64.53-.08-.38-5.41.18-8.23.53l.42-.3a37.52,37.52,0,0,1-5.75,1c-.79,0-.71-.17.34-.18-2.64.07-2,.43-5.22.6l1.17-.3a14.84,14.84,0,0,0-3.94.71,26.64,26.64,0,0,1-5.55.43,12.47,12.47,0,0,1-3.36.85c-.23-.06.33-.22.62-.29-4.52.61-6.57,1.63-9.66,2.18a.83.83,0,0,0-.55,0c3.5-1,6.37-1.52,6.1-1.45-.05-.26-2.93.33-.72-.52-2.28.68-6.07,2.08-8.82,2.91a3,3,0,0,1-.39,0l.27-.12a13.63,13.63,0,0,0-1.7.66c-.88.27-1.43.49-2.25.81a7.39,7.39,0,0,0-1.9.71c-.9.45-1.91,1-2.56,1.37.24.18-1.46,1.11.23.41-.21.11.22-.19,1.08-.65.19-.11.43-.23.55-.31l-.08.07c.86-.46,2-1,3.32-1.55A29.09,29.09,0,0,1,178,31.94c-.6.49-1.21,1.1-1.57,1.39A19.39,19.39,0,0,0,173,35.07l-1.46,1a5.54,5.54,0,0,1-.83.55A18.66,18.66,0,0,0,166.62,43l-.54,1.75-.24.83c-.06.27-.09.54-.13.8a17.94,17.94,0,0,0-.26,2.67,4.8,4.8,0,0,1-.47,1.9c0-.74.15-1.61.13-2-.29,2.56-.62,7.55-.15,8.15-.14,3.19-.36-1.79-.25,2.6-.05-.2-.08-.39-.12-.59a48,48,0,0,0,1.14,11.38c.71,3.55,1.49,7.18,2.07,11.92a5,5,0,0,1-.09-1.13c.88,5.35,2.23,10.78,3.61,16.16A92.19,92.19,0,0,0,176.74,113a22.39,22.39,0,0,0,2.61,4.54l0,.72,1.74,2.66a24.86,24.86,0,0,1,2.34,5.77l.39,1.52c.09.52.24,1.05.32,1.6a15.77,15.77,0,0,1,.26,3.6,3.5,3.5,0,0,0,.27-.66,8.13,8.13,0,0,1-1.08,3.56,10.42,10.42,0,0,1-.92,1.27c-.28.26-.45.39-.43.29a2.42,2.42,0,0,1-.95,1l-.15-.08a20.86,20.86,0,0,1-4,2.86c-1.77.76-1.69.55-1.82.45s-.43-.09-3,.87c-1.91.78-5.53,2.2-4.75,2.1a6.63,6.63,0,0,1,2.21-.39l-1.82.63c-.2.54-1.53,1.45,3.17.37,1-.47,2.07-.87,3.07-1.39l1.09-.19c-.88.35-1.75.73-2.65,1a7.62,7.62,0,0,0,2-.65c.54-.26,1-.51,1.52-.81a4.65,4.65,0,0,0,1.4-.38c.48-.29.94-.64,1.39-1a14.43,14.43,0,0,0,1.33-1.05c.45-.08-1.09,1.16.89,0,.61-.53.23-.4,0-.33s-.23,0-.17,0,.29-.27.78-.73a14.73,14.73,0,0,0,1.27-.78,3.58,3.58,0,0,0,.45-.42,4.42,4.42,0,0,0,.67-.9c.25-.18.11.28-.42.89a13.17,13.17,0,0,0,1.72-2.75,13.45,13.45,0,0,0,.47-1.47,5.67,5.67,0,0,0,.07-1.06,6.8,6.8,0,0,0,.24-1.7,13.55,13.55,0,0,0-.18-2c-.09-.62-.2-1.17-.28-1.55s-.06-.63.06-.61l-.8-1.76-1.14-2.39c.79,1.2.26-.16-.47-1.69s-1.58-3.27-1.16-3.07c-1.36-1.63-3.58-6.47-5.27-9.63a3.82,3.82,0,0,1,.46.79,28.72,28.72,0,0,1-1.28-3.68c-.46-.09-1.69-3-2.37-4.54-.37-2.46.88,1.29,1,.44-.12.11-.55-.88-.87-1.8s-.62-1.76-.64-1.33a9,9,0,0,1-.21-2.66c-.56-.21-.5-1.71-1.17-3.18-.4-2.75.28-.8-.56-3.72C171.16,88.18,171.94,90.77,171.94,90.77Zm14.31-60.63h0c-.58.2-1.08.36-1.39.49C185.14,30.52,185.54,30.38,186.24,30.14Zm5.8-1.64c-.72.15-1.6.4-2.54.64-.23,0,0-.19.55-.34C189.76,29,191.14,28.63,192,28.51Zm-12.85,2.31a4.11,4.11,0,0,1,1.35-.54L179,31l-.09.08A1,1,0,0,1,179.19,30.82Z"/>
      <path class="cls-7" d="M177.77,31.95l-.35.2.55-.21.27-.24Z"/>
      <path class="cls-7" d="M242.26,240.64l.1.09a1.91,1.91,0,0,1-.18-.2A1.41,1.41,0,0,1,242.26,240.64Z"/>
      <polygon class="cls-7" points="275.53 24.77 275.52 24.7 274.99 24.75 275.53 24.77"/>
      <path class="cls-7" d="M218.27,217.28a1.81,1.81,0,0,0-.26-.36A2.34,2.34,0,0,0,218.27,217.28Z"/>
      <path class="cls-7" d="M208.4,206.73l-1.3-1.58C207.65,205.84,208.07,206.33,208.4,206.73Z"/>
      <path class="cls-7" d="M201.13,198.33a.51.51,0,0,0-.23-.09v0Z"/>
      <path class="cls-7" d="M352.89,268.15l.42-.06C354.28,267.89,353.62,268,352.89,268.15Z"/>
      <path class="cls-7" d="M300.54,267.2c.56,0,1.12,0,1.7,0C301.31,267.11,300.58,267,300.54,267.2Z"/>
      <path class="cls-7" d="M377.86,223.11h0l.06-.36Z"/>
      <path class="cls-7" d="M304.68,267.44a20.63,20.63,0,0,0-2.44-.23C303,267.3,303.91,267.42,304.68,267.44Z"/>
      <path class="cls-7" d="M171.4,160.48l-.3-.44s0,0-.07,0Z"/>
      <path class="cls-7" d="M171,160l-.37-.46A2.7,2.7,0,0,0,171,160Z"/>
      <path class="cls-7" d="M169.87,158.57l.78,1A5.83,5.83,0,0,0,169.87,158.57Z"/>
      <path class="cls-7" d="M180.05,172.37l.18.07C180.16,172.38,180.1,172.36,180.05,172.37Z"/>
      <path class="cls-7" d="M182.8,175.9c-.63-.86-1.46-2.25-2.41-3.39l-.15-.06C180.78,172.91,182,175.2,182.8,175.9Z"/>
      <path class="cls-7" d="M193.5,191.25l-2.32-3c.33.58.77,1.34-.34,0C193.59,192.2,190.41,187.43,193.5,191.25Z"/>
      <path class="cls-7" d="M200.92,200.22c-1.36-1.49-.1.12-.22.08C201.62,201.2,201.84,201.42,200.92,200.22Z"/>
      <path class="cls-7" d="M263.65,255.93l-.31.12C264.71,256.81,263.41,256,263.65,255.93Z"/>
      <path class="cls-7" d="M278.59,261.9c-.45-.22-.9-.44-1.33-.71l-.74-.08C277.2,261.4,277.88,261.68,278.59,261.9Z"/>
      <path class="cls-7" d="M287,266.65l-.67-.16,1.27.33c.43.09.87.16,1.3.24A17,17,0,0,1,287,266.65Z"/>
      <path class="cls-7" d="M382.93,207.38l-.39.4C382.4,208.83,382.71,209.1,382.93,207.38Z"/>
      <path class="cls-7" d="M391.41,147.25a11.38,11.38,0,0,0-.14-3.45C391.37,145.18,391.31,146.56,391.41,147.25Z"/>
      <polygon class="cls-7" points="291.68 22.23 292.9 22.1 290.6 22.22 291.68 22.23"/>
    </g>
  </g>
  <text class="cls-8" transform="translate(204.45 57.15)"><tspan class="cls-9">H</tspan><tspan class="cls-10" x="17.7" y="0">a</tspan><tspan x="30.45" y="0">r j</tspan><tspan class="cls-11" x="52.41" y="0">e</tspan><tspan x="64.41" y="0">g </tspan><tspan class="cls-12" x="0" y="36">m</tspan><tspan class="cls-13" x="21.72" y="36">u</tspan><tspan class="cls-14" x="36.09" y="36">l</tspan><tspan class="cls-15" x="43.17" y="36">i</tspan><tspan class="cls-16" x="50.82" y="36">g</tspan><tspan class="cls-15" x="63.84" y="36">h</tspan><tspan class="cls-17" x="78.36" y="36">e</tspan><tspan x="90.33" y="36">d for</tspan><tspan x="0" y="72">at </tspan><tspan class="cls-18" x="25.53" y="72">l</tspan><tspan class="cls-19" x="33" y="72">æ</tspan><tspan class="cls-20" x="51.51" y="72">s</tspan><tspan x="61.62" y="72">e i </tspan><tspan class="cls-12" x="0" y="108">u</tspan><tspan class="cls-13" x="14.4" y="108">d</tspan><tspan class="cls-18" x="28.74" y="108">l</tspan><tspan class="cls-10" x="36.21" y="108">a</tspan><tspan class="cls-12" x="48.96" y="108">nd</tspan><tspan class="cls-21" x="78" y="108">e</tspan><tspan x="90.12" y="108">t?</tspan></text>
  <path class="cls-2" d="M1184.29,288.74a9.81,9.81,0,0,1-.26,4.49c-12.36,11.12-164.36,17.24-197.48,5.14C986,269.75,1006,235,1026.28,215.91c9-8.48,34.18-18.31,40-27.33,6.52-10-3.14-15.34-8.63-25.9-13.52-26-8.39-59.16,19-75.3,21.4-12.6,76.29-6.24,84.64,19.86,7.6,23.77-15.61,65.62-33.83,80.14C1154.44,214.59,1172,249.53,1184.29,288.74Z"/>
  <ellipse class="cls-3" cx="1129.19" cy="125.22" rx="19.63" ry="19.37"/>
  <ellipse class="cls-4" cx="1123.68" cy="131.78" rx="11.02" ry="10.87"/>
  <ellipse class="cls-5" cx="1116.79" cy="133.49" rx="4.13" ry="4.42"/>
  <ellipse class="cls-3" cx="1080.98" cy="126.57" rx="19.63" ry="19.37"/>
  <ellipse class="cls-4" cx="1075.47" cy="133.14" rx="11.02" ry="10.87"/>
  <ellipse class="cls-5" cx="1068.58" cy="133.82" rx="4.13" ry="4.42"/>
  <g>
    <path class="cls-6" d="M1038.9,148c-29.14-5.62-21.45-34.14-24.43-55.28-1.6-11.34-7.2-21-9.93-32-2.78-11.21-1.64-21.72-8.15-32.13C974.62-6.23,887.87,6.93,853.4,12.67c-49.34,8.22-7.54,126.69-5.2,158.57,1.69,23-1.81,53.32,5.84,75.11,8.44,24,58.5,42.84,82.43,30.85,26.4-13.23,16.33-53.61,17.33-76.53,1.58-36.43,55.71-37,83.53-49.56"/>
    <g>
      <path class="cls-7" d="M1037.6,151.71c.35-.26.06-.33-1,.17l-.65.63Z"/>
      <path class="cls-7" d="M1030,154c-1.25.62-2.7,1.35-1.75,1.38,1.22-.72,1.57-.73,2.84-1.56,1.11-.41,2-.62,1.83-.43a15.39,15.39,0,0,0,2.26-1,27.34,27.34,0,0,0-5.2,1.88C1029.51,154.35,1029.88,154.13,1030,154Z"/>
      <path class="cls-7" d="M953.9,220.21v-.74C953.89,219.67,953.89,219.92,953.9,220.21Z"/>
      <path class="cls-7" d="M928.9,279.16a2.24,2.24,0,0,0,.74-.27C929.17,279,928.77,279.16,928.9,279.16Z"/>
      <path class="cls-7" d="M916.95,279.88l.71,0A3.18,3.18,0,0,0,916.95,279.88Z"/>
      <path class="cls-7" d="M953.9,220.21v1.91C954,222.25,953.93,221.14,953.9,220.21Z"/>
      <path class="cls-7" d="M1014.92,159.32c.38-.12.7-.23,1-.35l-.93.29Z"/>
      <path class="cls-7" d="M955.82,188.8l.23-.55a4.71,4.71,0,0,0,.11-.49A6.75,6.75,0,0,0,955.82,188.8Z"/>
      <path class="cls-7" d="M973,171.73a1.41,1.41,0,0,0-.64.82,4.11,4.11,0,0,1,.95-.77C973.28,171.73,973.18,171.71,973,171.73Z"/>
      <path class="cls-7" d="M1009.39,159.61l.65-.21Z"/>
      <path class="cls-7" d="M952.95,206a.49.49,0,0,0-.1.22S952.92,206.16,952.95,206Z"/>
      <path class="cls-7" d="M1019.5,130.85s0,0,0,0S1019.55,131,1019.5,130.85Z"/>
      <path class="cls-7" d="M1038.88,148.07l-.38-.07c-.05,0-.1.08-.11.14Z"/>
      <path class="cls-7" d="M895.4,275.85l.09,0C896.05,276,895.74,275.93,895.4,275.85Z"/>
      <path class="cls-7" d="M834.59,96.17c.14,2.33-.94-3.66-.64-.18C834,95.65,834.92,99,834.59,96.17Z"/>
      <path class="cls-7" d="M1014.3,159.45l-1,.26C1013.78,159.6,1014.08,159.52,1014.3,159.45Z"/>
      <path class="cls-7" d="M833.95,96h0l0,.36Z"/>
      <path class="cls-7" d="M855.7,247.24a2.3,2.3,0,0,0,.08.51S855.79,247.6,855.7,247.24Z"/>
      <path class="cls-7" d="M883.1,271.74l-.83-.44C882.6,271.48,882.86,271.62,883.1,271.74Z"/>
      <path class="cls-7" d="M850.91,228.29a10.22,10.22,0,0,0-.12-1.38,2.15,2.15,0,0,0,0,.22A5.09,5.09,0,0,1,850.91,228.29Z"/>
      <path class="cls-7" d="M849.66,207.71l-.05.38,0,.65Z"/>
      <path class="cls-7" d="M1008.51,69.4a4.75,4.75,0,0,1,.09,1C1008.67,70,1009.79,72.82,1008.51,69.4Z"/>
      <path class="cls-7" d="M1014.87,159.17a1.37,1.37,0,0,1-.56.28l.66-.19C1015,159.2,1015,159.16,1014.87,159.17Z"/>
      <path class="cls-7" d="M848.62,227.71l-.31-3.31C848.38,225.33,848.49,226.53,848.62,227.71Z"/>
      <path class="cls-7" d="M897.41,5.66l.75-.1A4.47,4.47,0,0,0,897.41,5.66Z"/>
      <path class="cls-7" d="M847.64,214.59c.07-.59.12-1.22.13-1.87a2.7,2.7,0,0,0-.08-.38Z"/>
      <path class="cls-7" d="M1008.59,70.38s0,0,0,0S1008.59,70.38,1008.59,70.38Z"/>
      <path class="cls-7" d="M1015.81,91.06c-.59-3.18-.64-1.42-1-2-1-3.68-.14-1.78-.27-3.09-.72-2.28-1.61-3.9-2.16-5.57,0-.14-.07-.48.13-.12-1.07-2.27-2.56-6.91-3.9-9.47a1.34,1.34,0,0,1,0-.38c0,.5-.16.63-.32.59-.49-1.31-1.11-2.37-1.05-2.95a3.85,3.85,0,0,0,.6,1.2l-.59-1.35c-.11-1.36.77,1.85,1,1.76a54.9,54.9,0,0,1-2.85-7.86c.17-.52,1.54,4.86,1,2,.27,1.09.59,2.17.91,3.25-.32-2.61.63,1.95.4-.47l-1.42-4.45a32.22,32.22,0,0,1-1.1-4.5c-.37-.94-.21.38-.59-.56a16.65,16.65,0,0,1-.62-5.39,11.89,11.89,0,0,0-.41-4.19,13.89,13.89,0,0,1-1.21-4.92l.58,1.06a13.1,13.1,0,0,0-.89-3.38,9.37,9.37,0,0,1-.41-1.14c-.14-.52-.32-1.25-.6-2.38.42.74,1,3.33.91,2.67a6.33,6.33,0,0,0-.65-2.4,9.91,9.91,0,0,1-.82-1.8l.16-.57A34.35,34.35,0,0,0,997.24,28l-2.34-3.1L992.21,22c.26.14,1,.74.19-.25A59.55,59.55,0,0,0,975.14,11c-.78-.23-1.59-.36-2.38-.53-.53-.18-.94-.46-.35-.32-2.3-.89-.18.14-1.34-.13-1.33-.43-1.71-.71-.83-.55-2.12-.48-5.12-1.2-8.17-1.76-1.51-.34-3.06-.55-4.48-.83l-3.87-.75.89,0a19.06,19.06,0,0,0-3.72-.3,14.56,14.56,0,0,1-3.52-.27H948c-7.61-.95-16.07-.92-21.9-1.33-1.11.38-7.57-.09-8,.53-4.37-.12-3.13-.31-9.28-.17-1.64.06-2.42.53-4.44.72l-.07-.3-2.72.53L900,5.33l-1.89.24c.76,0,1.62,0,1.51.1a39.87,39.87,0,0,1-7.32.29c-2.32.34-4.64.65-7,1a12,12,0,0,1,2.22-.5c-3.69.74-.71-.25-4.1.44.47,0-.23.21-.3.28a73.05,73.05,0,0,0-8.44,1l.52-.29c-5.17.64-10.86,1.65-16.63,2.58,2.09-.24,1.67.2,0,.51l-.73-.21c-1.06.38,1.79-.16-.42.44-2.16.31-1.51-.13-.29-.44l-2.6.54c-.17-.07.44-.22.58-.37a25.8,25.8,0,0,1-2.9.47,10.15,10.15,0,0,0-3.3.91l-.18,0a24,24,0,0,0-6.61,3.39l-1.24,1-1.17,1.06a14.67,14.67,0,0,0-1.16,1.17,16.41,16.41,0,0,0-1.18,1.34c.08.13-.2.56-.59,1.12a19.57,19.57,0,0,0-1.13,2A36.44,36.44,0,0,0,830.82,34c-.61,3,0,.91-.16,2.26a8.32,8.32,0,0,0-.66,2c-.22.79-.33,1.29-.22.19-.45,2.53-.66,4.16-.83,6s-.31,3.76-.34,7c.14-.69.22-1.48.29-1.06a6.68,6.68,0,0,1-.33,2.48l0-.31c.07,3.62-.06,7.77,0,11.76a61.48,61.48,0,0,0,.76,10.61l-.06-.32c.29,2,.6,3.92.93,5.88.3,2.72-.4-1.6-.3.42,1.23,6.3,1.32,10,2.47,15.2-.1,4.16,2.63,14.24,3.29,19.72l.11-.35a11,11,0,0,1,.42,2.74c.1-.17-.16-1.54.12-.7,2.65,11.75,5.11,24.33,7.47,36.4.84,4.41,1.44,2.32,2.05,8l-.61-1.52a72.17,72.17,0,0,1,1.92,13.52c.25,4.59.32,9.17.52,13.62a5.57,5.57,0,0,1-.19-1.41,33.56,33.56,0,0,0,.22,7c0,1.39-.18.32-.27,1.18-.14,1.89.31,4.74.08,5.75,0,.17-.08-.53-.1-.88.12,1.23,0,5.74.28,4.56-.1,3.36.22,6.41.15,9.09.34,1.73.12,5.76.57,6.29-.47-.22,0,5.92.54,8-.21-.7.05,1.86-.22,1.05.3,2.42.74,4.62.9,4.17a18,18,0,0,0,.4,3.33c.22,1.08.43,2.13.72,3.1a24.52,24.52,0,0,1,1.1,5l.9,2.57c.27.85.71,1.69,1.06,2.51s.85,1.58,1.27,2.36,1,1.47,1.43,2.2a45.53,45.53,0,0,0,6.76,7.44c-.12,0-.52-.24-1-.69s-1.13-1.11-1.75-1.73c-1.21-1.28-2.28-2.6-2.39-2.33a46.6,46.6,0,0,0,5.83,5.59c1.91,1.53,3.84,3,6.34,4.79,1.28,1-.86-.35-1.35-.6a80.28,80.28,0,0,0,15.3,8.39,6.33,6.33,0,0,1-1.12-.36c1,.42,2.29,1.07,2.25.83l-1-.37c-.73-.48.32-.19,1.57.2a28.85,28.85,0,0,0,2.86.78c-1-.07.28.5,1.41.94s2.13.9.63.76c.69.2,1.56.41,1.45.23,1,.36,1.29.54.22.36,3.74,1.07,2.48.46,5.86,1.41,0,.09-.73-.06-1.11,0l2.79.47c1,.19,2.18.44,3.63.76-.19,0,.14.17-.73,0,1.25.24,2.41.46,3.55.57s2.23.26,3.34.33,2.24.17,3.44.23,2.46.14,3.86.22c-.83.19-.36.24.37.29s1.69,0,1.84.22l1.51-.08,1.51-.16-1.22-.1a31.23,31.23,0,0,0,3.74-.44l1.74-.28c.57-.12,1.13-.22,1.7-.3-.63.17-1.27.36-1.91.51a44,44,0,0,0,4.85-1.13c-.92.18-1.83.43-2.77.53,2.57-.76-.37-.36,3-1.13-.67.25,2.51-.75,3.84-1.17h0c1.17-.61,2.28-1.36,4-2.28.49-.18-.12.58.2.46.44-.52,1.78-1.33,3-2.41l.91-.77.78-.82a7.55,7.55,0,0,0,1.1-1.35c-.29.47-.2.6,0,.51l.52-1c.86-.88,1-1,1-.74,1.14-1.47.85-1.32.65-1.2s-.31.18,1-1.57a4.19,4.19,0,0,1-.41.8c2.58-3.61,3.84-7.58,5-11.39.71-1-.91,3.41-.22,2.19,1.72-5.62,2.15-11.86,2.48-17.41l-.09,1c-.49-.8.48-4.14.21-7,0,.69.29.91.23.72a128.44,128.44,0,0,0-.68-13.56l.17.71c0-2.25-.25-5.9-.32-8.32-.17-.71-.22-2.09-.38-1.24.2-3.75,0-7.28-.12-10.72,0-.86,0-1.71,0-2.55l.18-2.5a21.54,21.54,0,0,1,.46-2.43,11.86,11.86,0,0,1,.31-1.19l.45-1.14c-.22.75-.41,1.8-.24,1.21l.73-2.66,1-2.57c-.38.31-.4.61-1,1.62a12.48,12.48,0,0,1,1.34-3.43c-1.07,2.29.34.15,1-.72-.15.12,0-.24-.14-.2,1-1.11,1-1.26,1-1.55s.07-.75,1.48-2.19l0,.24a23.77,23.77,0,0,1,2.92-3.43c.66-.28-1,1.22-.95,1.45.39-.4.76-.83,1.12-1.26l1.15-1.19a10.14,10.14,0,0,1,2.48-2c-.36.32-.82.69-1.28,1.05s-.87.79-1.21,1.13c.47-.31.83-.55,1.13-.76l.78-.5,1.5-1.07-.13.09c1.06-.7,2.16-1.34,3.26-2-.3.13-.58.29-.87.44,2.05-2.08,4.9-3,8.21-5-3.21,2-.45.48-.59.88.91-.35,2.31-.85,2-.59,1.57-.92,2.84-1,5.1-2.21.14,0,1.82-.65,1.52-.28,2.19-.85-.58,0-.44-.16,3.3-1.56,8.2-2.33,13.1-4.18,4.3-1.39,5-1.92,9-3.15,1.41-.21-1,.64-1,.64a49.27,49.27,0,0,0,5.95-1.57c-.4.19.05.15.72.08,1.66-.47,1-.63,3.26-1.1a10,10,0,0,1-1.56.83c1.94-.62,3.84-1.32,5.84-2,.59,0-1.15.6-1.84.91,2.27-.71,5.87-1.87,6.48-2.36l-1.48.36c.82-.26.49.09-.1.32-1.89.79-2.84.75-3,.68l1.42-.48c-1.64-.1-5.77,1.75-8.71,2.49l1.11-.73-2.9,1.13c-.66.06-1.16,0,.27-.49-2.15.36-1.82.63-3.67.89-.21,0-.12,0,.06-.09l-2,.66c.38-.19-.42-.19.86-.47-3.73.74-5.84,1.88-7.3,2l.3-.11c-5,1.55-.41.42-4.11,1.85-.92,0-1.84,0-2.77,0l-.41.44c-.52.15-1.56.44-1.41.27-1.87.81.37,0-.69.57-2.59.52-6.79,2.43-7.5,2.21-.8.55,2.4-.72-.15.42-.94-.22-3,1.25-5.26,2,.56-.56,2.72-1.28.41-.59a10.47,10.47,0,0,1-2.8,1.43,33.57,33.57,0,0,0-3.25,1.49c0,.18-.89.77-2.2,1.53-.66.37-1.36.87-2.11,1.35a21,21,0,0,0-2.13,1.56,16,16,0,0,0-2.84,2.1,37.45,37.45,0,0,0-4.32,4.31v-.11a2.72,2.72,0,0,1-.42.83c-.21.39-.49.85-.81,1.36a28.51,28.51,0,0,0-1.86,3.32c-.15-.18,0-.6.52-1.8l-1.08,2a16.29,16.29,0,0,1-.84,2.59l0-.63a12.64,12.64,0,0,0-.7,2.19,19.88,19.88,0,0,0-.53,2.32c-.13.81-.26,1.63-.42,2.5s-.18,1.78-.31,2.74c.25.21,1-3,.81,1-.13.14-.41.28-.38-.77,0,.35.06,1.24,0,1.93l-.18-1.62c-.17,1.74.16.92.1,2.3-.2,0-.14,1-.3.83,0-.36.09-1.21,0-1.75-.08,1.57-.18,3.47-.32,4.1.11-.14.27,0,.31,1.14.1,3-.21,1-.26,2.76.17.71.11,2.61.4,2.64a3.65,3.65,0,0,1-.15,1.37c.2,1.53.42,7.14.64,5.4v-.39l0,.25h0c.57,5,.38,10.41.52,15.37h-.1c.14,3,0,6.59,0,8.71-.07.87-.34,2-.43,1.66a29,29,0,0,1-.69,5.72c.16-2.27-.26.75.21-2.31-.25,1.44-.43,2.32-.63,3.22-.09.45-.18.91-.25,1.45s-.21,1.16-.32,1.93c0-.55-.19,0-.45.78s-.57,1.92-.77,2.58c.29-.62.5-1.26.76-1.89a32.4,32.4,0,0,1-1.35,4.07c0-.27,0-.55-.06-.81-1.21,2.68-2.27,5.08-3.51,7.23a16,16,0,0,1-4.62,5.19c-.53.57.14.13.74-.43s1.25-1.09.85-.51a17.69,17.69,0,0,1-1.53,1.33c-.54.38-1.07.73-1.55,1-1,.59-1.83,1-2.17,1.21-.79.47-1.4.75-1.86,1.07s-.81.57-1.2.8a11.07,11.07,0,0,1-3.38,1.56c.25,0,.52,0,.38.16a5.25,5.25,0,0,1-2.1.92,6.23,6.23,0,0,1-2.51.3c-.3-.07-.06-.26.78-.47.64-.15.94-.21.93-.16.84-.27,1.94-.61.87-.46l-.31.2c-.33.06-.81.16-1.32.28l-1.57.25c-1,.17-1.7.21-1.28.05-2,.36-.84.33.67.14-1.74.18-3.09.37-4.47.44a39.1,39.1,0,0,1-4.58.12c.57.06,1.1.19.53.2-5.31-.28-2.35.19-6,0-2-.38.77-.33-2.85-.6-2.18-.41-.42-.36.46-.36a25.63,25.63,0,0,1-4.5-.68l-3.38-.9c.57.11,1.14.18,1.72.27a23.45,23.45,0,0,1-2.7-.54l.91.46a7.14,7.14,0,0,1-1.78-.57c-1.06-.1.69.59-1.4.27-.64-.24-1.65-.49-2.55-.73a5.38,5.38,0,0,1-1.84-.75c4.07,1.37-.37-.4,3.13.55a17.61,17.61,0,0,1-2.47-.74c-.14-.08.16,0,.43,0-3.81-1.51-1.91-.22-5.91-1.65.56,0-.8-.68-1.45-.89,1.59.63.66.58-.86.12-2.46-1.2-2.78-1.06-4.07-1.68.48.26,1,.5,1.46.73A18.37,18.37,0,0,1,881,271c-.09-.19,1.61.66,1,.31-2.07-.62-4.12-2.45-6.76-3.74-1.1-.82.06-.35-.91-1.06a14.78,14.78,0,0,1-2.87-1.89c-.36-.28-.71-.57-1.17-.9s-1-.74-1.68-1.22c.65.78.82.86-1.25-.45,1.52,1.13,3.08,2.21,4.69,3.22-1.06-.59-2.15-1.17-3.18-1.83a22.44,22.44,0,0,0,2.14,1.46c.7.43,1.31.84,1.74,1.13-1.56-.81-1.37-.77-.8-.13-1.74-1.62-4-2.5-5.92-4.47l.44-.4-2.14-2c-.72-.62-1.39-1.27-2.1-1.94A26.4,26.4,0,0,1,858,252c.25.5.59,1,.89,1.43a6.18,6.18,0,0,1-1.29-1.66l-.76-1.24-.68-1.21c.26,0-.21-.91-.36-1.62A10.37,10.37,0,0,1,855,246a7,7,0,0,0-1-2.2c-.14-.78-.33-1.55-.43-2.34-.94-4.17-1.69-4.64-2.36-8.74.4,1.2.22-.67.88,2a14.44,14.44,0,0,0-.55-2.59c0-.82-.84-3.75-.75-5a7.71,7.71,0,0,1-.52-2.29c0-.17.1,0,.1,0s-.36-2.42-.46-1c.21-4.3-.76-11.94-.28-15.69-.13-3-.22-6.69-.24-9.44.06.18.1,0,.08.53.17-3.8-.57-2.34-.38-6.67.31-2.21.18,2.3.3.92.65-.6-.1-5.23.25-8.15l0,.71c.19-2.23-.31-5.44-.41-9.09,0,0,.06.17.1,0-.43-2.47-.76-7.21-1.41-10.67.4,1,.35,1.57.51.87-.26-1.56-.33.51-.87-2.58,0-1-.29-3.28-.08-3.63l.52,2.92c.11-1.56-.67-3.78-.9-5.33l.19.17c-.92-4.45-1.32-4.43-2.3-9.2V150c-.94-2.52-.25-2.23-1.1-4.76l.21-.87c-.47-1.7-1.7-5.92-2.45-9,.67,1.68,1.61,5.24,2.27,7.43a67.69,67.69,0,0,0-1.69-6.61,17.57,17.57,0,0,1,.56,2.21,59.34,59.34,0,0,1-2.26-8.11c.87.44-1.74-8.87-1.66-11.45-1.53-5.94-2.33-11.92-3.63-18.93-.14,2.59-.39-2-.9-1.51a18,18,0,0,1-.41-2.41l-.45-5c0-1.21.38,1.54.49,1.37-.51-3.6,0-1.54-.18-3.94-.14.52-.5-1.2-.7-3.26l.14,2.92c-1-5-.12-4.41-1.06-9.44l.38,1.58c-.46-2.59-1-9.6-1.67-12.13,0-.47.16-1.09.29.06-.18-3.12-.48-6.59-.62-9.89a58.3,58.3,0,0,1,.18-8.84l.12.48a17,17,0,0,1,.13-3.47c.05.08.1.48.16-.05,0-.31,0-1.08.06-2a22.8,22.8,0,0,1,.31-2.63v1.32c.49-3,.85-5.26,1.26-7.41a33.27,33.27,0,0,1,1.78-6.54c.21.1.76-1,1.53-2.19a37.66,37.66,0,0,1,2.4-3.6v.1a25.27,25.27,0,0,1,6.39-6.31,22.82,22.82,0,0,1,8-3.43c4.08-.26,13.74-2.06,20.3-2.7-1,.06.11-.36,1.27-.56,1.54-.12,4.2-.88,4-.44l-.55.06c1.21.25,4.34-.27,6.81-.54l.34-.57c6.52,0,16.9-2,20.49-1.51,1.55-.25,3.49-.37,5-.57l-.07.29c2.17-.09,3.79-.14,5.54-.18s3.63-.13,6.3-.2L921.29,7c3-.05,3.8-.87,6.59-.88l.84.42c5.27.06,10.57.6,15.77.68-.09.06-.25.17-1.1.12,2.48.13,9.47,1.27,8.65.61,0,.19,1.34.39,3,.57l5.13.63-.49.2a26.61,26.61,0,0,1,5.79.73c.76.25.61.4-.38.05,2.5.86,2.06.25,5.09,1.32-.39-.07-.79-.14-1.19-.18a18,18,0,0,0,3.88,1,17.58,17.58,0,0,1,3,1.2,7.49,7.49,0,0,1,2,1.15,11.32,11.32,0,0,1,3.21,1.26c.15.18-.4,0-.67-.13,1,.51,1.83,1,2.61,1.48s1.48.8,2.13,1.18,1.22.8,1.8,1.21a9.85,9.85,0,0,1,1.7,1.4c0,.11.11.28.28.47a44.71,44.71,0,0,0-5-3.65c-.07.11.51.54.83.84s.39.45-.68,0c1,.51,2.33,1.35,3.72,2.18.65.48,1.29,1,1.9,1.5a9.87,9.87,0,0,1,1.63,1.56,2.17,2.17,0,0,1,.18.33l-.21-.19a14.17,14.17,0,0,0,1.21,1.27c.28.34.52.62.73.9l.64.94a7,7,0,0,0,1,1.64c.56.76,1.06,1.73,1.43,2.33.2-.24,1,1.45.41-.22.09.21-.16-.22-.65-1-.11-.18-.25-.4-.33-.51l.07.07c-.48-.8-1.25-1.76-2-2.9.38.41.77.85,1.16,1.35a7.68,7.68,0,0,1,1.12,1.79,16.32,16.32,0,0,1,1.37,1.54c.13.49.34,1.07.53,1.68l.55,1.87a11.88,11.88,0,0,1,.49,2.57c1.51,4.09,2.18,10.1,3.08,12.82a4.8,4.8,0,0,1,0,2c-.15-.72-.27-1.59-.39-2l.81,4.74a11.62,11.62,0,0,0,.89,3.26c.52,3.19-.75-1.7.29,2.62l-.24-.56c1.53,8.73,5.49,13.11,7.79,22.41a5,5,0,0,1-.23-1.11c.79,2.61,1.55,5.25,2.13,8a64,64,0,0,1,1.18,8.25c.46,5.57.47,11.17.45,16.6a20.84,20.84,0,0,0,.65,5.27l-.24.69c.23,1.06.46,2.12.74,3.16.47,2.24.65,4.21,1.11,6.32a18.12,18.12,0,0,0,2.83,6.83l-.2-.76a21.86,21.86,0,0,0,2.27,3.38c.84,1.07,1.6,1.8,1.39,1.76a5,5,0,0,1,1.16,1l-.06.16a24.53,24.53,0,0,0,4.37,2.76c1.72,1,1.55,1,1.55,1.19s.19.5,3,1.53c2.11.69,6.12,1.1,5.34.83a6.87,6.87,0,0,1-2.17-.75l1.93.35c.46-.39,1.92-.49-2.52-1.91l-1.59-.33c-.53-.12-1-.29-1.57-.43-.3-.2-.6-.38-.88-.59.84.33,1.68.66,2.54.94a21,21,0,0,0-3.38-1.24,5,5,0,0,0-1.09-.81l-1.46-.59c-.49-.2-.94-.47-1.42-.7-.2-.36,1.35.51-.29-.77-1.24-.78.83,1.24-1.12-.24a6.3,6.3,0,0,1-.83-1.08,7.11,7.11,0,0,0-1.1-1.07c-.07-.28.21,0,.76.43a33.8,33.8,0,0,1-3.26-3.82c-.31-.74-.93-1.94-1.37-3-.21-.53-.4-1-.5-1.36s-.09-.58,0-.57a18,18,0,0,1-1.51-4.08c.57,1.27.22-.08-.05-1.71s-.5-3.53-.18-3.2c-.76-2-.86-7.32-1.19-11a4.1,4.1,0,0,1,.12.93c0-2.06.1-2.66.16-4-.4-.25-.57-3.47-.88-5.2.28-2.56.52,1.53.85.72-.3.14-.51-4.41-.74-3.53a10.72,10.72,0,0,1,.26-2.72c-.51-.3-.23-1.82-.73-3.4a7.89,7.89,0,0,1,0-1.85,6.39,6.39,0,0,0-.35-2C1015.11,88.33,1015.84,91,1015.81,91.06Zm-23.67-69h0l1,1.13Zm-4.83-4c.6.47,1.41,1,2.16,1.64.1.23-.13.13-.61-.27C989.18,19.63,988,18.73,987.31,18.11Zm7.62,10.49a3.71,3.71,0,0,1-.74-1.17l1,1.32.09.07A1.15,1.15,0,0,1,994.93,28.6Z"/>
      <path class="cls-7" d="M996.16,29.84l.21.33-.23-.52-.24-.25Z"/>
      <path class="cls-7" d="M953.9,219.34v.13a1.93,1.93,0,0,1,0-.27C953.92,219.28,953.91,219.28,953.9,219.34Z"/>
      <polygon class="cls-7" points="904.25 4.98 904.26 5.05 904.79 4.95 904.25 4.98"/>
      <path class="cls-7" d="M958.46,186.48c.05,0,.13-.14.29-.33A1.35,1.35,0,0,0,958.46,186.48Z"/>
      <path class="cls-7" d="M968.4,176.22c.57-.37,1.17-.7,1.76-1.05C969.39,175.61,968.82,175.92,968.4,176.22Z"/>
      <path class="cls-7" d="M978.14,170.86a.52.52,0,0,0,.15-.2h0Z"/>
      <path class="cls-7" d="M883,273.78l-.4-.17C881.66,273.21,882.3,273.5,883,273.78Z"/>
      <path class="cls-7" d="M935.27,278.19a11.18,11.18,0,0,1-1.56.78C934.64,278.7,935.3,278.33,935.27,278.19Z"/>
      <path class="cls-7" d="M848.65,228.07h0l0-.37Z"/>
      <path class="cls-7" d="M931.32,279.76a13.48,13.48,0,0,0,2.39-.79C933,279.2,932.09,279.53,931.32,279.76Z"/>
      <path class="cls-7" d="M1024.61,156.62l.52-.15s0,0,0-.06Z"/>
      <path class="cls-7" d="M1025.18,156.41l.57-.21A2.79,2.79,0,0,0,1025.18,156.41Z"/>
      <path class="cls-7" d="M1026.94,155.76l-1.19.45A5.51,5.51,0,0,0,1026.94,155.76Z"/>
      <path class="cls-7" d="M1010.19,160.47l-.14.14C1010.13,160.57,1010.18,160.52,1010.19,160.47Z"/>
      <path class="cls-7" d="M1005.82,161.66c1-.26,2.67-.48,4.11-.93l.12-.11C1009.4,160.94,1006.77,161.23,1005.82,161.66Z"/>
      <path class="cls-7" d="M987.36,165.84c1.2-.4,2.42-.77,3.63-1.13-.67.1-1.54.23.1-.33C986.43,165.58,992.1,164.28,987.36,165.84Z"/>
      <path class="cls-7" d="M976.35,170.15c1.84-.91-.09-.13,0-.23C975.21,170.58,974.94,170.75,976.35,170.15Z"/>
      <path class="cls-7" d="M953.75,245.76l-.23-.23C953.39,247.08,953.62,245.56,953.75,245.76Z"/>
      <path class="cls-7" d="M951.35,261.85c.24-.46.52-.91.73-1.39l0-.78-.34,1.09Z"/>
      <path class="cls-7" d="M944.95,269.06l.4-.52c-.53.65-1,1.33-1.58,2C944.19,270,944.55,269.54,944.95,269.06Z"/>
      <path class="cls-7" d="M850,211.38l-.3.48C849.79,212.92,850.15,213.13,850,211.38Z"/>
      <path class="cls-7" d="M845.3,150a12.24,12.24,0,0,0-.63-3.42C844.95,147.91,845.11,149.29,845.3,150Z"/>
      <polygon class="cls-7" points="888.2 8.98 886.98 9.22 889.29 8.89 888.2 8.98"/>
    </g>
  </g>
  <g>
    <path class="cls-22" d="M462.73,49.94l13.62,13.62"/>
    <path class="cls-22" d="M459.19,53.47l13.62,13.62c4.56,4.56,11.63-2.51,7.07-7.07L466.27,46.4c-4.56-4.56-11.63,2.51-7.07,7.07Z"/>
  </g>
  <g>
    <path class="cls-22" d="M511.38,44.53c-5.33-5.84-10.33-11.89-15.14-18.16"/>
    <path class="cls-22" d="M514.92,41q-7.52-8.28-14.35-17.15c-1.66-2.16-4.28-3.25-6.84-1.79-2.12,1.21-3.44,4.7-1.79,6.84,5.07,6.59,10.33,13,15.92,19.18,4.33,4.78,11.39-2.31,7.07-7.07Z"/>
  </g>
  <g>
    <path class="cls-22" d="M582.52,46c-.92-7.3,1.23-14,1.51-21.19"/>
    <path class="cls-22" d="M587.52,46c-.69-7.15,1.11-14.08,1.51-21.19.37-6.43-9.64-6.41-10,0-.4,7.11-2.21,14-1.51,21.19.62,6.35,10.62,6.41,10,0Z"/>
  </g>
  <g>
    <path class="cls-22" d="M635.5,52.1c1.82-7.72,2-16,6.05-22.7"/>
    <path class="cls-22" d="M640.32,53.43c1.6-7.19,1.87-15,5.55-21.51,3.16-5.62-5.48-10.66-8.63-5-4.18,7.43-4.74,15.74-6.56,23.9-1.39,6.27,8.24,8.95,9.64,2.66Z"/>
  </g>
  <g>
    <path class="cls-22" d="M448.81,267a22,22,0,0,1-13.62,6.05"/>
    <path class="cls-22" d="M445.28,263.47a17.16,17.16,0,0,1-10.09,4.59c-2.69.26-5,2.11-5,5,0,2.51,2.3,5.26,5,5a28.4,28.4,0,0,0,17.16-7.52c4.71-4.4-2.37-11.46-7.07-7.07Z"/>
  </g>
  <g>
    <path class="cls-22" d="M444.78,220.11c-9.8-2.35-20.39-2.08-30.27-4.54"/>
    <path class="cls-22" d="M446.11,215.29c-10-2.23-20.3-2.22-30.27-4.54-6.26-1.46-8.93,8.18-2.66,9.64,10,2.32,20.29,2.31,30.27,4.54,6.27,1.4,8.95-8.24,2.66-9.64Z"/>
  </g>
  <g>
    <path class="cls-22" d="M449.76,159.57c-5.82-4.57-12.55-7.4-18.16-12.11"/>
    <path class="cls-22" d="M452.28,155.25c-5.46-4.16-11.82-7-17.15-11.33-5-4-12.07,3-7.07,7.07,6,4.88,13,8.21,19.18,12.89,2.16,1.65,5.57.32,6.84-1.79,1.53-2.55.34-5.21-1.79-6.84Z"/>
  </g>
  <g>
    <path class="cls-22" d="M448.73,115.16c-4.64-7.33-11.07-16.15-19.68-19.68"/>
    <path class="cls-22" d="M453,112.63c-5.45-8.53-11.95-17.28-21.47-21.47-5.84-2.57-10.93,6-5,8.63,8,3.54,13.28,10.68,17.88,17.88,3.45,5.41,12.11.4,8.63-5Z"/>
  </g>
  <g>
    <path class="cls-22" d="M709.75,118.54a50.85,50.85,0,0,1,18.16,3"/>
    <path class="cls-22" d="M709.75,123.54a50.44,50.44,0,0,1,16.83,2.85c6.08,2.16,8.69-7.5,2.66-9.64a59.1,59.1,0,0,0-19.49-3.21c-6.44,0-6.44,10,0,10Z"/>
  </g>
  <g>
    <path class="cls-22" d="M704.37,167.92A165.82,165.82,0,0,0,725.56,180"/>
    <path class="cls-22" d="M701.85,172.24A176.35,176.35,0,0,0,723,184.35c5.75,2.85,10.82-5.77,5-8.63a176.35,176.35,0,0,1-21.19-12.11c-5.33-3.64-10.34,5-5,8.63Z"/>
  </g>
  <text class="cls-23" transform="translate(868.13 42.51) scale(1.01 1)"><tspan class="cls-24">H</tspan><tspan class="cls-25" x="14.23" y="0">e</tspan><tspan x="23.92" y="0">r </tspan><tspan class="cls-26" x="36.05" y="0">h</tspan><tspan class="cls-27" x="47.91" y="0">a</tspan><tspan x="58.39" y="0">r j</tspan><tspan class="cls-26" x="76.44" y="0">e</tspan><tspan x="86.3" y="0">g</tspan><tspan class="cls-28" x="0" y="29.59">e</tspan><tspan x="9.69" y="29.59">n </tspan><tspan class="cls-28" x="0" y="59.18">o</tspan><tspan class="cls-29" x="11.22" y="59.18">v</tspan><tspan class="cls-28" x="20.61" y="59.18">e</tspan><tspan class="cls-26" x="30.3" y="59.18">r</tspan><tspan class="cls-30" x="39.03" y="59.18">s</tspan><tspan class="cls-31" x="47.32" y="59.18">k</tspan><tspan class="cls-32" x="58.04" y="59.18">u</tspan><tspan class="cls-33" x="69.95" y="59.18">e</tspan><tspan class="cls-29" x="79.74" y="59.18">l</tspan><tspan class="cls-32" x="85.56" y="59.18">i</tspan><tspan x="91.85" y="59.18">g</tspan><tspan class="cls-34" x="0" y="88.77">h</tspan><tspan x="11.61" y="88.77">j</tspan><tspan class="cls-25" x="17.53" y="88.77">e</tspan><tspan class="cls-35" x="27.22" y="88.77">m</tspan><tspan class="cls-32" x="44.95" y="88.77">m</tspan><tspan class="cls-36" x="62.88" y="88.77">e</tspan><tspan class="cls-37" x="72.91" y="88.77">s</tspan><tspan class="cls-38" x="80.92" y="88.77">i</tspan><tspan class="cls-26" x="87.26" y="88.77">d</tspan><tspan x="99.07" y="88.77">e</tspan><tspan class="cls-32" x="0" y="118.36">m</tspan><tspan class="cls-39" x="17.93" y="118.36">e</tspan><tspan x="27.76" y="118.36">d</tspan><tspan class="cls-28" x="0" y="147.94">i</tspan><tspan class="cls-40" x="6.04" y="147.94">n</tspan><tspan x="17.8" y="147.94">fo!</tspan></text>
  <g>
    <path class="cls-22" d="M695.58,56.91c8.72-5.37,16.16-12.54,24.67-18.18"/>
    <path class="cls-22" d="M698.1,61.22c8.66-5.47,16.2-12.45,24.67-18.18,5.3-3.59.3-12.26-5-8.63-8.47,5.73-16,12.71-24.67,18.18-5.43,3.43-.41,12.09,5,8.63Z"/>
  </g>
  <path class="cls-41" d="M599.66,243c-4.37,1-8.76,2-13.17,2.81,2.24-.15,4.47-.34,6.71-.56A26.82,26.82,0,0,0,599.66,243Z"/>
  <path class="cls-41" d="M667.51,71H498.74C482.87,71,470,82.69,470,97.12v207.8c8.21.14,16.41.5,24.63.36,9.63-.16,19.27-.49,28.89.07,3.22.18,6.45.63,9.68,1.09,18.88-.3,37.75-1,56.66-1.11,19.5-.08,39-.3,58.5-.4,16-.08,31.92.23,47.88.37V97.12C696.25,82.69,683.39,71,667.51,71Z"/>
  <path class="cls-42" d="M647.31,96H519.68c-15.87,0-28.74,11.69-28.74,26.12V305.31q1.85,0,3.7,0c9.63-.16,19.27-.49,28.89.07,3.21.18,6.43.63,9.65,1.08,18.89-.3,37.78-1,56.69-1.1,19.5-.08,39-.3,58.5-.4,9.23,0,18.46,0,27.68.15V122.15C676.05,107.73,663.18,96,647.31,96Z"/>
  <rect class="cls-43" x="490.57" y="158.31" width="93.19" height="48.69"/>
  <rect class="cls-44" x="583.76" y="158.31" width="93.19" height="48.69"/>
  <rect class="cls-45" x="583.76" y="207" width="93.19" height="48.69"/>
  <rect class="cls-46" x="490.57" y="207" width="93.19" height="48.69"/>
  <rect class="cls-47" x="583.76" y="255.7" width="93.19" height="48.69"/>
  <rect class="cls-48" x="490.57" y="255.7" width="93.19" height="48.69"/>
  <text class="cls-49" transform="translate(493.56 189.84)"><tspan class="cls-50">E</tspan><tspan class="cls-51" x="11.99" y="0">n</tspan><tspan class="cls-52" x="24.51" y="0">g</tspan><tspan class="cls-53" x="35.44" y="0">l</tspan><tspan class="cls-54" x="41.71" y="0">a</tspan><tspan class="cls-55" x="52.41" y="0">n</tspan><tspan x="64.73" y="0">d</tspan></text>
  <text class="cls-56" transform="translate(588.43 235.13)"><tspan class="cls-57">B</tspan><tspan class="cls-58" x="10.34" y="0">r</tspan><tspan class="cls-59" x="17.29" y="0">a</tspan><tspan class="cls-60" x="25.97" y="0">s</tspan><tspan class="cls-61" x="32.52" y="0">i</tspan><tspan class="cls-62" x="37.58" y="0">l</tspan><tspan class="cls-63" x="42.33" y="0">i</tspan><tspan class="cls-64" x="47.41" y="0">e</tspan><tspan x="55.33" y="0">n</tspan></text>
  <text class="cls-56" transform="translate(495.24 287.18)"><tspan class="cls-65">N</tspan><tspan x="10.76" y="0">o</tspan><tspan class="cls-66" x="19.95" y="0">r</tspan><tspan class="cls-67" x="26.8" y="0">g</tspan><tspan x="35.14" y="0">e</tspan></text>
  <text class="cls-56" transform="translate(496.92 235.97)"><tspan class="cls-65">S</tspan><tspan class="cls-61" x="8.2" y="0">p</tspan><tspan class="cls-68" x="17.83" y="0">a</tspan><tspan class="cls-64" x="26.39" y="0">n</tspan><tspan class="cls-69" x="36.11" y="0">i</tspan><tspan class="cls-70" x="41.18" y="0">e</tspan><tspan x="49.1" y="0">n</tspan></text>
  <text class="cls-56" transform="translate(588.43 190.64)"><tspan class="cls-71">U</tspan><tspan class="cls-72" x="11" y="0">S</tspan><tspan x="19.5" y="0">A</tspan></text>
  <text class="cls-56" transform="translate(588.43 287.18)"><tspan class="cls-73">T</tspan><tspan class="cls-74" x="9.11" y="0">y</tspan><tspan class="cls-75" x="16.84" y="0">s</tspan><tspan class="cls-76" x="23.61" y="0">k</tspan><tspan class="cls-77" x="32.54" y="0">l</tspan><tspan class="cls-68" x="37.56" y="0">a</tspan><tspan class="cls-69" x="46.12" y="0">n</tspan><tspan x="55.97" y="0">d</tspan></text>
  <text class="cls-49" transform="translate(524.72 133.84)">K<tspan class="cls-78" x="13.95" y="0">E</tspan><tspan x="26.57" y="0">A </tspan><tspan class="cls-79" x="43.04" y="0">C</tspan><tspan class="cls-80" x="56.24" y="0">h</tspan><tspan class="cls-54" x="68.33" y="0">o</tspan><tspan class="cls-80" x="79.84" y="0">i</tspan><tspan class="cls-81" x="86.16" y="0">c</tspan><tspan class="cls-82" x="96.21" y="0">e</tspan><tspan x="106.46" y="0">s</tspan></text>
</svg>
