<?xml version="1.0" encoding="utf-8"?>
<!-- Generator: Adobe Illustrator 21.1.0, SVG Export Plug-In . SVG Version: 6.00 Build 0)  -->
<svg version="1.1" id="Layer_1" xmlns="http://www.w3.org/2000/svg" xmlns:xlink="http://www.w3.org/1999/xlink" x="0px" y="0px"
	 viewBox="0 0 1230 677" style="enable-background:new 0 0 1230 677;" xml:space="preserve">
<style type="text/css">
	.st0{fill:#F7B06B;}
	.st1{fill:#F4F482;}
	.st2{fill:#29ABE2;}
	.st3{fill:#F2F2F2;stroke:#000000;stroke-miterlimit:10;}
	.st4{stroke:#000000;stroke-miterlimit:10;}
	.st5{fill:#FFFFFF;stroke:#000000;stroke-miterlimit:10;}
	.st6{fill:#FCB6FC;}
	.st7{fill:#D2D2D2;}
	.st8{fill:none;}
	.st9{font-family:'KeplerStd-BoldScnDisp';}
	.st10{font-size:30px;}
	.st11{stroke:#CCCCCC;stroke-miterlimit:10;}
	.st12{fill:#FFFFFF;}
	.st13{fill:#00FFFF;}
	.st14{fill:#FF00FF;}
	.st15{fill:#EAE134;}
	.st16{fill:#166610;}
	.st17{fill:#B73786;}
	.st18{fill:#D85025;}
	.st19{font-size:25.186px;}
	.st20{font-size:20.1488px;}
	.st21{fill:#F4F9F7;}
	.st22{fill:#FF0000;}
	.st23{font-size:24px;}
	.st24{fill:#EAAD5C;}
	.st25{fill:#B597FF;}
	.st26{fill:#BEA4FF;}
</style>
<g>
	<rect x="16" y="18" class="st0" width="388" height="307"/>
</g>
<g>
	<rect x="17" y="342" class="st1" width="388" height="307"/>
</g>
<g>
	<rect x="415" y="18" class="st0" width="388" height="307"/>
</g>
<g>
	<rect x="819" y="28" class="st0" width="388" height="297"/>
</g>
<g>
	<rect x="416" y="342" class="st1" width="388" height="307"/>
</g>
<g>
	<rect x="820" y="342" class="st1" width="388" height="307"/>
</g>
<g>
	<g>
		<path class="st2" d="M32.9,310c-0.3,1.5-0.2,2.9,0.3,4.4c11.9,10.8,157.9,16.8,189.7,5c0.5-27.9-18.7-61.6-38.2-80.3
			c-8.6-8.3-32.8-17.8-38.5-26.6c-6.3-9.8,3-14.9,8.3-25.2c13-25.3,8.1-57.6-18.3-73.3c-20.6-12.3-73.3-6.1-81.3,19.3
			c-7.3,23.1,15,63.9,32.5,78C61.6,237.8,44.8,271.9,32.9,310z"/>
	</g>
	<circle class="st3" cx="85.9" cy="150.9" r="18.9"/>
	<circle class="st4" cx="91.1" cy="144.2" r="10.6"/>
	<ellipse class="st5" cx="97.8" cy="143.9" rx="4" ry="4.3"/>
	<circle class="st3" cx="132.1" cy="152.2" r="18.9"/>
	<circle class="st4" cx="137.4" cy="145.6" r="10.6"/>
	<ellipse class="st5" cx="144.1" cy="145.2" rx="4" ry="4.3"/>
</g>
<g>
	<path class="st6" d="M179.2,163.5c32.8-9.2,10.6-22.1,4.7-46.4c-3.3-13.5-10.6-42.2-4.7-56C191.9,31,293.1,45.9,325.2,39.9
		c51.9-9.8,89.8,114.3,73.4,164.1c-8.3,25.1-7.2,51.1-16.9,75.3c-5.7,14.1-58.9,7-71.7,6.2c-54.7-3.7-121.2-96.3-135.5-117.6"/>
	<g>
		<g>
			<g>
				<g>
					<path class="st7" d="M174.9,167.4c-0.3-0.3-0.3,0,0.3,0.9l0.7,0.5L174.9,167.4z"/>
					<path class="st7" d="M178.9,174.2c0.9,1,2.1,2.2,1.8,1.3c-1-0.9-1.1-1.3-2.3-2.2c-0.7-0.9-1.1-1.7-0.9-1.6
						c-0.3-0.3-1-1.5-1.5-1.9c0.6,1.4,1.7,3,3.1,4.5C179.3,174.6,179,174.3,178.9,174.2z"/>
					<path class="st7" d="M254.4,259.2l-0.5-0.5C254,258.9,254.2,259,254.4,259.2z"/>
					<path class="st7" d="M318.2,286.8c-0.5,0-0.8,0-0.8,0C317.9,286.9,318.4,286.9,318.2,286.8z"/>
					<path class="st7" d="M330.2,288.2c-0.3,0-0.5,0-0.7-0.1C329.8,288.2,330.1,288.2,330.2,288.2z"/>
					<path class="st7" d="M254.4,259.2l1.4,1.3C256,260.5,255.1,259.8,254.4,259.2z"/>
					<path class="st7" d="M188.7,186.5c-0.2-0.3-0.5-0.5-0.7-0.8C188.3,186,188.5,186.2,188.7,186.5
						C188.7,186.5,188.7,186.5,188.7,186.5z"/>
					<path class="st7" d="M231.1,238.5l-0.4-0.4c-0.1-0.1-0.3-0.2-0.4-0.2L231.1,238.5z"/>
					<path class="st7" d="M214.7,221c0.4,0.4,0.7,0.4,0.9,0.4c-0.3-0.2-0.6-0.4-0.9-0.8C214.7,220.8,214.7,220.9,214.7,221z"/>
					<path class="st7" d="M191.1,191.4l-0.4-0.5C190.7,191.1,190.9,191.3,191.1,191.4z"/>
					<path class="st7" d="M243.5,250.3c0,0.1,0,0.1,0.1,0.2C243.6,250.5,243.6,250.5,243.5,250.3z"/>
					<path class="st7" d="M197.3,145.8C197.3,145.8,197.3,145.8,197.3,145.8C197.4,146,197.4,146,197.3,145.8z"/>
					<path class="st7" d="M179.1,163.5l0.4-0.1c0-0.1,0.1-0.1,0-0.2L179.1,163.5z"/>
					<path class="st7" d="M352.4,289.4C352.3,289.3,352.3,289.3,352.4,289.4C351.7,289.4,352,289.4,352.4,289.4z"/>
					<path class="st7" d="M393.1,111.8c0.5,2.3-1.5-3.5-0.7-0.1C392.4,111.3,393.8,114.5,393.1,111.8z"/>
					<path class="st7" d="M189.1,187c0.2,0.3,0.4,0.5,0.6,0.8C189.4,187.4,189.2,187.2,189.1,187z"/>
					<path class="st7" d="M392.4,111.7L392.4,111.7l0.1,0.3C392.5,111.9,392.4,111.8,392.4,111.7z"/>
					<path class="st7" d="M388.3,261.4c-0.1,0.1-0.2,0.3-0.2,0.5C388.1,261.9,388.2,261.8,388.3,261.4z"/>
					<path class="st7" d="M365.4,287.9l0.9-0.1C366,287.8,365.7,287.9,365.4,287.9z"/>
					<path class="st7" d="M391.5,241.9c0.1-0.5,0.2-0.7,0.2-1.4c0,0.1,0,0.1-0.1,0.2C391.6,241,391.6,241.4,391.5,241.9z"/>
					<path class="st7" d="M394.9,221.8c0,0.1-0.1,0.2-0.1,0.4c0,0.2-0.1,0.4-0.1,0.6L394.9,221.8z"/>
					<path class="st7" d="M178.9,87c0,0.5-0.1,0.7-0.1,1C178.9,87.6,179.4,90.6,178.9,87z"/>
					<path class="st7" d="M188.6,186.6c0.1,0.1,0.3,0.2,0.5,0.4c-0.1-0.2-0.3-0.4-0.4-0.5C188.6,186.4,188.6,186.4,188.6,186.6z"/>
					<path class="st7" d="M389.4,240.8l0.5-3.2C389.8,238.4,389.6,239.6,389.4,240.8z"/>
					<path class="st7" d="M293.8,42.7l-0.7,0C293.4,42.7,293.6,42.7,293.8,42.7z"/>
					<path class="st7" d="M391.5,228c0.2-0.6,0.4-1.2,0.5-1.8c0-0.1,0-0.3,0-0.4L391.5,228z"/>
					<path class="st7" d="M178.8,88C178.8,88,178.8,88,178.8,88C178.8,88,178.8,88,178.8,88z"/>
					<path class="st7" d="M183.4,108.8c-0.7-3-0.7-1.3-1-1.9c-0.9-3.6-0.1-1.7-0.2-3c-0.6-2.2-1.3-3.9-1.6-5.6c0-0.1,0-0.5,0.1-0.1
						c-0.8-2.3-1.3-7.1-2-9.8c0-0.2,0-0.3,0-0.4c-0.1,0.5-0.3,0.6-0.4,0.5c-0.2-1.4-0.6-2.5-0.4-3.1c0.1,0.8,0.2,0.9,0.3,1.3
						l-0.3-1.4c0.2-1.3,0.4,1.9,0.6,1.9c-0.3-1.4-0.5-2.9-0.7-4.3c-0.2-1.4-0.3-2.8-0.3-3.9c0.2-0.2,0.3,1,0.3,2
						c0.1,1,0.2,1.6,0.2,0.2l0.2,3.3c0.3-2.6,0.2,2,0.5-0.4c-0.2-2.2-0.3-3.4-0.4-4.6c-0.1-0.6-0.1-1.2-0.2-1.9c0-0.7,0-1.6,0-2.7
						c-0.2-1-0.3,0.3-0.5-0.7c-0.1-3.1,0.2-4.3,0.6-5.3c0.2-0.5,0.3-0.9,0.4-1.5c0.1-0.6,0.3-1.3,0.4-2.4c0-0.6-0.1-1,0.1-1.7
						c0.1-0.3,0.1-0.7,0.3-1.2c0.1-0.2,0.2-0.5,0.3-0.8c0.1-0.3,0.3-0.6,0.5-0.9l-0.1,1.1c0.4-0.9,0.7-1.5,0.9-1.9
						c0.2-0.4,0.3-0.7,0.4-1c0.3-0.5,0.5-1.2,2.1-2.6c-0.5,0.6-2,2.5-1.6,2c1-1,1.3-1.4,1.5-1.7c0.2-0.3,0.3-0.7,1.2-1.4l0.6,0
						c3.3-2.8,7.7-5.1,12.5-6.7c-0.2,0.2-1,0.5,0.1,0.3c5.9-2.1,13.1-3.2,19.1-3.8l2.3-0.6c0.5-0.1,1,0,0.4,0.1
						c2.4-0.1,0.1-0.2,1.2-0.4c1.3-0.2,1.8,0,1,0.2c4.2-0.7,11.9-1.5,16.4-1.3l-0.9,0.1c3.5,0,3.9-0.8,7.1-0.6l-0.6,0.1
						c7.5-0.1,15.8-0.4,21.6,0.1c1.1-0.4,7.4,0.2,7.9-0.3c4.3,0.3,3.1,0.4,9.1,0.7c1.6,0,2.4-0.3,4.4-0.4l0,0.3l2.7-0.3l1.4,0.4
						l1.9-0.1c-0.7,0-1.6-0.1-1.5-0.2c2.9-0.1,7.2,0.2,7.2,0.4c2.3-0.1,4.6-0.2,6.9-0.4c-0.2,0.1-1.3,0.2-2.2,0.3
						c3.7-0.4,0.7,0.3,4.1-0.1c-0.5-0.1,0.2-0.2,0.3-0.3c1.7,0.1,5.6,0,8.4-0.3l-0.5,0.2c2.6-0.2,5.3-0.4,8.1-0.9
						c1.4-0.3,2.7-0.5,4.1-0.7c0.7-0.1,1.4-0.1,2-0.2c0.7,0,1.4,0,2.1,0c-2-0.1-1.5-0.5,0.1-0.5c0.2,0.1,0.4,0.2,0.6,0.4
						c1.1-0.1-1.7-0.3,0.5-0.3c2.1,0.2,1.4,0.5,0.2,0.5c0.8,0,1.7,0.1,2.5,0.2c0.1,0.1-0.5,0.1-0.6,0.2c1.1-0.1,4.1,1.2,5.6,1.4
						l0.1,0.1c2.6,1,4.4,1.8,6.1,2.7c0.8,0.4,1.6,0.9,2.4,1.4c0.8,0.5,1.7,1.1,2.6,1.8c0.2-0.2,1.7,0.9,2.8,1.7
						c2.5,2.3,5.1,5.1,7.8,8.2c2,2.1,0.7,0.5,1.7,1.4c0,0.3,2.5,3.5,1.1,2c0.8,1,1.4,1.8,1.9,2.5c0.5,0.7,1,1.4,1.6,2.1
						c1,1.4,2.1,3,3.9,5.6c-0.3-0.6-0.6-1.3-0.4-1c0.7,0.9,1.3,2.3,1.1,2.2l-0.2-0.2c4.1,5.8,7.1,14.6,9.8,19.5l-0.2-0.3
						c0.9,1.7,1.7,3.5,2.5,5.3c0.9,2.5-0.8-1.4-0.2,0.5c2.7,5.7,3.4,9.3,5.3,14.1c0.3,2,1.3,5.4,2.4,9c1,3.6,2.1,7.3,2.4,10l0.1-0.3
						c0.5,1.3,0.3,1.7,0.5,2.7c0.1-0.2-0.2-1.5,0.1-0.7c2.8,11.5,4.2,24.1,4.5,36.2c0.1,4.4,1,2.5,0.6,8.1c-0.1-0.5-0.2-1.1-0.3-1.6
						c0.4,8.9-0.9,18.2-3,26.6c0.1-0.5,0-0.6,0.2-1.4c-0.3,0.9-0.9,2.4-1.2,3.9c-0.4,1.5-0.7,2.7-0.6,2.8c-0.4,1.3-0.3,0.3-0.6,1
						c-0.6,1.8-0.9,4.6-1.4,5.6c-0.1,0.2,0-0.5,0.1-0.9c-0.2,1.2-1.3,5.6-0.8,4.5c-0.8,3.2-1.2,6.3-1.8,8.8c0,1.8-1.1,5.6-0.8,6.2
						c-0.4-0.3-1.3,5.7-1.4,7.8c0-0.7-0.4,1.8-0.5,0.9c-0.4,2.4-0.6,4.5-0.3,4.2c-1.2,4.2-1.1,8.8-2.2,11c-1.1,7-2.6,13.3-4.7,19.3
						c-0.1-0.1,0-0.5,0.2-1.2c0.2-0.6,0.4-1.5,0.7-2.3c0.5-1.6,1-3.2,0.7-3.1c-0.8,2.9-1.3,5.2-2.1,7.4c-0.2,0.6-0.4,1.1-0.6,1.7
						c-0.1,0.3-0.2,0.6-0.3,0.8c-0.1,0.2-0.2,0.5-0.3,0.7c-0.5,1-1.4,1.9-2.6,2.6c-1.3,0.7,0.6-0.6,0.9-1c-2,1.8-4.8,2.8-7.4,3.5
						c-2.7,0.7-5.4,1.1-8,1.5c0,0,0.6-0.1,1.1-0.3c-1,0.1-2.4,0.2-2.3,0.4l1-0.2c0.8,0.1-0.2,0.3-1.4,0.6c-1.3,0.3-2.8,0.5-2.9,0.6
						c1.8-0.7-5.3,0.1-2.5-0.8c-0.7,0.1-1.6,0.2-1.4,0.3c-1,0-1.4-0.1-0.3-0.3c-3.8,0.2-2.4,0.4-5.8,0.4c0-0.1,0.7-0.1,1.1-0.3
						c-1.7,0.2-3.5,0.4-6.4,0.2c0.2-0.1-0.2-0.1,0.7-0.1c-5-0.1-8.5,0.2-13.9-0.4c1.6-0.3-1.8-0.3-2.1-0.7l-2.9-0.1l1.2,0.3
						c-2.6-0.2-4.9-0.1-7.1-0.5l1.9,0l-4.8-0.4l2.7,0.4c-2.6,0,0.2,0.5-3.2,0.1c0.7,0-2.6-0.2-3.9-0.6l0,0c-0.6,0-1.3,0-2,0
						c-0.7,0-1.5-0.1-2.5-0.3c-0.5-0.2,0.4-0.4,0.1-0.5c-0.3,0-0.8,0-1.5,0c-0.6-0.1-1.4-0.1-2.2-0.3c-1.5-0.3-3.1-0.6-3.9-0.6
						c0.5,0,0.6-0.2,0.4-0.2c-0.4,0-0.7,0-1.1,0c-1.1-0.4-1.3-0.5-1-0.6c-3.4-1.1,1,0.8-3-0.6c0.3,0.1,0.2,0,0.9,0.2
						c-4-1.3-7.8-2.6-11.3-4.4c-0.9-0.8,3.2,1.3,2.1,0.5c-1.3-0.6-2.6-1.1-3.9-1.7c-1.3-0.6-2.6-1.3-3.9-1.9
						c-1.3-0.6-2.6-1.4-3.8-2.1c-1.2-0.7-2.5-1.4-3.6-2.2l0.8,0.6c-0.9,0-3.3-2.4-5.7-3.8c0.6,0.4,0.9,0.3,0.7,0.2
						c-1.5-1.1-3.1-2.2-4.9-3.4c-1.8-1.3-3.7-2.6-6-4.3l0.6,0.3c-1.6-1.5-4.5-3.7-6.3-5.3c-0.6-0.4-1.7-1.3-1.1-0.6
						c-2.6-2.7-5.2-5-7.8-7.1c-2.6-2.3-5.1-4.4-7.2-6.9c0.6,0.5,1.4,1.2,1,0.8l-4.1-3.8c0.1,0.5,0.4,0.6,1.1,1.6
						c-0.6-0.4-1.8-1.4-2.8-2.4c1.9,1.7,0.2-0.3-0.4-1.1c0.1,0.2-0.2,0-0.2,0.1c-1.7-2.4-0.7,0-3.2-3.1l0.2,0.1
						c-1.1-1-2.1-1.9-3.2-3.1c-0.3-0.7,1.2,1.1,1.4,1c-1.6-1.6-3.4-2.9-4.6-4.6c0.7,0.7,1.6,1.7,2.3,2.3c-1.3-1.9-1.5-2-2.6-3.2
						l0.1,0.1c-0.8-1-1.7-1.9-2.5-2.9l0.6,0.8c-2.4-1.7-3.9-4.2-6.7-6.8c2.7,2.5,0.6,0.3,1,0.3c-0.6-0.8-1.5-2-1.1-1.7
						c-1.4-1.2-1.8-2.4-3.7-4.1c0-0.1-1.2-1.5-0.8-1.3c-1.6-1.7,0.2,0.5,0,0.5c-2.6-2.5-5.1-6.8-8.7-10.5c-2.9-3.4-3.7-3.8-6.3-7
						c-0.7-1.2,1,0.7,1,0.7c-1.3-1.9-2.3-3.2-3.7-4.8c0.3,0.3,0.1-0.1-0.2-0.7c-1-1.3-1-0.7-2.2-2.6c0.3,0.2,0.8,0.5,1.3,1.1
						c-1.3-1.6-2.6-3-3.9-4.7c-0.2-0.5,0.9,0.9,1.5,1.4c-1.4-1.8-3.7-4.8-4.3-5.2l0.8,1.3c-0.5-0.7-0.1-0.5,0.3,0
						c1.3,1.5,1.6,2.4,1.6,2.5l-0.9-1.2c0.4,1.6,3.6,4.8,5.3,7.2l-1.1-0.7l2.1,2.2c0.3,0.6,0.4,1.1-0.5-0.1c1.1,1.8,1.3,1.4,2.2,3
						c0.1,0.2,0,0.1-0.1,0l1.4,1.6c-0.3-0.3,0,0.5-0.8-0.6c2.1,3.1,4,4.6,4.6,5.9l-0.2-0.2c3.3,4,0.5,0.2,3.3,3l1.1,2.5l0.6,0.2
						c0.3,0.4,1,1.3,0.8,1.2c1.4,1.4-0.1-0.3,0.8,0.4c1.4,2.2,4.6,5.4,4.7,6.2c0.8,0.6-1.5-2,0.4,0c0.1,0.9,2.1,2.4,3.5,4.3
						c-0.7-0.4-2-2.2-0.7-0.2c1.3,0.8,2.9,3.6,4.3,5c0.3-0.2,3,3.2,5.3,5.5c-0.1,0,0.9,1.2,2.2,2.7c1.3,1.5,2.9,3.3,4,4.4l-0.1,0
						c0.7,0.2,2.9,2.5,4.6,4.1c-0.2,0.1-0.6-0.2-1.5-1l1.5,1.6c0.4,0.3,1,0.7,2,1.7l-0.6-0.2c2.1,2,4.4,3.9,7.1,6.6
						c0.3,0-1.7-2.6,1.3,0c0,0.2,0,0.5-0.8-0.2c0.3,0.2,1,0.8,1.4,1.3l-1.3-0.9c1.2,1.3,0.8,0.5,1.8,1.4c-0.2,0.1,0.7,0.8,0.4,0.8
						c-0.3-0.2-0.8-0.9-1.3-1.2c1.1,1.1,2.4,2.4,2.8,2.9c0-0.2,0.2-0.2,1,0.5c2.2,1.9,0.6,0.9,1.8,2.1c0.6,0.4,2,1.7,2.2,1.5
						c0.7,0.6,0.7,0.8,0.9,1c1.2,0.9,5.5,4.5,4.4,3.2l-0.3-0.3c0.1,0,0.1,0.1,0.2,0.1c0,0,0,0,0,0l0,0c1,0.7,2,1.5,3,2.3
						c1,0.8,2,1.6,3,2.4c2,1.6,4.1,3.2,6.1,4.5l-0.1,0.1c1.2,0.8,2.6,1.7,3.9,2.5c1.3,0.8,2.5,1.6,3.5,2c0.8,0.4,1.7,1.2,1.3,1.1
						c1,0.5,1.5,0.8,2.2,1.2c0.6,0.4,1.4,0.8,2.8,1.6c-2.1-0.9,0.6,0.5-2.1-1c2.5,1.5,3.1,1.9,6,3.1c-1.1-0.2,1.9,1.2,3.2,1.7
						l-1.8-1c1.4,0.6,2.7,1.2,4,1.8l-0.8,0c1.3,0.7,2.7,1.2,4,1.6c0.7,0.2,1.3,0.4,1.9,0.6c0.6,0.2,1.3,0.3,1.9,0.5
						c1.2,0.3,2.4,0.6,3.6,0.9c1.2,0.3,2.3,0.5,3.4,1c1.6,0.1-3.2-0.8-1.7-0.8c1.4,0.3,2.7,0.7,3.9,1.1c1.2,0.3,2.1,0.5,2.5,0.5
						c1.9,0.3,2.8,0.3,3.7,0.2c0.9-0.1,1.8-0.1,3.8,0.1c-0.5-0.2-0.9-0.5,2-0.4c2.7,0.3,3.3,0.8,1.6,0.7c-0.7-0.1-1-0.1-0.9-0.2
						c-0.9,0-2.1-0.1-1,0.1l0.4-0.1c1.3,0.2,5.1,0.6,4.2,0.7c2.1,0.1,0.9-0.1-0.6-0.3c3.5,0.5,5.5,0.5,9.1,0.9
						c-0.6-0.1-1.1-0.3-0.5-0.2c5.3,0.5,2.4-0.1,6,0.1c2,0.3-0.8,0.4,2.9,0.4c2.2,0.2,0.5,0.3-0.4,0.4c3.3-0.1,6.2,0.4,8.1,0.5
						l-1.8,0.1c1,0,1.9,0,2.8,0l-1-0.3c1,0.1,1.9,0.1,1.9,0.2c1.1-0.1-0.8-0.4,1.3-0.6c1.4,0.1,4.2-0.1,4.6,0.2
						c-4.3,0,0.5,0.3-3.2,0.4c0.7,0,1.6,0,2.6,0c0.2,0-0.1,0.1-0.4,0.1c4.1,0.2,1.9-0.4,6.2-0.6c-0.5,0.2,1,0.3,1.7,0.2
						c-1.7,0.1-0.8-0.2,0.7-0.5c2.8-0.1,3-0.4,4.4-0.6l-1.6,0.1c0.5-0.2,1.9-0.4,3.8-0.7c0.2,0.1-1.7,0.4-1,0.3
						c2-0.6,4.8-0.5,7.7-1.7c1.4-0.4,0.2,0.3,1.4-0.1c1.6-0.8,2.4-1.2,3.3-1.7c0.8-0.5,1.8-1,3-2.7c-0.4,0.4-0.7,0.6-0.6,0.5
						c0.1-0.1,0.5-0.6,1-1.9c-0.9,2-2.5,3.4-4.2,4.5c1.1-0.7,2.1-1.6,2.8-2.7c-1.2,1.4-2.9,2.6-3.9,3c0.8-0.5,1.1-0.7,1.1-0.8
						c0-0.1-0.2,0.1-0.6,0.2c1.1-0.4,2.2-1.2,3-2.2c0.4-0.5,0.8-1,1.1-1.6c0.2-0.3,0.3-0.6,0.5-0.9c0.1-0.3,0.3-0.6,0.4-0.9l0.5,0.3
						c0.8-1.9,1.5-3.6,1.9-5.6c0.3-1,0.5-2,0.8-3c0.3-1.1,0.6-2.2,1-3.5l-0.6,1.6c0-0.8,0.9-3.2,1.1-4.9c0.2,0.2,0.5-0.8,0.8-1.5
						c-0.1,0.1,0.8-3.8,0.6-4.4c0.3-0.8,0.5-1.5,0.7-2.3c0.9-4.2,0.3-4.9,1.1-9c0,1.3,0.5-0.6,0.1,2.2c0.2-1.4,0.5-2.6,0.3-2.6
						c0.2-0.8,0.3-3.8,0.7-5c0-0.6-0.2-0.8,0.1-2.3c0.1-0.2,0.1,0,0.1,0c-0.1,0,0.2-2.4-0.2-1.1c1.2-4.1,1.8-11.7,3.1-15.2
						c0.5-3,1.2-6.5,1.9-9.1c0,0.2,0.1,0-0.1,0.5c0.6-1.8,0.6-2.4,0.6-3c0-0.7,0-1.4,0.8-3.4c0.9-2-0.5,2.2,0,0.9
						c0.4-0.2,0.8-1.4,1.2-2.9c0.4-1.5,0.9-3.4,1.4-4.7l-0.1,0.7c0.8-2.1,1-5.3,1.6-8.9c0,0,0,0.2,0.1,0c0.1-2.5,0.4-7.2,0.5-10.6
						c0.2,1.1,0,1.6,0.3,0.9c0-1.6-0.4,0.4-0.4-2.7c0.2-1,0.3-3.2,0.6-3.5l0,2.9c0.4-1.5,0.1-3.8,0.1-5.3l0.2,0.2
						c-0.1-4.5-0.5-4.6-0.7-9.4l-0.1,0.5c-0.6-2.6,0.1-2.2-0.4-4.8l0.3-0.8c-0.3-1.7-1-6-1.5-9.1c0.5,1.7,1.1,5.3,1.5,7.6
						c-0.2-1.7-0.7-5.8-1-6.7c0.1,0.7,0.3,1.5,0.4,2.2c-0.6-2.1-1.1-4.8-1.6-8.2c0.4,0.2,0.1-2-0.3-4.6c-0.4-2.6-1-5.5-1-6.8
						c-1.6-5.9-2.6-11.8-4.7-18.6c0.2,2.6-0.6-2-1.1-1.4c-0.5-1.6-0.7-2.2-0.7-2.3c-0.4-1.6-0.8-3.2-1.2-4.9
						c-0.2-1.2,0.6,1.4,0.7,1.3c-1.1-3.4-0.2-1.5-0.9-3.8c-0.1,0.5-0.7-1.1-1.4-3c0.3,0.9,0.5,1.9,0.7,2.8c-2-4.6-1-4.3-3.2-8.9
						l0.8,1.4c-0.5-1.2-1.5-3.4-2.5-5.6c-1-2.2-2.1-4.3-2.9-5.4c-0.1-0.4-0.3-1.1,0.3-0.1c-1.3-2.8-3-5.9-4.7-8.8
						c-1.7-2.8-3.4-5.5-4.6-7.6l0.4,0.3c-0.7-1-1.3-1.6-2-2.9c0.1,0,0.4,0.3,0.1-0.1c-0.4-0.5-2-2.4-2.8-3.7c0.3,0.3,0.6,0.7,0.9,1
						c-0.8-1.3-1.7-2.3-2.5-3.3c-0.8-1-1.6-1.8-2.3-2.6c-1.6-1.6-3.1-3.1-4.9-4.8c0.4-0.3-3.1-3.8-5-5.3l0.1,0
						c-2.8-2.3-5.5-3.9-8.2-5.2c-2.7-1.3-5.6-2.3-8.8-3c-2-0.7-5.5-1.4-9.4-1.1c-0.5,0-1,0.1-1.5,0.1c-0.5,0.1-1,0.1-1.5,0.2
						c-1,0.1-1.9,0.3-2.8,0.4c-1.8,0.3-3.6,0.4-5.2,0.5c1,0-0.1,0.4-1.3,0.5c-1.5,0-4.2,0.6-4,0.2l0.5,0c-1.2-0.3-4.3-0.1-6.7,0
						l-0.4,0.5c-6.4-0.6-16.8,0.4-20.3-0.3c-1.6,0.1-3.5,0.1-5,0.2l0.1-0.3c-4.3-0.1-6.4-0.2-11.8-0.2l1.1-0.2c-3,0-3.8,0.8-6.6,0.8
						l-0.8-0.4c-5.2,0-10.5-0.3-15.7,0.1c0.1-0.1,0.2-0.2,1.1-0.2c-2.5,0-9.6,0-8.6,0.5c-0.1-0.4-5.4,0.2-8.2,0.5l0.4-0.3
						c-2.4,0.5-2.4,0.6-5.8,1c-0.8,0-0.7-0.2,0.3-0.2c-2.6,0.1-2,0.4-5.2,0.6l1.2-0.3c-2.7,0.3-2.5,0.3-3.9,0.7
						c-1.7,0.3-5.1,0.6-5.5,0.4c-0.3,0.2-1.8,0.6-3.4,0.8c-0.2-0.1,0.3-0.2,0.6-0.3c-4.5,0.6-6.6,1.6-9.7,2.2
						c-0.1-0.1-0.3-0.1-0.6,0c3.5-1,6.4-1.5,6.1-1.5c-0.1-0.3-2.9,0.3-0.7-0.5c-2.3,0.7-6.1,2.1-8.8,2.9c-0.1,0-0.3,0-0.4,0l0.3-0.1
						c-0.6,0.2-1.2,0.4-1.7,0.7c-0.9,0.3-1.4,0.5-2.3,0.8c-0.2,0-1,0.3-1.9,0.7c-0.9,0.4-1.9,1-2.6,1.4c0.2,0.2-1.5,1.1,0.2,0.4
						c-0.2,0.1,0.2-0.2,1.1-0.7c0.2-0.1,0.4-0.2,0.5-0.3c0,0,0,0-0.1,0.1c0.9-0.5,2-1,3.3-1.6c-1,0.6-2.1,1.2-3.6,1.8
						c-0.6,0.5-1.2,1.1-1.6,1.4c-1,0.3-2.3,1-3.4,1.7c-0.5,0.4-1.1,0.7-1.5,1c-0.4,0.3-0.7,0.5-0.8,0.6c-1.6,1.7-3.3,4-4.1,6.4
						c-0.2,0.6-0.4,1.2-0.5,1.7c-0.1,0.3-0.2,0.6-0.2,0.8c-0.1,0.3-0.1,0.5-0.1,0.8c-0.1,1-0.3,2-0.3,2.7c-0.1,1.3-0.3,1.4-0.5,1.9
						c0-0.7,0.2-1.6,0.1-2c-0.3,2.6-0.6,7.6-0.2,8.2c-0.1,3.2-0.4-1.8-0.3,2.6c-0.1-0.2-0.1-0.4-0.1-0.6c-0.1,4.3,0.4,7.8,1.1,11.4
						c0.7,3.6,1.5,7.2,2.1,11.9c-0.1-0.7-0.1-1-0.1-1.1c0.9,5.4,2.2,10.8,3.6,16.2c1.2,5.5,3.3,10.7,5.4,15.6c1.2,2.8,1.6,3,2.6,4.5
						l0,0.7l1.7,2.7c1.1,1.9,1.8,3.8,2.3,5.8c0.1,0.5,0.3,1,0.4,1.5c0.1,0.5,0.2,1.1,0.3,1.6c0.2,1.1,0.3,2.3,0.3,3.6
						c0.1-0.2,0.2-0.4,0.3-0.7c-0.1,1-0.4,2.5-1.1,3.6c-0.3,0.5-0.7,1-0.9,1.3c-0.3,0.3-0.4,0.4-0.4,0.3c-0.1,0.1-0.3,0.7-0.9,1
						l-0.1-0.1c-1.1,1.1-2.6,2-4,2.9c-1.8,0.8-1.7,0.6-1.8,0.4c-0.1-0.1-0.4-0.1-3,0.9c-1.9,0.8-5.5,2.2-4.7,2.1
						c0.8-0.2,2.1-0.5,2.2-0.4l-1.8,0.6c-0.2,0.5-1.5,1.4,3.2,0.4c1-0.5,2.1-0.9,3.1-1.4l1.1-0.2c-0.9,0.3-1.8,0.7-2.6,1
						c0.8-0.1,1.4-0.4,2-0.6c0.5-0.3,1-0.5,1.5-0.8c0.3,0,0.8-0.1,1.4-0.4c0.5-0.3,0.9-0.6,1.4-1c0.5-0.3,0.9-0.7,1.3-1.1
						c0.4-0.1-1.1,1.2,0.9,0c0.6-0.5,0.2-0.4,0-0.3c-0.1,0-0.2,0-0.2,0c0.1-0.1,0.3-0.3,0.8-0.7c0.7-0.4,1-0.6,1.3-0.8
						c0.1-0.1,0.3-0.2,0.4-0.4c0.2-0.2,0.4-0.4,0.7-0.9c0.3-0.2,0.1,0.3-0.4,0.9c0.6-0.7,1.3-1.7,1.7-2.8c0.2-0.5,0.3-1,0.5-1.5
						c0.1-0.4,0.1-0.8,0.1-1.1c0.2-0.4,0.2-1,0.2-1.7c0-0.6,0-1.4-0.2-2c-0.1-0.6-0.2-1.2-0.3-1.5c-0.1-0.4-0.1-0.6,0.1-0.6
						c-0.1-0.3-0.4-0.9-0.8-1.8c-0.4-0.8-0.8-1.7-1.1-2.4c0.8,1.2,0.3-0.2-0.5-1.7c-0.7-1.5-1.6-3.3-1.2-3.1
						c-1.4-1.6-3.6-6.5-5.3-9.6c0.1,0.2,0.4,0.5,0.5,0.8c-0.8-1.9-0.9-2.5-1.3-3.7c-0.5-0.1-1.7-3-2.4-4.5c-0.4-2.5,0.9,1.3,1,0.4
						c-0.1,0.1-0.5-0.9-0.9-1.8c-0.3-0.9-0.6-1.8-0.6-1.3c-0.2-1.9-0.3-1.6-0.2-2.7c-0.6-0.2-0.5-1.7-1.2-3.2
						c-0.4-2.7,0.3-0.8-0.6-3.7C182.7,106.2,183.4,108.8,183.4,108.8z M197.7,48.1L197.7,48.1c-0.6,0.2-1.1,0.4-1.4,0.5
						C196.6,48.5,197,48.4,197.7,48.1z M203.5,46.5c-0.7,0.1-1.6,0.4-2.5,0.6c-0.2,0,0-0.2,0.6-0.3C201.3,47,202.6,46.6,203.5,46.5z
						 M190.7,48.8c0.9-0.4,1.2-0.5,1.4-0.5c-0.4,0.2-0.9,0.4-1.6,0.7c0,0-0.1,0.1-0.1,0.1C190.5,49,190.5,48.9,190.7,48.8z"/>
					<path class="st7" d="M189.3,49.9c-0.1,0.1-0.2,0.1-0.4,0.2c0.2-0.1,0.4-0.1,0.6-0.2c0.1-0.1,0.2-0.2,0.3-0.2
						C189.6,49.8,189.4,49.9,189.3,49.9z"/>
					<path class="st7" d="M253.8,258.6L253.8,258.6c0,0,0-0.1-0.1-0.1C253.7,258.6,253.7,258.6,253.8,258.6z"/>
					<polygon class="st7" points="287,42.8 287,42.7 286.5,42.8 					"/>
					<path class="st7" d="M229.8,235.3c0-0.1-0.1-0.2-0.3-0.4C229.5,234.9,229.6,235.1,229.8,235.3z"/>
					<path class="st7" d="M219.9,224.7l-1.3-1.6C219.2,223.8,219.6,224.3,219.9,224.7z"/>
					<path class="st7" d="M212.6,216.3c-0.1-0.1-0.2-0.1-0.2-0.1l0,0L212.6,216.3z"/>
					<path class="st7" d="M364.4,286.1c0.1,0,0.3,0,0.4-0.1C365.8,285.9,365.1,286,364.4,286.1z"/>
					<path class="st7" d="M312,285.2c0.6,0,1.1,0,1.7,0C312.8,285.1,312.1,285,312,285.2z"/>
					<path class="st7" d="M389.4,241.1C389.4,241.1,389.4,241.1,389.4,241.1c0-0.1,0-0.2,0.1-0.4L389.4,241.1z"/>
					<path class="st7" d="M316.2,285.4c-0.9-0.1-1.7-0.2-2.4-0.2C314.5,285.3,315.4,285.4,316.2,285.4z"/>
					<path class="st7" d="M182.9,178.5l-0.3-0.4c0,0,0,0-0.1,0L182.9,178.5z"/>
					<path class="st7" d="M182.5,178l-0.4-0.5C182.3,177.8,182.5,178,182.5,178z"/>
					<path class="st7" d="M181.4,176.6l0.8,1C181.9,177.2,181.6,176.8,181.4,176.6z"/>
					<path class="st7" d="M191.6,190.4l0.2,0.1C191.7,190.4,191.6,190.4,191.6,190.4z"/>
					<path class="st7" d="M194.3,193.9c-0.6-0.9-1.5-2.3-2.4-3.4l-0.1-0.1C192.3,190.9,193.5,193.2,194.3,193.9z"/>
					<path class="st7" d="M205,209.3l-2.3-3c0.3,0.6,0.8,1.3-0.3,0C205.1,210.2,201.9,205.4,205,209.3z"/>
					<path class="st7" d="M212.4,218.2c-1.4-1.5-0.1,0.1-0.2,0.1C213.1,219.2,213.3,219.4,212.4,218.2z"/>
					<path class="st7" d="M275.1,273.9l-0.3,0.1C276.2,274.8,274.9,274,275.1,273.9z"/>
					<path class="st7" d="M290.1,279.9c-0.4-0.2-0.9-0.4-1.3-0.7l-0.7-0.1C288.7,279.4,289.4,279.7,290.1,279.9z"/>
					<path class="st7" d="M298.5,284.6l-0.7-0.2l1.3,0.3c0.4,0.1,0.9,0.2,1.3,0.2C299.8,284.9,299.2,284.8,298.5,284.6z"/>
					<path class="st7" d="M394.4,225.4l-0.4,0.4C393.9,226.8,394.2,227.1,394.4,225.4z"/>
					<path class="st7" d="M402.9,165.3c0.1-0.7,0.1-2.4-0.1-3.4C402.9,163.2,402.8,164.6,402.9,165.3z"/>
					<polygon class="st7" points="303.2,40.2 304.4,40.1 302.1,40.2 					"/>
				</g>
			</g>
		</g>
	</g>
</g>
<rect x="215.9" y="54.9" class="st8" width="155.1" height="203.1"/>
<text transform="matrix(1 0 0 1 215.9463 75.1543)"><tspan x="0" y="0" class="st9 st10">Har jeg </tspan><tspan x="0" y="36" class="st9 st10">mulighed for</tspan><tspan x="0" y="72" class="st9 st10">at læse i </tspan><tspan x="0" y="108" class="st9 st10">udlandet?</tspan></text>
<path class="st11" d="M608.2,593c-4.4,1-8.8,2-13.2,2.8c2.2-0.1,4.5-0.3,6.7-0.6C603.9,594.7,606.2,594,608.2,593z"/>
<path class="st11" d="M676,421H507.2c-15.9,0-28.7,11.7-28.7,26.1v207.8c8.2,0.1,16.4,0.5,24.6,0.4c9.6-0.2,19.3-0.5,28.9,0.1
	c3.2,0.2,6.4,0.6,9.7,1.1c18.9-0.3,37.8-1,56.7-1.1c19.5-0.1,39-0.3,58.5-0.4c16-0.1,31.9,0.2,47.9,0.4V447.1
	C704.8,432.7,691.9,421,676,421z"/>
<path class="st12" d="M655.8,446H528.2c-15.9,0-28.7,11.7-28.7,26.1v183.2c1.2,0,2.5,0,3.7,0c9.6-0.2,19.3-0.5,28.9,0.1
	c3.2,0.2,6.4,0.6,9.7,1.1c18.9-0.3,37.8-1,56.7-1.1c19.5-0.1,39-0.3,58.5-0.4c9.2,0,18.5,0,27.7,0.1V472.2
	C684.6,457.7,671.7,446,655.8,446z"/>
<rect x="499.1" y="508.3" class="st13" width="93.2" height="48.7"/>
<rect x="592.3" y="508.3" class="st14" width="93.2" height="48.7"/>
<rect x="592.3" y="557" class="st15" width="93.2" height="48.7"/>
<rect x="499.1" y="557" class="st16" width="93.2" height="48.7"/>
<rect x="592.3" y="605.7" class="st17" width="93.2" height="48.7"/>
<rect x="499.1" y="605.7" class="st18" width="93.2" height="48.7"/>
<rect x="502.1" y="522.8" class="st8" width="90.2" height="27.5"/>
<text transform="matrix(1 0 0 1 502.0586 539.8447)" class="st9 st19">UI</text>
<rect x="596.9" y="571.5" class="st8" width="83.5" height="18.2"/>
<text transform="matrix(1 0 0 1 596.9258 585.1328)" class="st9 st20">IT-udvikler</text>
<rect x="503.7" y="623.6" class="st8" width="83.5" height="18.2"/>
<text transform="matrix(1 0 0 1 503.7378 637.1841)" class="st9 st20">Sløjd</text>
<rect x="505.4" y="572.4" class="st8" width="83.5" height="18.2"/>
<text transform="matrix(1 0 0 1 505.417 585.9722)" class="st21 st9 st20">It science</text>
<rect x="596.9" y="527" class="st8" width="83.5" height="18.2"/>
<text transform="matrix(1 0 0 1 596.9258 540.6372)" class="st9 st20">UX</text>
<rect x="596.9" y="623.6" class="st8" width="83.5" height="18.2"/>
<text transform="matrix(1 0 0 1 596.9258 637.1841)" class="st9 st20">PC</text>
<g>
	<path class="st2" d="M1184.7,310c0.3,1.5,0.2,2.9-0.3,4.4c-11.9,10.8-157.9,16.8-189.7,5c-0.5-27.9,18.7-61.6,38.2-80.3
		c8.6-8.3,32.8-17.8,38.5-26.6c6.3-9.8-3-14.9-8.3-25.2c-13-25.3-8.1-57.6,18.3-73.3c20.6-12.3,73.3-6.1,81.3,19.3
		c7.3,23.1-15,63.9-32.5,78C1156,237.8,1172.9,271.9,1184.7,310z"/>
</g>
<circle class="st3" cx="1131.8" cy="150.9" r="18.9"/>
<circle class="st4" cx="1126.5" cy="157.2" r="10.6"/>
<ellipse class="st5" cx="1119.9" cy="158.9" rx="4" ry="4.3"/>
<circle class="st3" cx="1085.5" cy="152.2" r="18.9"/>
<circle class="st4" cx="1080.2" cy="158.6" r="10.6"/>
<ellipse class="st5" cx="1073.6" cy="159.2" rx="4" ry="4.3"/>
<g>
	<path class="st6" d="M1045.1,173c-28-5.5-20.6-33.2-23.5-53.8c-1.5-11-6.9-20.5-9.5-31.2c-2.7-10.9-1.6-21.1-7.8-31.3
		C983.3,22.9,900,35.7,866.9,41.3c-47.4,8-7.2,123.3-5,154.3c1.6,22.4-1.7,51.9,5.6,73.1c8.1,23.4,56.2,41.7,79.2,30
		c25.4-12.9,15.7-52.2,16.6-74.5c1.5-35.5,53.5-36,80.2-48.2"/>
	<g>
		<g>
			<g>
				<g>
					<path class="st7" d="M1043.8,176.7c0.3-0.3,0.1-0.3-1,0.2l-0.6,0.6L1043.8,176.7z"/>
					<path class="st7" d="M1036.4,178.9c-1.2,0.6-2.6,1.3-1.7,1.4c1.2-0.7,1.5-0.7,2.7-1.5c1.1-0.4,1.9-0.6,1.8-0.4
						c0.3-0.2,1.7-0.6,2.2-1c-1.5,0.3-3.2,1-5,1.8C1036,179.2,1036.4,179,1036.4,178.9z"/>
					<path class="st7" d="M963.4,243.6l0-0.7C963.4,243.1,963.4,243.3,963.4,243.6z"/>
					<path class="st7" d="M939.3,300.7c0.5-0.1,0.7-0.2,0.7-0.3C939.6,300.6,939.2,300.7,939.3,300.7z"/>
					<path class="st7" d="M927.7,301.4c0.2,0,0.5,0,0.7,0C928.2,301.4,927.9,301.3,927.7,301.4z"/>
					<path class="st7" d="M963.4,243.6l0,1.8C963.5,245.6,963.5,244.5,963.4,243.6z"/>
					<path class="st7" d="M1021.9,184.1c0.4-0.1,0.7-0.2,0.9-0.3C1022.6,183.9,1022.3,183.9,1021.9,184.1
						C1021.9,184.1,1021.9,184.1,1021.9,184.1z"/>
					<path class="st7" d="M965.1,213.2l0.2-0.5c0-0.2,0-0.3,0.1-0.5L965.1,213.2z"/>
					<path class="st7" d="M981.4,196.3c-0.5,0.3-0.5,0.6-0.6,0.8c0.2-0.3,0.5-0.5,0.9-0.8C981.7,196.3,981.6,196.3,981.4,196.3z"/>
					<path class="st7" d="M1016.6,184.4l0.6-0.2C1017,184.2,1016.7,184.3,1016.6,184.4z"/>
					<path class="st7" d="M962.5,229.9c0,0-0.1,0.1-0.1,0.2C962.4,230.1,962.5,230,962.5,229.9z"/>
					<path class="st7" d="M1026.5,156.3C1026.5,156.3,1026.4,156.3,1026.5,156.3C1026.5,156.4,1026.5,156.4,1026.5,156.3z"/>
					<path class="st7" d="M1045.1,173.1l-0.4-0.1c0,0-0.1,0.1-0.1,0.1L1045.1,173.1z"/>
					<path class="st7" d="M906.9,297.3C907,297.3,907,297.3,906.9,297.3C907.6,297.5,907.2,297.4,906.9,297.3z"/>
					<path class="st7" d="M848.9,122.8c0.1,2.3-0.9-3.5-0.6-0.2C848.4,122.3,849.3,125.6,848.9,122.8z"/>
					<path class="st7" d="M1021.3,184.2c-0.3,0.1-0.6,0.2-0.9,0.3C1020.8,184.4,1021.1,184.3,1021.3,184.2z"/>
					<path class="st7" d="M848.3,122.6L848.3,122.6l0,0.3C848.3,122.8,848.3,122.8,848.3,122.6z"/>
					<path class="st7" d="M869,269.1c0,0.1,0,0.3,0.1,0.5C869.1,269.6,869.1,269.5,869,269.1z"/>
					<path class="st7" d="M895.1,293.3l-0.8-0.4C894.6,293,894.8,293.1,895.1,293.3z"/>
					<path class="st7" d="M864.5,250.7c0-0.5,0-0.7-0.1-1.3c0,0.1,0,0.1,0,0.2C864.5,249.9,864.5,250.2,864.5,250.7z"/>
					<path class="st7" d="M863.4,230.8c0,0.1,0,0.2-0.1,0.4c0,0.2,0,0.4,0,0.6L863.4,230.8z"/>
					<path class="st7" d="M1016,96.7c0.1,0.4,0.1,0.7,0.1,1C1016.2,97.3,1017.2,100.1,1016,96.7z"/>
					<path class="st7" d="M1021.9,184c-0.1,0.1-0.3,0.2-0.5,0.3C1021.5,184.2,1021.8,184.1,1021.9,184
						C1022,184,1022,183.9,1021.9,184z"/>
					<path class="st7" d="M862.2,250.2l-0.3-3.2C862,247.9,862.1,249,862.2,250.2z"/>
					<path class="st7" d="M909,34.5l0.7-0.1C909.4,34.4,909.2,34.4,909,34.5z"/>
					<path class="st7" d="M861.3,237.5c0.1-0.6,0.1-1.2,0.1-1.8c0-0.1,0-0.3-0.1-0.4L861.3,237.5z"/>
					<path class="st7" d="M1016.1,97.7C1016.1,97.7,1016.1,97.7,1016.1,97.7C1016.1,97.7,1016.1,97.7,1016.1,97.7z"/>
					<path class="st7" d="M1023,117.7c-0.5-3.1-0.6-1.4-1-2c-0.9-3.6-0.1-1.7-0.2-3c-0.7-2.2-1.5-3.8-2.1-5.4c0-0.1-0.1-0.5,0.1-0.1
						c-1-2.2-2.4-6.7-3.7-9.2c0-0.2,0-0.3,0-0.4c0,0.5-0.2,0.6-0.3,0.6c-0.5-1.3-1.1-2.3-1-2.9c0.3,0.8,0.4,0.8,0.6,1.2l-0.6-1.3
						c-0.1-1.3,0.7,1.8,1,1.7c-1.1-2.6-2.3-5.5-2.8-7.6c0.2-0.5,1.5,4.7,1,1.9c0.3,1.1,0.6,2.1,0.9,3.1c-0.3-2.5,0.6,1.9,0.4-0.5
						c-0.6-2-1-3.2-1.4-4.3c-0.3-1.1-0.7-2.3-1.1-4.4c-0.4-0.9-0.2,0.4-0.6-0.5c-0.7-3-0.6-4.2-0.6-5.2c0.1-1,0.1-1.8-0.4-4.1
						c-0.4-1.1-0.8-1.5-1.2-4.8l0.6,1c-0.3-2.1-0.6-2.7-0.9-3.3c-0.1-0.3-0.2-0.6-0.4-1.1c-0.1-0.5-0.3-1.2-0.6-2.3
						c0.4,0.7,1,3.2,0.9,2.6c-0.2-1.5-0.4-1.9-0.6-2.3c-0.2-0.4-0.4-0.7-0.8-1.7l0.2-0.6c-0.8-2.2-1.8-4.4-3.2-6.5
						c-0.7-1-1.5-2-2.2-3c-0.8-1-1.7-1.9-2.5-2.8c0.3,0.1,0.9,0.7,0.2-0.2c-4.6-4.6-10.9-8.3-16.6-10.7c-0.8-0.2-1.5-0.4-2.3-0.5
						c-0.5-0.2-0.9-0.5-0.3-0.3c-2.2-0.9-0.2,0.1-1.3-0.1c-1.3-0.4-1.6-0.7-0.8-0.5c-2-0.5-5-1.2-7.9-1.7c-1.5-0.3-3-0.6-4.3-0.8
						c-1.4-0.3-2.7-0.5-3.7-0.7l0.9,0c-3.4-0.6-3.9,0-7-0.6l0.6,0c-7.4-0.9-15.6-0.9-21.2-1.3c-1.1,0.4-7.3-0.1-7.8,0.5
						c-4.2-0.1-3-0.3-9-0.2c-1.6,0.1-2.3,0.5-4.3,0.7l-0.1-0.3c-0.9,0.2-1.8,0.3-2.6,0.5l-1.4-0.2l-1.8,0.2c0.7,0,1.6,0,1.5,0.1
						c-2.9,0.4-7,0.4-7.1,0.3c-2.2,0.3-4.5,0.6-6.7,1c0.1-0.1,1.3-0.3,2.1-0.5c-3.6,0.7-0.7-0.2-4,0.4c0.5,0-0.2,0.2-0.3,0.3
						c-1.7,0-5.4,0.5-8.2,1l0.5-0.3c-5,0.6-10.5,1.6-16.1,2.5c2-0.2,1.6,0.2,0,0.5l-0.7-0.2c-1,0.4,1.7-0.2-0.4,0.4
						c-2.1,0.3-1.5-0.1-0.3-0.4l-2.5,0.5c-0.2-0.1,0.4-0.2,0.6-0.4c-0.5,0.2-1.6,0.3-2.8,0.5c-0.3,0.1-0.6,0.1-0.9,0.2
						c-0.3,0.1-0.6,0.2-0.9,0.2c-0.6,0.2-1.1,0.3-1.4,0.6l-0.2,0c-2.8,1-4.7,2.2-6.3,3.5c-1.6,1.3-3,2.6-4.5,4.5
						c0.1,0.2-1,1.7-1.6,3c-1.9,2.9-3.6,6.5-4.6,10.5c-0.6,2.9,0,0.9-0.1,2.2c-0.1,0.1-0.4,1.1-0.6,1.9c-0.2,0.8-0.3,1.3-0.2,0.2
						c-0.4,2.5-0.6,4-0.7,5.8c-0.2,1.7-0.3,3.6-0.3,6.8c0.1-0.7,0.2-1.4,0.3-1c0,1.1-0.2,2.6-0.3,2.4l0-0.3c0.1,7-0.4,16.2,0.7,21.7
						l-0.1-0.3c0.3,1.9,0.6,3.8,0.9,5.7c0.3,2.6-0.4-1.6-0.3,0.4c1.2,6.1,1.3,9.7,2.4,14.7c-0.1,4,2.5,13.8,3.1,19.1l0.1-0.3
						c0.4,1.3,0.2,1.7,0.4,2.7c0.1-0.2-0.1-1.5,0.1-0.7c2.5,11.4,4.9,23.6,7.1,35.3c0.8,4.3,1.4,2.2,2,7.7l-0.6-1.5
						c1,4.3,1.7,8.7,1.9,13.1c0.2,4.4,0.3,8.9,0.5,13.2c-0.1-0.5-0.2-0.5-0.2-1.4c-0.2,1.8,0,6.7,0.2,6.8c0,1.3-0.2,0.3-0.3,1.1
						c-0.1,1.8,0.3,4.6,0.1,5.6c0,0.2-0.1-0.5-0.1-0.8c0.1,1.2,0,5.6,0.3,4.4c-0.1,3.2,0.2,6.2,0.1,8.8c0.3,1.7,0.1,5.6,0.6,6.1
						c-0.5-0.2,0,5.7,0.5,7.8c-0.2-0.7,0,1.8-0.2,1c0.3,2.3,0.7,4.5,0.9,4c0,0.5,0,1.1,0.1,1.6c0.1,0.5,0.2,1.1,0.3,1.6
						c0.2,1,0.4,2.1,0.7,3c0.6,1.9,1,3.5,1,4.8c0.3,0.8,0.6,1.7,0.9,2.5c0.1,0.4,0.3,0.8,0.4,1.2c0.2,0.4,0.4,0.8,0.5,1.2
						c0.3,0.8,0.8,1.6,1.2,2.3c0.4,0.8,0.9,1.5,1.3,2.2c1.9,2.8,4.1,5.2,6.4,7.3c-0.3,0.1-1.5-1.1-2.7-2.4c-1.1-1.3-2.2-2.6-2.3-2.3
						c0.5,0.6,1,1.1,1.4,1.6c0.5,0.5,0.9,1,1.4,1.4c0.5,0.4,0.9,0.9,1.4,1.3c0.5,0.4,0.9,0.8,1.4,1.2c1.8,1.5,3.7,3,6.1,4.7
						c1.2,0.9-0.8-0.3-1.3-0.6c2.5,1.7,4.9,3.3,7.4,4.7c1.2,0.7,2.5,1.3,3.7,2c1.2,0.6,2.5,1.2,3.7,1.6c0,0-0.6-0.1-1.1-0.4
						c1,0.4,2.2,1.1,2.2,0.8l-1-0.4c-0.7-0.5,0.3-0.2,1.5,0.2c1.2,0.4,2.7,0.8,2.8,0.8c-0.9-0.1,0.3,0.5,1.4,0.9
						c1.1,0.5,2.1,0.9,0.6,0.8c0.7,0.2,1.5,0.4,1.4,0.2c0.9,0.4,1.2,0.5,0.2,0.4c3.6,1,2.4,0.5,5.7,1.4c0,0.1-0.7-0.1-1.1,0
						c1.7,0.3,3.4,0.6,6.2,1.2c-0.2,0,0.1,0.2-0.7,0c4.9,1,8.4,1,13.7,1.4c-1.6,0.4,1.8,0.2,2.1,0.5c1,0,2-0.1,2.9-0.2l-1.2-0.1
						c2.6-0.2,4.8-0.6,7-1c-0.6,0.2-1.2,0.4-1.9,0.5c1.6-0.3,3.2-0.6,4.7-1.1c-0.9,0.2-1.8,0.4-2.7,0.5c1.3-0.3,1.1-0.5,1.2-0.6
						c0-0.1,0.1-0.2,1.8-0.6c-0.6,0.2,2.4-0.7,3.7-1.1l0,0c1.1-0.6,2.2-1.3,3.9-2.2c0.5-0.2-0.1,0.6,0.2,0.5
						c0.4-0.5,1.7-1.3,2.9-2.4c0.3-0.3,0.6-0.5,0.9-0.8c0.3-0.3,0.5-0.5,0.8-0.8c0.5-0.5,0.9-0.9,1.1-1.3c-0.3,0.5-0.2,0.6,0,0.5
						c0.2-0.3,0.3-0.6,0.5-1c0.8-0.9,1-1,1-0.7c2.1-2.9-1,0.7,1.6-2.7c-0.2,0.3,0,0.2-0.4,0.8c2.5-3.5,3.7-7.4,4.8-11
						c0.7-1-0.9,3.3-0.2,2.1c1.7-5.4,2.1-11.5,2.4-16.9l-0.1,1c-0.5-0.8,0.5-4,0.2-6.7c0,0.7,0.3,0.9,0.2,0.7
						c0.1-3.7-0.2-7.6-0.6-13.1l0.2,0.7c0-2.2-0.2-5.7-0.3-8.1c-0.2-0.7-0.2-2-0.4-1.2c0.2-3.6,0-7-0.1-10.4
						c-0.1-3.3,0.1-6.6,1.2-9.5c-0.2,0.7-0.3,1.8-0.2,1.2c0.2-0.9,0.4-1.7,0.7-2.6c0.2-0.9,0.6-1.7,0.9-2.5c-0.4,0.3-0.4,0.6-1,1.6
						c0.1-0.3,0.2-0.9,0.4-1.5c0.1-0.3,0.2-0.6,0.3-0.9c0.2-0.3,0.3-0.6,0.5-0.9c-1,2.2,0.3,0.1,0.9-0.7c-0.1,0.1,0-0.2-0.1-0.2
						c0.9-1.1,0.9-1.2,0.9-1.5c0-0.1,0-0.3,0.2-0.6c0.2-0.3,0.5-0.8,1.2-1.5l0,0.2c0.4-0.6,0.8-1.2,1.3-1.7c0.5-0.5,0.9-1.1,1.5-1.6
						c0.6-0.3-1,1.2-0.9,1.4c0.8-0.8,1.4-1.7,2.2-2.4c0.4-0.4,0.7-0.8,1.1-1.1c0.4-0.3,0.8-0.6,1.3-0.9c-0.3,0.3-0.8,0.7-1.2,1
						c-0.4,0.4-0.8,0.8-1.2,1.1c1.8-1.2,2-1.4,3.3-2.3l-0.1,0.1c1-0.7,2.1-1.3,3.1-2l-0.8,0.4c1.9-2.1,4.7-3,7.9-4.9
						c-3.1,1.9-0.4,0.5-0.6,0.9c0.9-0.3,2.2-0.8,1.9-0.6c1.5-0.9,2.7-1,4.9-2.2c0.1,0,1.8-0.7,1.5-0.3c2.1-0.8-0.6,0-0.4-0.2
						c3.2-1.5,7.9-2.3,12.7-4.1c4.2-1.4,4.8-1.9,8.7-3.1c1.4-0.2-1,0.6-1,0.6c2.2-0.4,3.8-0.9,5.8-1.5c-0.4,0.2,0.1,0.1,0.7,0.1
						c1.6-0.5,1-0.6,3.2-1.1c-0.3,0.2-0.8,0.5-1.5,0.8c1.9-0.6,3.7-1.3,5.6-2c0.6,0-1.1,0.6-1.8,0.9c2.2-0.7,5.7-1.8,6.3-2.3
						l-1.4,0.3c0.8-0.3,0.5,0.1-0.1,0.3c-1.8,0.8-2.7,0.7-2.9,0.7l1.4-0.5c-1.6-0.1-5.6,1.7-8.4,2.4l1.1-0.7l-2.8,1.1
						c-0.6,0.1-1.1-0.1,0.3-0.5c-2.1,0.3-1.8,0.6-3.6,0.9c-0.2,0-0.1,0,0.1-0.1l-1.9,0.7c0.4-0.2-0.4-0.2,0.8-0.5
						c-3.6,0.7-5.6,1.9-7.1,1.9l0.3-0.1c-4.9,1.5-0.4,0.4-4,1.8c-0.9,0-1.8,0-2.7,0l-0.4,0.4c-0.5,0.1-1.5,0.4-1.4,0.3
						c-1.8,0.8,0.4,0-0.7,0.6c-2.5,0.5-6.6,2.4-7.3,2.2c-0.8,0.5,2.3-0.7-0.1,0.4c-0.9-0.2-2.9,1.2-5.1,2c0.5-0.6,2.6-1.3,0.4-0.6
						c-0.5,0.5-1.6,1-2.7,1.4c-1.1,0.5-2.3,1-3.1,1.5c0,0.2-0.9,0.8-2.1,1.5c-1.2,0.8-2.8,1.8-4.1,2.9c0-0.1-0.3,0.1-0.8,0.5
						c-0.5,0.4-1.2,1-1.9,1.6c-0.8,0.6-1.5,1.4-2.3,2.2c-0.7,0.8-1.3,1.5-1.9,2.1l0-0.1c-0.1,0.3-0.5,1.2-1.1,2.2
						c-0.2,0.2-0.3,0.5-0.5,0.8c-0.1,0.3-0.3,0.6-0.4,0.8c-0.3,0.6-0.6,1.1-0.8,1.6c-0.2-0.2,0-0.6,0.5-1.7c-0.3,0.7-0.7,1.3-1,2
						c-0.1,0.5-0.3,1.2-0.8,2.5c0-0.2,0-0.4-0.1-0.6c-0.9,2.8-1.4,5.7-1.7,9.5c0.3,0.2,0.9-2.9,0.8,1c-0.1,0.1-0.4,0.3-0.4-0.7
						c0,0.3,0.1,1.2,0,1.9l-0.2-1.6c-0.1,1.7,0.2,0.9,0.1,2.2c-0.2,0-0.1,1-0.3,0.8c0-0.3,0.1-1.2,0-1.7c-0.1,1.5-0.2,3.4-0.3,4
						c0.1-0.1,0.3,0,0.3,1.1c0.1,2.9-0.2,1-0.3,2.7c0.2,0.7,0.1,2.5,0.4,2.6c0,0.8-0.1,1-0.2,1.3c0.2,1.5,0.4,6.9,0.6,5.2l0-0.4
						c0,0.1,0,0.2,0,0.2c0,0,0,0,0,0l0,0c0.6,4.8,0.4,10.1,0.5,14.9l-0.1,0c0.1,2.9,0,6.4,0,8.4c-0.1,0.8-0.3,2-0.4,1.6
						c-0.2,2.2,0,2.4-0.7,5.5c0.2-2.2-0.3,0.7,0.2-2.2c-0.2,1.4-0.4,2.2-0.6,3.1c-0.1,0.4-0.2,0.9-0.2,1.4c-0.1,0.5-0.2,1.1-0.3,1.9
						c0-0.5-0.2,0-0.4,0.8c-0.3,0.8-0.5,1.9-0.7,2.5c0.3-0.6,0.5-1.2,0.7-1.8c-0.4,1.5-0.8,2.7-1.3,3.9c0-0.3,0-0.5-0.1-0.8
						c-1.2,2.6-2.2,4.9-3.4,7c-1.2,2.1-2.7,3.8-4.4,5c-0.5,0.6,0.1,0.1,0.7-0.4c0.6-0.5,1.2-1.1,0.8-0.5c-0.5,0.4-1,0.9-1.5,1.3
						c-0.5,0.4-1,0.7-1.5,1c-1,0.6-1.8,0.9-2.1,1.2c-0.8,0.4-1.3,0.7-1.8,1c-0.4,0.3-0.8,0.6-1.2,0.8c-0.7,0.5-1.5,1-3.3,1.5
						c0.2,0,0.5,0,0.4,0.2c-0.1,0.2-0.7,0.5-2,0.9c-1.3,0.4-2.1,0.3-2.4,0.3c-0.3-0.1-0.1-0.3,0.7-0.5c0.6-0.1,0.9-0.2,0.9-0.1
						c0.8-0.3,1.9-0.6,0.8-0.5l-0.3,0.2c-1.3,0.3-4.8,0.9-4,0.5c-2,0.4-0.8,0.3,0.7,0.2c-1.7,0.2-3,0.3-4.3,0.4
						c-1.3,0.1-2.7,0.1-4.4,0.1c0.6,0.1,1.1,0.2,0.5,0.2c-5.1-0.3-2.3,0.2-5.8,0c-2-0.4,0.8-0.3-2.8-0.6c-2.1-0.4-0.4-0.4,0.4-0.4
						c-3.2-0.2-5.9-1.1-7.6-1.6c0.5,0.1,1.1,0.2,1.7,0.3c-1-0.1-1.8-0.4-2.6-0.5l0.9,0.5c-0.9-0.3-1.8-0.5-1.7-0.6
						c-1-0.1,0.7,0.6-1.4,0.3c-0.6-0.2-1.6-0.5-2.5-0.7c-0.9-0.3-1.6-0.5-1.8-0.7c3.9,1.4-0.3-0.4,3,0.5c-0.7-0.1-1.5-0.4-2.4-0.7
						c-0.1-0.1,0.2,0,0.4,0c-1.8-0.7-2.3-0.8-2.8-0.8c-0.5-0.1-1,0-2.9-0.8c0.5,0-0.8-0.7-1.4-0.9c1.5,0.6,0.6,0.6-0.8,0.1
						c-2.4-1.2-2.7-1-3.9-1.7c0.5,0.2,0.9,0.5,1.4,0.7c-0.6,0-1.7-0.7-3.4-1.4c-0.1-0.2,1.6,0.6,1,0.3c-2-0.6-4-2.4-6.5-3.7
						c-1-0.8,0.1-0.4-0.9-1c-1.4-0.7-2.1-1.3-2.8-1.9c-0.7-0.5-1.4-1.2-2.7-2.1c0.6,0.8,0.8,0.9-1.2-0.5c1.4,1.1,2.9,2.2,4.5,3.2
						l-1.5-0.9l-1.5-0.9c1.3,1,2.9,1.9,3.7,2.6c-1.5-0.8-1.3-0.8-0.8-0.1c-0.8-0.8-1.8-1.4-2.8-2.1c-1-0.6-2-1.4-2.9-2.3l0.4-0.4
						c-1.4-1.4-2.7-2.5-4-3.9c-0.7-0.7-1.3-1.4-2-2.2c-0.3-0.4-0.6-0.9-1-1.3c-0.2-0.2-0.3-0.5-0.5-0.7c-0.2-0.3-0.3-0.5-0.5-0.8
						c0.3,0.5,0.5,1,0.8,1.4c-0.3-0.2-0.7-0.9-1.2-1.6c-0.5-0.8-0.9-1.7-1.3-2.4c0.2,0.1-0.2-0.9-0.3-1.6c0,0.1-0.4-0.8-0.7-1.7
						c-0.3-1-0.7-2-1-2.1c-0.1-0.8-0.3-1.5-0.4-2.3c-0.9-4-1.6-4.5-2.2-8.5c0.4,1.2,0.2-0.7,0.8,2c-0.3-1.3-0.4-2.5-0.5-2.5
						c0-0.8-0.8-3.6-0.7-4.9c-0.1-0.6-0.4-0.7-0.5-2.2c0-0.2,0.1,0,0.1,0c-0.1,0-0.3-2.3-0.4-1c0.2-4.2-0.7-11.6-0.2-15.2
						c-0.1-2.9-0.2-6.5-0.2-9.1c0.1,0.2,0.1,0,0.1,0.5c0.2-3.7-0.6-2.3-0.4-6.5c0.3-2.1,0.2,2.2,0.3,0.9c0.7-0.6-0.1-5.1,0.2-7.9
						l0,0.7c0.2-2.2-0.3-5.3-0.4-8.8c0,0,0.1,0.2,0.1,0c-0.4-2.4-0.8-7-1.4-10.3c0.4,1,0.3,1.5,0.5,0.8c-0.2-1.5-0.3,0.5-0.9-2.5
						c0-1-0.3-3.2-0.1-3.5l0.5,2.8c0.1-1.5-0.6-3.7-0.9-5.2l0.2,0.2c-0.9-4.3-1.3-4.3-2.2-8.9l0,0.5c-0.9-2.4-0.2-2.2-1.1-4.6
						l0.2-0.8c-0.5-1.6-1.6-5.7-2.4-8.7c0.7,1.6,1.6,5.1,2.2,7.2c-0.4-1.6-1.2-5.6-1.6-6.4c0.2,0.7,0.5,1.5,0.5,2.1
						c-0.7-2-1.5-4.6-2.2-7.9c0.9,0.4-1.7-8.6-1.6-11.1c-1.5-5.7-2.2-11.5-3.5-18.3c-0.2,2.5-0.4-2-0.9-1.5
						c-0.3-1.6-0.4-2.2-0.4-2.3l-0.4-4.9c0-1.2,0.4,1.5,0.5,1.3c-0.5-3.5,0-1.5-0.2-3.8c-0.1,0.5-0.5-1.2-0.7-3.2l0.1,2.8
						c-1-4.8-0.1-4.3-1-9.1l0.4,1.5c-0.4-2.5-1-9.3-1.6-11.7c0-0.5,0.2-1.1,0.3,0.1c-0.4-6-1.1-13.5-0.5-18.1l0.1,0.5
						c0-1.1-0.2-2,0.1-3.4c0.1,0.1,0.1,0.5,0.2-0.1c0-0.6,0-3,0.3-4.5l0,1.3c0.5-2.9,0.8-5.1,1.1-7.2c0.4-2.1,0.8-4.1,1.6-6.4
						c0.2,0.1,0.7-0.9,1.5-2.1c0.4-0.6,0.7-1.3,1.1-1.9c0.2-0.3,0.4-0.6,0.6-0.9c0.2-0.3,0.4-0.5,0.5-0.7l0,0.1
						c1.9-2.7,3.8-4.7,6-6.3c2.2-1.6,4.6-2.8,7.7-3.5c3.9-0.3,13.3-2,19.6-2.7c-1,0.1,0.1-0.4,1.2-0.6c1.5-0.1,4.1-0.9,3.9-0.4
						l-0.5,0.1c1.2,0.3,4.2-0.3,6.6-0.5l0.3-0.6c6.3,0,16.4-2,19.8-1.5c1.5-0.2,3.4-0.4,4.9-0.6l-0.1,0.3c4.2-0.1,6.3-0.2,11.5-0.4
						l-1.1,0.2c2.9,0,3.7-0.9,6.4-0.9l0.8,0.4c5.1,0.1,10.2,0.6,15.3,0.7c-0.1,0.1-0.2,0.2-1.1,0.1c2.4,0.1,9.2,1.3,8.4,0.6
						c0,0.2,1.3,0.4,2.9,0.6c1.6,0.2,3.6,0.5,5,0.6l-0.5,0.2c2.3,0.2,2.4,0,5.6,0.7c0.7,0.2,0.6,0.4-0.4,0.1c2.4,0.9,2,0.2,4.9,1.3
						c-0.4-0.1-0.8-0.1-1.1-0.2c2.5,0.9,2.3,0.7,3.7,1c0.8,0.2,1.9,0.7,2.9,1.2c1,0.5,1.8,0.9,1.9,1.1c0.4,0,1.8,0.5,3.1,1.2
						c0.1,0.2-0.4,0-0.7-0.1c3.7,2.3,5.7,3.1,7.9,5.2c0,0.1,0.1,0.3,0.3,0.5c-1.2-1.2-2.6-2-3.4-2.7c-0.9-0.7-1.4-1-1.3-0.9
						c-0.1,0.2,2.1,1.8,0.1,0.8c0.9,0.6,2.3,1.3,3.6,2.2c0.6,0.5,1.2,1,1.8,1.5c0.3,0.3,0.6,0.5,0.8,0.8c0.2,0.3,0.5,0.5,0.7,0.8
						c0.1,0.1,0.1,0.2,0.2,0.3l-0.2-0.2c0.4,0.5,0.8,0.9,1.2,1.2c0.6,0.6,0.8,1.2,1.3,1.8c0,0.2,0.4,0.8,1,1.6
						c0.5,0.8,1,1.7,1.3,2.3c0.2-0.2,1,1.4,0.4-0.2c0.1,0.2-0.1-0.2-0.6-1c-0.1-0.2-0.2-0.4-0.3-0.5c0,0,0,0,0.1,0.1
						c-0.4-0.8-1.2-1.7-1.9-2.8c0.4,0.4,0.7,0.8,1.1,1.3c0.2,0.2,0.4,0.5,0.6,0.8c0.2,0.3,0.3,0.6,0.5,1c0.5,0.5,1,1.1,1.3,1.5
						c0.6,1.9,1.6,5.4,1.4,6c1.4,4,2,9.8,2.9,12.4c0.2,1.2,0,1.4,0,1.9c-0.1-0.7-0.3-1.5-0.4-1.9c0.2,1.2,0.5,3,0.8,4.6
						c0.3,1.6,0.6,2.9,0.9,3.2c0.5,3.1-0.7-1.6,0.3,2.5c-0.1-0.2-0.2-0.4-0.2-0.5c1.5,8.5,5.3,12.7,7.5,21.7
						c-0.2-0.6-0.2-0.9-0.2-1.1c0.7,2.5,1.5,5.1,2,7.7c0.6,2.6,0.9,5.3,1.1,8c0.4,5.4,0.4,10.8,0.4,16.1c0,3,0.3,3.3,0.6,5.1
						l-0.2,0.7c0.2,1,0.4,2,0.7,3.1c0.5,2.2,0.6,4.1,1,6.1c0.4,2,1.1,4.3,2.7,6.6l-0.2-0.7c0.3,0.4,0.6,1,0.9,1.6
						c0.4,0.6,0.8,1.2,1.2,1.7c0.8,1,1.5,1.8,1.3,1.7c0.2,0.1,0.6,0.4,1.1,1l-0.1,0.2c0.7,0.5,1.3,1,2,1.5c0.4,0.2,0.7,0.5,1.1,0.7
						l1.1,0.6c1.7,1,1.5,1,1.5,1.2c0,0.1,0.2,0.5,2.9,1.5c2,0.7,5.9,1.1,5.2,0.8c-0.8-0.2-2.1-0.6-2.1-0.7l1.9,0.3
						c0.2-0.2,0.7-0.3,0.6-0.6c-0.1-0.3-0.9-0.6-3-1.3l-1.5-0.3c-0.5-0.1-1-0.3-1.5-0.4c-0.3-0.2-0.6-0.4-0.8-0.6
						c0.8,0.3,1.6,0.6,2.4,0.9c-1.3-0.7-2.3-0.8-3.3-1.2c-0.2-0.2-0.5-0.5-1-0.8l-1.4-0.6c-0.5-0.2-0.9-0.5-1.4-0.7
						c-0.2-0.4,1.3,0.5-0.3-0.8c-1.2-0.8,0.8,1.2-1.1-0.2c-0.5-0.6-0.6-0.8-0.8-1.1c-0.2-0.3-0.4-0.5-1.1-1c-0.1-0.3,0.2,0,0.7,0.4
						c-1.2-1-2.6-3.1-3.1-3.7c-0.3-0.7-0.9-1.9-1.3-2.9c-0.4-1-0.7-1.9-0.4-1.9c-0.3-0.4-1.2-2.5-1.5-4c0.6,1.2,0.2-0.1,0-1.7
						c-0.3-1.6-0.5-3.4-0.2-3.1c-0.8-1.9-0.8-7.1-1.2-10.6c0,0.2,0.1,0.6,0.1,0.9c0-2,0.1-2.6,0.2-3.9c-0.4-0.2-0.6-3.4-0.9-5
						c0.3-2.5,0.5,1.5,0.8,0.7c-0.3,0.1-0.5-4.3-0.7-3.4c0.1-1.9,0-1.6,0.3-2.6c-0.5-0.3-0.2-1.8-0.7-3.3c0-1.4,0-1.6,0.1-1.8
						c0-0.2,0-0.5-0.3-2C1022.3,115.1,1023,117.7,1023,117.7z M1000.5,50.8L1000.5,50.8c0.4,0.5,0.8,0.8,1,1.1
						C1001.3,51.7,1001,51.4,1000.5,50.8z M995.9,46.8c0.6,0.5,1.4,1,2.1,1.6c0.1,0.2-0.1,0.1-0.6-0.3c0.1,0.1,0-0.1-0.4-0.4
						C996.7,47.5,996.2,47.1,995.9,46.8z M1003,57.2c-0.6-0.7-0.7-1-0.7-1.1c0.3,0.3,0.6,0.7,0.9,1.3c0,0,0.1,0.1,0.1,0.1
						C1003.3,57.3,1003.2,57.3,1003,57.2z"/>
					<path class="st7" d="M1004.2,58.4c0.1,0.1,0.1,0.2,0.2,0.3c-0.1-0.2-0.1-0.3-0.2-0.5c-0.1-0.1-0.2-0.2-0.2-0.2
						C1004,58.1,1004.1,58.3,1004.2,58.4z"/>
					<path class="st7" d="M963.4,242.8l0,0.1c0-0.1,0-0.2,0-0.3C963.5,242.7,963.5,242.7,963.4,242.8z"/>
					<polygon class="st7" points="915.6,33.8 915.6,33.9 916.1,33.8 					"/>
					<path class="st7" d="M967.6,210.9c0.1,0,0.1-0.1,0.3-0.3C967.9,210.6,967.8,210.7,967.6,210.9z"/>
					<path class="st7" d="M977,200.8c0.5-0.4,1.1-0.7,1.7-1C978,200.1,977.4,200.5,977,200.8z"/>
					<path class="st7" d="M986.4,195.5c0.1-0.1,0.1-0.2,0.1-0.2l0,0L986.4,195.5z"/>
					<path class="st7" d="M894.9,295.3c-0.1-0.1-0.3-0.1-0.4-0.2C893.6,294.7,894.2,295,894.9,295.3z"/>
					<path class="st7" d="M945.5,299.8c-0.5,0.3-1,0.6-1.5,0.8C944.9,300.3,945.5,299.9,945.5,299.8z"/>
					<path class="st7" d="M862.3,250.5C862.3,250.5,862.3,250.5,862.3,250.5c0-0.1,0-0.2,0-0.4L862.3,250.5z"/>
					<path class="st7" d="M941.7,301.3c0.9-0.2,1.6-0.5,2.3-0.8C943.2,300.8,942.4,301.1,941.7,301.3z"/>
					<path class="st7" d="M1031.3,181.5l0.5-0.1c0,0,0,0,0-0.1L1031.3,181.5z"/>
					<path class="st7" d="M1031.8,181.3l0.6-0.2C1032.1,181.1,1031.9,181.2,1031.8,181.3z"/>
					<path class="st7" d="M1033.5,180.6l-1.2,0.4C1032.8,180.9,1033.3,180.8,1033.5,180.6z"/>
					<path class="st7" d="M1017.3,185.2l-0.1,0.1C1017.3,185.3,1017.3,185.3,1017.3,185.2z"/>
					<path class="st7" d="M1013.1,186.4c1-0.3,2.6-0.5,4-0.9l0.1-0.1C1016.6,185.7,1014,186,1013.1,186.4z"/>
					<path class="st7" d="M995.3,190.5c1.2-0.4,2.3-0.8,3.5-1.1c-0.6,0.1-1.5,0.2,0.1-0.3C994.3,190.2,999.8,188.9,995.3,190.5z"/>
					<path class="st7" d="M984.6,194.8c1.8-0.9-0.1-0.1,0-0.2C983.5,195.2,983.3,195.4,984.6,194.8z"/>
					<path class="st7" d="M963.3,268.3l-0.2-0.2C962.9,269.6,963.1,268.1,963.3,268.3z"/>
					<path class="st7" d="M961,283.9c0.2-0.4,0.5-0.9,0.7-1.3l0-0.8l-0.3,1.1L961,283.9z"/>
					<path class="st7" d="M954.8,290.9l0.4-0.5c-0.5,0.6-1,1.3-1.5,1.9C954,291.8,954.4,291.3,954.8,290.9z"/>
					<path class="st7" d="M863.7,234.4l-0.3,0.5C863.5,235.9,863.8,236.1,863.7,234.4z"/>
					<path class="st7" d="M859.2,174.9c0-0.7-0.2-2.3-0.6-3.3C858.8,172.9,859,174.3,859.2,174.9z"/>
					<polygon class="st7" points="900.1,37.8 898.9,38 901.1,37.7 					"/>
				</g>
			</g>
		</g>
	</g>
</g>
<g>
	<path class="st22" d="M474.2,67.9c4.5,4.5,9.1,9.1,13.6,13.6"/>
	<g>
		<path class="st22" d="M470.7,71.5c4.5,4.5,9.1,9.1,13.6,13.6c4.6,4.6,11.6-2.5,7.1-7.1c-4.5-4.5-9.1-9.1-13.6-13.6
			C473.2,59.8,466.1,66.9,470.7,71.5L470.7,71.5z"/>
	</g>
</g>
<g>
	<path class="st22" d="M522.9,62.5c-5.3-5.8-10.3-11.9-15.1-18.2"/>
	<g>
		<path class="st22" d="M526.4,59c-5-5.5-9.8-11.2-14.4-17.2c-1.7-2.2-4.3-3.2-6.8-1.8c-2.1,1.2-3.4,4.7-1.8,6.8
			c5.1,6.6,10.3,13,15.9,19.2C523.7,70.8,530.7,63.8,526.4,59L526.4,59z"/>
	</g>
</g>
<g>
	<path class="st22" d="M594,64c-0.9-7.3,1.2-14,1.5-21.2"/>
	<g>
		<path class="st22" d="M599,64c-0.7-7.2,1.1-14.1,1.5-21.2c0.4-6.4-9.6-6.4-10,0c-0.4,7.1-2.2,14-1.5,21.2
			C589.6,70.4,599.6,70.5,599,64L599,64z"/>
	</g>
</g>
<g>
	<path class="st22" d="M647,70.1c1.8-7.7,2-16,6.1-22.7"/>
	<g>
		<path class="st22" d="M651.8,71.4c1.6-7.2,1.9-15,5.6-21.5c3.2-5.6-5.5-10.7-8.6-5c-4.2,7.4-4.7,15.7-6.6,23.9
			C640.8,75,650.4,77.7,651.8,71.4L651.8,71.4z"/>
	</g>
</g>
<g>
	<path class="st22" d="M460.3,285c-3.6,3.5-8.5,5.7-13.6,6.1"/>
	<g>
		<path class="st22" d="M456.8,281.5c-2.8,2.6-6.3,4.2-10.1,4.6c-2.7,0.3-5,2.1-5,5c0,2.5,2.3,5.3,5,5c6.5-0.6,12.3-3,17.2-7.5
			C468.6,284.1,461.5,277.1,456.8,281.5L456.8,281.5z"/>
	</g>
</g>
<g>
	<path class="st22" d="M456.3,238.1c-9.8-2.3-20.4-2.1-30.3-4.5"/>
	<g>
		<path class="st22" d="M457.6,233.3c-10-2.2-20.3-2.2-30.3-4.5c-6.3-1.5-8.9,8.2-2.7,9.6c10,2.3,20.3,2.3,30.3,4.5
			C461.2,244.3,463.9,234.7,457.6,233.3L457.6,233.3z"/>
	</g>
</g>
<g>
	<path class="st22" d="M461.3,177.6c-5.8-4.6-12.5-7.4-18.2-12.1"/>
	<g>
		<path class="st22" d="M463.8,173.2c-5.5-4.2-11.8-7-17.2-11.3c-5-4-12.1,3-7.1,7.1c6,4.9,13,8.2,19.2,12.9
			c2.2,1.6,5.6,0.3,6.8-1.8C467.1,177.5,465.9,174.9,463.8,173.2L463.8,173.2z"/>
	</g>
</g>
<g>
	<path class="st22" d="M460.2,133.2c-4.6-7.3-11.1-16.1-19.7-19.7"/>
	<g>
		<path class="st22" d="M464.5,130.6c-5.4-8.5-11.9-17.3-21.5-21.5c-5.8-2.6-10.9,6-5,8.6c8,3.5,13.3,10.7,17.9,17.9
			C459.4,141.1,468,136.1,464.5,130.6L464.5,130.6z"/>
	</g>
</g>
<g>
	<path class="st22" d="M721.2,136.5c6.3,0,12.3,0.8,18.2,3"/>
	<g>
		<path class="st22" d="M721.2,141.5c5.8,0,11.3,0.9,16.8,2.8c6.1,2.2,8.7-7.5,2.7-9.6c-6.3-2.2-12.8-3.2-19.5-3.2
			C714.8,131.5,714.8,141.5,721.2,141.5L721.2,141.5z"/>
	</g>
</g>
<g>
	<path class="st22" d="M715.9,185.9c6.7,4.6,13.9,8.5,21.2,12.1"/>
	<g>
		<path class="st22" d="M713.3,190.2c6.7,4.6,13.9,8.5,21.2,12.1c5.7,2.9,10.8-5.8,5-8.6c-7.3-3.6-14.4-7.5-21.2-12.1
			C713.1,178,708.1,186.6,713.3,190.2L713.3,190.2z"/>
	</g>
</g>
<rect x="881.1" y="54.1" class="st8" width="146.9" height="210.9"/>
<text transform="matrix(1 0 0 1 881.0654 70.3516)"><tspan x="0" y="0" class="st9 st23">Her har jeg</tspan><tspan x="0" y="28.8" class="st9 st23">en </tspan><tspan x="0" y="57.6" class="st9 st23">overskuelig</tspan><tspan x="0" y="86.4" class="st9 st23">hjemmeside</tspan><tspan x="0" y="115.2" class="st9 st23">med</tspan><tspan x="0" y="144" class="st9 st23">info!</tspan></text>
<g>
	<path class="st22" d="M707.1,74.9c8.7-5.4,16.2-12.5,24.7-18.2"/>
	<g>
		<path class="st22" d="M709.6,79.2c8.7-5.5,16.2-12.4,24.7-18.2c5.3-3.6,0.3-12.3-5-8.6c-8.5,5.7-16,12.7-24.7,18.2
			C699.1,74,704.1,82.7,709.6,79.2L709.6,79.2z"/>
	</g>
</g>
<g>
	<path class="st22" d="M477.2,386.9c4.5,4.5,9.1,9.1,13.6,13.6"/>
	<g>
		<path class="st22" d="M473.7,390.5c4.5,4.5,9.1,9.1,13.6,13.6c4.6,4.6,11.6-2.5,7.1-7.1c-4.5-4.5-9.1-9.1-13.6-13.6
			C476.2,378.8,469.1,385.9,473.7,390.5L473.7,390.5z"/>
	</g>
</g>
<g>
	<path class="st22" d="M525.9,381.5c-5.3-5.8-10.3-11.9-15.1-18.2"/>
	<g>
		<path class="st22" d="M529.4,378c-5-5.5-9.8-11.2-14.4-17.2c-1.7-2.2-4.3-3.2-6.8-1.8c-2.1,1.2-3.4,4.7-1.8,6.8
			c5.1,6.6,10.3,13,15.9,19.2C526.7,389.8,533.7,382.8,529.4,378L529.4,378z"/>
	</g>
</g>
<g>
	<path class="st22" d="M597,383c-0.9-7.3,1.2-14,1.5-21.2"/>
	<g>
		<path class="st22" d="M602,383c-0.7-7.2,1.1-14.1,1.5-21.2c0.4-6.4-9.6-6.4-10,0c-0.4,7.1-2.2,14-1.5,21.2
			C592.6,389.4,602.6,389.5,602,383L602,383z"/>
	</g>
</g>
<g>
	<path class="st22" d="M650,389.1c1.8-7.7,2-16,6.1-22.7"/>
	<g>
		<path class="st22" d="M654.8,390.4c1.6-7.2,1.9-15,5.6-21.5c3.2-5.6-5.5-10.7-8.6-5c-4.2,7.4-4.7,15.7-6.6,23.9
			C643.8,394,653.4,396.7,654.8,390.4L654.8,390.4z"/>
	</g>
</g>
<g>
	<path class="st22" d="M720.5,572.5c8.1,6.3,17.4,10.7,25.7,16.6"/>
	<g>
		<path class="st22" d="M718,576.8c8.2,6.2,17.4,10.8,25.7,16.6c5.3,3.7,10.3-5,5-8.6c-8.4-5.9-17.5-10.5-25.7-16.6
			C717.9,564.3,712.9,573,718,576.8L718,576.8z"/>
	</g>
</g>
<g>
	<path class="st22" d="M462.3,601c-3.6,3.5-8.5,5.7-13.6,6.1"/>
	<g>
		<path class="st22" d="M458.8,597.5c-2.8,2.6-6.3,4.2-10.1,4.6c-2.7,0.3-5,2.1-5,5c0,2.5,2.3,5.3,5,5c6.5-0.6,12.3-3,17.2-7.5
			C470.6,600.1,463.5,593.1,458.8,597.5L458.8,597.5z"/>
	</g>
</g>
<g>
	<path class="st22" d="M459.3,557.1c-9.8-2.3-20.4-2.1-30.3-4.5"/>
	<g>
		<path class="st22" d="M460.6,552.3c-10-2.2-20.3-2.2-30.3-4.5c-6.3-1.5-8.9,8.2-2.7,9.6c10,2.3,20.3,2.3,30.3,4.5
			C464.2,563.3,466.9,553.7,460.6,552.3L460.6,552.3z"/>
	</g>
</g>
<g>
	<path class="st22" d="M464.3,496.6c-5.8-4.6-12.5-7.4-18.2-12.1"/>
	<g>
		<path class="st22" d="M466.8,492.2c-5.5-4.2-11.8-7-17.2-11.3c-5-4-12.1,3-7.1,7.1c6,4.9,13,8.2,19.2,12.9
			c2.2,1.6,5.6,0.3,6.8-1.8C470.1,496.5,468.9,493.9,466.8,492.2L466.8,492.2z"/>
	</g>
</g>
<g>
	<path class="st22" d="M463.2,452.2c-4.6-7.3-11.1-16.1-19.7-19.7"/>
	<g>
		<path class="st22" d="M467.5,449.6c-5.4-8.5-11.9-17.3-21.5-21.5c-5.8-2.6-10.9,6-5,8.6c8,3.5,13.3,10.7,17.9,17.9
			C462.4,460.1,471,455.1,467.5,449.6L467.5,449.6z"/>
	</g>
</g>
<g>
	<path class="st22" d="M724.2,455.5c6.3,0,12.3,0.8,18.2,3"/>
	<g>
		<path class="st22" d="M724.2,460.5c5.8,0,11.3,0.9,16.8,2.8c6.1,2.2,8.7-7.5,2.7-9.6c-6.3-2.2-12.8-3.2-19.5-3.2
			C717.8,450.5,717.8,460.5,724.2,460.5L724.2,460.5z"/>
	</g>
</g>
<g>
	<path class="st22" d="M718.9,504.9c6.7,4.6,13.9,8.5,21.2,12.1"/>
	<g>
		<path class="st22" d="M716.3,509.2c6.7,4.6,13.9,8.5,21.2,12.1c5.7,2.9,10.8-5.8,5-8.6c-7.3-3.6-14.4-7.5-21.2-12.1
			C716.1,497,711.1,505.6,716.3,509.2L716.3,509.2z"/>
	</g>
</g>
<g>
	<path class="st22" d="M710.1,393.9c8.7-5.4,16.2-12.5,24.7-18.2"/>
	<g>
		<path class="st22" d="M712.6,398.2c8.7-5.5,16.2-12.4,24.7-18.2c5.3-3.6,0.3-12.3-5-8.6c-8.5,5.7-16,12.7-24.7,18.2
			C702.1,393,707.1,401.7,712.6,398.2L712.6,398.2z"/>
	</g>
</g>
<g>
	<path class="st24" d="M43.9,632c-0.3,1.5-0.2,2.9,0.3,4.4c11.9,10.8,157.9,16.8,189.7,5c0.5-27.9-18.7-61.6-38.2-80.3
		c-8.6-8.3-32.8-17.8-38.5-26.6c-6.3-9.8,3-14.9,8.3-25.2c13-25.3,8.1-57.6-18.3-73.3c-20.6-12.3-73.3-6.1-81.3,19.3
		c-7.3,23.1,15,63.9,32.5,78C72.6,559.8,55.8,593.9,43.9,632z"/>
</g>
<circle class="st3" cx="143.1" cy="474.2" r="18.9"/>
<circle class="st4" cx="148.4" cy="467.6" r="10.6"/>
<ellipse transform="matrix(0.7071 -0.7071 0.7071 0.7071 -284.9657 246.4885)" class="st5" cx="155.1" cy="467.2" rx="4" ry="4.3"/>
<g>
	<path class="st24" d="M1173.7,632c0.3,1.5,0.2,2.9-0.3,4.4c-11.9,10.8-157.9,16.8-189.7,5c-0.5-27.9,18.7-61.6,38.2-80.3
		c8.6-8.3,32.8-17.8,38.5-26.6c6.3-9.8-3-14.9-8.3-25.2c-13-25.3-8.1-57.6,18.3-73.3c20.6-12.3,73.3-6.1,81.3,19.3
		c7.3,23.1-15,63.9-32.5,78C1145,559.8,1161.9,593.9,1173.7,632z"/>
</g>
<g>
	<circle class="st3" cx="1120.8" cy="486.9" r="18.9"/>
	<circle class="st4" cx="1115.5" cy="493.2" r="10.6"/>
	<ellipse class="st5" cx="1108.9" cy="494.9" rx="4" ry="4.3"/>
</g>
<g>
	<circle class="st3" cx="1078.8" cy="484.9" r="18.9"/>
	<circle class="st4" cx="1073.5" cy="491.2" r="10.6"/>
	<ellipse class="st5" cx="1066.9" cy="492.9" rx="4" ry="4.3"/>
</g>
<g>
	<path class="st25" d="M185.5,486.5c28.3-9.2,9.1-22.1,4-46.4c-2.9-13.5-9.1-42.2-4.1-56c11-30.1,98.2-15.1,125.9-21.2
		c44.8-9.8,77.4,114.3,63.2,164.1c-7.2,25.1-6.2,51.1-14.6,75.3c-4.9,14.1-50.8,7-61.8,6.2c-47.1-3.7-104.5-96.3-116.8-117.6"/>
</g>
<rect x="222.9" y="406.9" class="st8" width="155.1" height="155.1"/>
<text transform="matrix(1 0 0 1 222.9463 427.1543)"><tspan x="0" y="0" class="st9 st10">Hvilke </tspan><tspan x="0" y="36" class="st9 st10">valgfag</tspan><tspan x="0" y="72" class="st9 st10">kan jeg </tspan><tspan x="0" y="108" class="st9 st10">læse?</tspan></text>
<g>
	<path class="st25" d="M1016,536.9c-8.8,1.5-11.9-4.9-19.5-6.3c-9.7-1.9-6.8-2.1-16.4,4.5c-12.4,8.6-21.8,15-37.4,16.8
		c-58.2,6.9-91.5-25.2-89.6-84.4c1.7-53.3,38.4-103.2,94.7-102.5c44.1,0.5,91.1,26.6,90.7,76.2c-0.1,18.7-10.3,35.7-20.1,50.7
		c-4.6,7-12.5,13.2-12.9,20.3c-0.5,7.1,7.5,20,12.1,24.7"/>
	<g>
		<g>
			<g>
				<g>
					<path class="st26" d="M1017,537.4c0.3,0.2,0.3-0.1-0.3-0.7l-0.7-0.3L1017,537.4z"/>
					<path class="st26" d="M1013.7,532.2c-0.7-0.8-1.6-1.6-1.5-0.9c0.9,0.7,0.9,1,1.9,1.7c0.6,0.7,0.9,1.3,0.7,1.3
						c0.3,0.2,0.8,1.2,1.3,1.4c-0.6-1.1-1.4-2.3-2.5-3.4C1013.4,532,1013.6,532.2,1013.7,532.2z"/>
					<path class="st26" d="M1037.1,454.9c-0.1,0.2-0.1,0.4-0.2,0.5C1037,455.3,1037.1,455.1,1037.1,454.9z"/>
					<path class="st26" d="M1027.7,402.3c0.2,0.3,0.4,0.5,0.4,0.5C1027.9,402.5,1027.7,402.2,1027.7,402.3z"/>
					<path class="st26" d="M1022.3,394.7c0.1,0.2,0.2,0.3,0.3,0.4C1022.5,394.9,1022.4,394.7,1022.3,394.7z"/>
					<path class="st26" d="M1037.1,454.9l0.4-1.4C1037.5,453.3,1037.3,454.2,1037.1,454.9z"/>
					<path class="st26" d="M1007,522c0.1,0.3,0.3,0.5,0.4,0.7C1007.3,522.5,1007.2,522.3,1007,522C1007,522,1007,522,1007,522z"/>
					<path class="st26" d="M1028.2,477.2l-0.2,0.4c0,0.1-0.1,0.3-0.1,0.4L1028.2,477.2z"/>
					<path class="st26" d="M1018.6,493c0.2-0.3,0.1-0.6,0.1-0.8c0,0.3-0.2,0.5-0.4,0.9C1018.4,493.1,1018.4,493.1,1018.6,493z"/>
					<path class="st26" d="M1006.6,517.7l0.2,0.5C1006.7,518.1,1006.7,517.8,1006.6,517.7z"/>
					<path class="st26" d="M1034,465.3c0.1,0,0.1-0.1,0.2-0.1C1034.1,465.2,1034.1,465.2,1034,465.3z"/>
					<path class="st26" d="M996.4,529.2C996.3,529.2,996.4,529.3,996.4,529.2C996.5,529.3,996.5,529.2,996.4,529.2z"/>
					<path class="st26" d="M1016,537l-0.3,0.1c0,0.1,0,0.1,0,0.2L1016,537z"/>
					<path class="st26" d="M1009.7,382.9C1009.7,382.9,1009.7,382.9,1009.7,382.9C1010.1,383.2,1009.9,383,1009.7,382.9z"/>
					<path class="st26" d="M870.5,406.8c1.2-1.4-1.3,2.6,0.4,0.5C870.6,407.4,871.9,405,870.5,406.8z"/>
					<path class="st26" d="M1006.8,521.5c-0.1-0.2-0.2-0.5-0.3-0.7C1006.7,521.1,1006.8,521.4,1006.8,521.5z"/>
					<path class="st26" d="M870.9,407.3L870.9,407.3l0.2-0.2C871,407.2,871,407.2,870.9,407.3z"/>
					<path class="st26" d="M973.6,367c0.1,0.1,0.2,0.1,0.4,0.2C973.9,367.2,973.8,367.1,973.6,367z"/>
					<path class="st26" d="M1000.8,377.9l-0.6-0.4C1000.5,377.7,1000.7,377.8,1000.8,377.9z"/>
					<path class="st26" d="M958.4,364.8c-0.4-0.1-0.5-0.1-1.1-0.1c0,0,0.1,0,0.2,0.1C957.7,364.7,958,364.7,958.4,364.8z"/>
					<path class="st26" d="M942.5,364.3c0.1,0,0.2,0,0.3,0.1c0.2,0,0.3,0,0.5,0L942.5,364.3z"/>
					<path class="st26" d="M953.4,548.5c0.3,0,0.6,0,0.8,0C953.9,548.4,956,547.6,953.4,548.5z"/>
					<path class="st26" d="M1007.1,521.9c-0.1-0.1-0.2-0.2-0.3-0.4C1006.9,521.7,1007,521.9,1007.1,521.9
						C1007.1,522,1007.2,522,1007.1,521.9z"/>
					<path class="st26" d="M957.6,367c-0.8-0.1-1.6-0.2-2.5-0.3C955.8,366.8,956.7,366.9,957.6,367z"/>
					<path class="st26" d="M860.2,509.1l0.2,0.5C860.4,509.4,860.3,509.2,860.2,509.1z"/>
					<path class="st26" d="M947.8,366.4c-0.4-0.1-0.9-0.1-1.4-0.2c-0.1,0-0.2,0-0.3,0.1L947.8,366.4z"/>
					<path class="st26" d="M954.2,548.5C954.2,548.5,954.2,548.5,954.2,548.5C954.2,548.5,954.2,548.5,954.2,548.5z"/>
					<path class="st26" d="M968.5,540.9c-2,1.2-0.8,0.9-1.1,1.3c-2.4,1.5-1.3,0.4-2.2,0.7c-0.7,0.5-1.4,0.9-2,1.3
						c-0.6,0.4-1.1,0.8-1.7,1.1c-0.1,0-0.4,0.1-0.1-0.1c-1.5,1.1-5,2.2-6.9,3.2c-0.2,0-0.2,0-0.3,0c0.4,0.1,0.5,0.2,0.5,0.4
						c-1,0.3-1.8,0.8-2.3,0.7c0.6-0.2,0.7-0.3,0.9-0.4l-1,0.4c-1.1-0.1,1.4-0.5,1.3-0.8c-1,0.4-2.1,0.8-3.2,1.1
						c-1.1,0.3-2.1,0.6-2.9,0.7c-0.4-0.2,3.8-1,1.5-0.8c0.8-0.1,1.7-0.3,2.5-0.5c-2,0,1.5-0.4-0.4-0.5c-3.3,0.7-3.6,1.1-6.9,1.5
						c-0.7,0.3,0.3,0.2-0.4,0.5c-2.3,0.5-3.3,0.3-4.1,0.2c-0.8-0.1-1.4-0.2-3.2,0.1c-0.9,0.3-1.2,0.7-3.8,0.6l0.8-0.4
						c-1.6,0.1-2.1,0.2-2.6,0.3c-0.5,0.1-1,0.2-2.7,0.1c0.6-0.2,2.6-0.2,2.1-0.2c-2.2-0.3-1.6,0.2-3.3,0.3l-0.4-0.3
						c-1.7,0-3.6,0-5.5,0c-1.9-0.1-3.8-0.1-5.7-0.3c0.2-0.1,0.9-0.1,0-0.3c-4.8-0.4-10.3-1.7-14.6-3.3c-0.6-0.1-1.2-0.2-1.8-0.3
						c-0.4-0.1-0.7-0.4-0.2-0.3c-1.7-0.7-0.1,0.1-1,0c-1-0.3-1.2-0.6-0.6-0.5c-0.4-0.1-0.8-0.2-1.3-0.4c-0.4-0.2-0.9-0.3-1.4-0.5
						c-1-0.4-2.1-0.7-3.1-1.2c-1-0.5-2.1-1-3-1.5c-0.9-0.6-1.8-1.1-2.5-1.6l0.6,0.3c-0.6-0.4-1-0.6-1.4-0.8
						c-0.4-0.2-0.7-0.4-1.1-0.5c-0.7-0.3-1.3-0.6-2.2-1.4l0.4,0.2c-4.6-3.3-9.3-7.7-11.7-11.4c-0.4-0.2-1.2-1.4-2-2.5
						c-0.8-1.1-1.5-2.2-1.8-2.2c-0.4-0.7-0.7-1.2-0.8-1.6c-0.2-0.4-0.3-0.7-0.5-1.1c-0.1-0.3-0.3-0.7-0.6-1.3
						c-0.3-0.5-0.7-1.3-1.1-2.3c-0.5-1.1-1.2-1.5-1.9-2.8l0.3-0.2l-1.1-1.8l-0.1-1.2c-0.2-0.4-0.4-0.9-0.6-1.3
						c0.2,0.5,0.3,1.2,0.2,1.1c-0.9-2-1.7-5.2-1.5-5.3c-0.6-1.7-1.2-3.3-1.7-5c0.2,0.1,0.4,0.9,0.7,1.6c-1-2.6,0.2-0.6-0.7-3
						c0,0.4-0.2-0.1-0.3-0.2c0-0.3-0.1-0.7-0.2-1.2c-0.1-0.5-0.2-1-0.3-1.6c-0.2-1.1-0.5-2.4-0.7-3.5l0.3,0.4
						c-0.6-3.9-1.3-8.2-1.5-12.6c0,1.6-0.4,1.2-0.5,0l0.3-0.5c-0.3-0.8,0,1.4-0.4-0.3c-0.1-1.7,0.3-1.1,0.5-0.2
						c-0.1-0.7-0.2-1.3-0.2-2c0.1-0.1,0.2,0.3,0.3,0.5c-0.2-0.8,0.2-3.5-0.1-4.6l0.1-0.1c0-2.2,0-3.8,0-5.3c0-1.5,0.1-2.9,0.2-4.7
						c-0.3-0.1-0.1-1.5-0.2-2.6c0.3-2.6,0.9-5.5,1.4-8.6c0.3-2.2-0.1-0.7-0.1-1.7c0.3-0.1,0.8-3.2,0.7-1.6c0.7-3.7,0.9-4.8,2-9.5
						c-0.2,0.5-0.4,1-0.4,0.7c0.2-0.9,0.6-1.9,0.7-1.7l0,0.2c0.3-1.3,0.7-2.7,1.2-4.1c0.5-1.4,1.1-2.8,1.7-4.2
						c1.2-2.7,2.4-5.3,3.1-7.4l-0.1,0.2l0.8-2.1c0.3-0.7,0.6-1.4,0.9-2.1c1-1.8-0.4,1.2,0.4-0.1c1.8-4.5,3.7-6.7,5.5-10.2
						c0.6-0.6,1.3-1.4,2-2.4c0.4-0.5,0.7-1,1.1-1.6c0.4-0.5,0.8-1.1,1.2-1.7c1.6-2.3,3.5-4.7,5-6.1l-0.3,0.1
						c0.6-0.9,0.9-0.9,1.5-1.4c-0.2,0-0.9,0.8-0.5,0.2c2.9-3.5,6.4-6.7,10.1-9.6c1.8-1.5,3.8-2.8,5.7-4.1c2-1.2,3.9-2.5,6-3.6
						c2.9-1.7,1.2-1.8,5.2-3.4l-0.9,0.8c5.9-3.5,12.8-5.5,19.3-7.3c-0.4,0.2-0.4,0.3-1,0.4c0.4,0,0.9-0.1,1.4-0.2
						c0.5-0.1,1.1-0.2,1.7-0.4c1.1-0.3,2-0.5,2-0.6c1-0.2,0.3,0.1,0.9,0.1c1.4-0.1,3.5-0.8,4.3-0.6c0.1,0-0.4,0.1-0.6,0.2
						c0.9-0.3,4.3-0.4,3.4-0.6c1.3,0,2.5-0.2,3.6-0.2c1.1,0,2.2-0.1,3.2,0c1.3-0.4,4.3,0.2,4.7-0.2c-0.2,0.4,4.4,0.6,6,0.6
						c-0.5,0.1,1.4,0.3,0.7,0.4c1.8,0.2,3.5,0.3,3.2,0c1.6,0.5,3.3,0.6,4.8,0.8c1.5,0.2,2.8,0.3,3.7,0.9c5.3,0.8,10.2,2.1,14.9,3.6
						c-0.3,0.4-5.1-1.7-5.1-1.1c4.4,1.2,7.1,1.7,11.3,3.6c1.1,0.5-0.7-0.1-1.1-0.2c4.3,1.6,8.1,3.7,11.7,5.6c0,0-0.4-0.2-0.8-0.3
						c0.7,0.4,1.6,1,1.6,0.8l-0.7-0.3c-0.5-0.5,0.3-0.2,1.2,0.2c0.9,0.4,2,0.9,2.1,0.9c-1.5-0.3,3.3,2.3,1.1,1.8
						c0.5,0.3,1.1,0.6,1,0.4c0.6,0.5,0.8,0.7,0,0.4c2.4,1.6,1.8,0.8,3.8,2.4c-0.1,0.1-0.5-0.2-0.8-0.3c1.1,0.7,2.4,1.3,4,2.8
						c-0.1,0,0,0.2-0.5-0.2c0.7,0.6,1.4,1.2,2.1,1.7c0.7,0.6,1.3,1.1,1.9,1.6c1.3,1.1,2.5,2.3,3.9,3.9c-0.6-0.3-0.4,0,0,0.4
						c0.3,0.4,0.8,1,0.7,1.2l1.5,1.6l-0.4-0.8c0.6,0.8,1.2,1.5,1.8,2.1c0.6,0.7,1.1,1.3,1.5,2.1c-0.3-0.4-0.6-0.7-1-1.1
						c0.8,1,1.4,2,2.1,3l-1-1.8c1.3,1.6,0.3-0.4,1.6,1.8c-0.2-0.2,0.1,0.2,0.5,0.8c0.3,0.6,0.7,1.4,0.9,1.9l0,0
						c0.6,0.8,1.2,1.6,1.8,3c0.1,0.4-0.5-0.1-0.5,0.2c0.3,0.4,0.9,1.4,1.4,2.4c0.5,1.1,1,2.2,1.4,2.7c-0.2-0.3-0.4-0.3-0.4-0.2
						l0.5,0.7c0.2,0.9,0.2,1,0,0.9c0.9,2.6,0.2-1,1,2.2c-0.1-0.2-0.1-0.1-0.3-0.6c1,3.1,1.9,6,2.4,9c-0.2,0.9-0.6-2.6-0.7-1.5
						c0.5,2.1,0.9,4.3,1.3,6.5c0.3,2.2,0.6,4.4,0.5,6.5l0-0.8c0.5,0.6-0.1,3.1,0,5.3c0-0.5-0.3-0.7-0.2-0.5c-0.2,2.9-0.3,5.9-1,10.2
						l0-0.6c-0.5,1.6-1.1,4.3-1.7,6c0,0.6-0.4,1.5,0,1c-2.5,5.1-3.5,10.2-6.5,14.4c0.3-0.5,0.5-1.3,0.3-0.9
						c-0.6,1.3-1.3,2.6-1.9,3.8c0.4-0.2,0.4-0.4,1-1.1c-0.1,0.5-0.6,1.7-1.2,2.6c0.8-1.8-0.3-0.2-0.9,0.5c0.1-0.1,0.1,0.2,0.2,0.2
						c-1.5,1.7,0.2,0.6-1.6,3.1l0-0.2c-0.5,1-0.9,2-1.6,3c-0.5,0.3,0.5-1.1,0.4-1.3c-0.9,1.5-1.4,3.2-2.4,4.4
						c0.3-0.7,0.9-1.6,1.2-2.2c-1.2,1.3-1.2,1.5-1.9,2.5l0.1-0.1l-1.7,2.4l0.5-0.6c-0.6,2.2-2.3,3.8-3.8,6.3c1.4-2.5,0.1-0.5,0-0.9
						c-0.5,0.5-1.3,1.3-1.2,1c-0.7,1.2-1.6,1.6-2.6,3.4c-0.1,0-1,1.1-0.9,0.8c-1.1,1.5,0.4-0.2,0.4,0c-0.8,1.2-1.8,2.4-2.9,3.9
						c-1.1,1.5-2.2,3.2-2.5,5.3c-0.4,1.8-0.2,2.9-0.1,3.9c0.1,0.5,0.2,1,0.4,1.5c0.2,0.5,0.3,1.2,0.6,1.9c0.2,1.1-0.6-0.8-0.6-0.8
						c0.3,1.8,0.8,3,1.5,4.5c-0.2-0.3-0.1,0.1,0,0.6c0.5,1.2,0.7,0.7,1.3,2.3c-0.2-0.2-0.5-0.5-0.9-1c0.7,1.4,1.6,2.7,2.5,4.1
						c0.1,0.5-0.7-0.7-1.1-1.2c0.9,1.6,2.5,4,3,4.4l-0.5-1c0.4,0.6,0,0.4-0.3,0c-1-1.2-1.1-2-1-2.1c0.2,0.3,0.4,0.7,0.6,1
						c-0.1-1.3-2.3-4-3.2-6.1c0.2,0.2,0.5,0.5,0.8,0.7c-0.4-0.7-0.8-1.4-1.3-2c-0.1-0.5,0-0.9,0.5,0.1c-0.4-1.6-0.7-1.3-0.9-2.7
						c0-0.2,0-0.1,0.1,0c-0.2-0.5-0.4-1-0.5-1.5c0.2,0.3,0.2-0.3,0.4,0.6c-0.1-0.7-0.2-1.3-0.4-1.9c-0.1-0.6-0.2-1.1-0.3-1.5
						c0-0.5-0.1-0.9-0.1-1.2c0-0.4,0.1-0.7,0.2-0.9l0,0.2c0.3-1.9,0.3-2,0.2-2c-0.1,0-0.3,0.1,0.1-1.4c0.5-0.5,1-1,1.6-1.5l-0.1-0.5
						c0.2-0.4,0.7-1,0.7-0.8c0.7-1.4-0.3,0.1,0.1-0.7c1.3-1.5,3.2-4.4,3.9-4.5c0.3-0.7-1.4,1.4-0.1-0.4c0.8-0.1,1.5-1.9,2.9-3.2
						c-0.1,0.6-1.4,1.8,0,0.6c0.4-1.1,2.3-2.7,3.1-4.1c-0.2-0.3,1.7-2.9,3-5.1c0,0.2,2.8-4,4.1-6l0,0.1c-0.1-0.6,1.2-2.7,2.1-4.3
						c0.2,0.2,0.1,0.5-0.3,1.4l0.8-1.5c0.1-0.4,0.3-0.9,0.8-1.9l0,0.5c0.5-1,1-2,1.5-3.2c0.5-1.1,1.1-2.3,1.7-3.6
						c-0.2-0.3-1.6,1.8-0.5-1.1c0.2,0,0.4-0.1,0.1,0.7c0.1-0.2,0.3-0.9,0.6-1.4c-0.1,0.4-0.2,0.8-0.3,1.2c0.7-1.2,0.1-0.7,0.6-1.7
						c0.2,0.1,0.4-0.7,0.5-0.5c-0.1,0.3-0.4,0.8-0.5,1.2c0.5-1.1,1.2-2.4,1.5-2.8c-0.2,0.1-0.2-0.1,0.1-0.9c0.8-2.1,0.5-0.6,1.1-1.8
						c0.1-0.6,0.7-1.9,0.4-2c0.2-0.6,0.4-0.7,0.5-0.9c0.3-1.1,1.5-5.3,0.8-4.1l-0.1,0.3c0-0.1,0-0.1,0-0.2c0,0,0,0,0,0l0,0
						c0.7-3.8,1.8-7.8,1.9-11.6l0.1,0c0-1.1,0.1-2.4,0-3.6c-0.1-1.2-0.1-2.3-0.2-3.1c0-0.7,0.1-1.6,0.2-1.3
						c-0.2-1.7-0.3-1.9-0.4-4.4c0.4,1.7,0.1-0.6,0.3,1.8c0-1.1-0.1-1.8-0.2-2.5c-0.1-0.7-0.2-1.4-0.5-2.6c0.2,0.4,0.2-0.1,0.1-0.7
						c-0.1-0.7-0.3-1.6-0.4-2.1l0.2,1.6c-0.3-1.2-0.5-2.2-0.7-3.3l0.4,0.5c-0.1-1.2-0.5-2.2-0.8-3.3c-0.2-0.5-0.3-1-0.5-1.5
						c-0.2-0.5-0.4-0.9-0.6-1.4c-0.4-0.9-0.7-1.8-1.1-2.6c-0.4-0.9-0.6-1.7-0.8-2.6c-0.7-1,0.8,2.4,0.2,1.5c-0.4-1-0.7-2.1-1-2.9
						c-0.3-0.9-0.5-1.6-0.7-1.9c-0.3-0.7-0.5-1.2-0.8-1.5c-0.3-0.4-0.5-0.6-0.7-0.9c-0.5-0.5-0.9-1.1-1.7-2.5c0.1,0.4,0,0.9-1.3-1
						c-1.1-1.8-1-2.5-0.2-1.4c0.3,0.4,0.4,0.7,0.3,0.7c0.4,0.6,1,1.3,0.6,0.5l-0.3-0.2c-0.2-0.5-0.8-1.3-1.2-2
						c-0.4-0.7-0.7-1.1-0.5-0.9c-1.1-1.2-0.6-0.4,0.1,0.6c-0.8-1.2-1.4-2-2-2.9c-0.7-0.8-1.4-1.7-2.3-2.8c0.2,0.4,0.4,0.8,0.1,0.5
						c-2.7-3.2-1.4-1.2-3.3-3.2c-1-1.2,0.7,0.1-1.4-1.8c-1.2-1.3,0-0.5,0.5-0.1c-2-1.7-3.5-3.4-4.6-4.4l1.1,0.8
						c-0.7-0.5-1.2-0.9-1.7-1.3l0.5,0.7c-0.6-0.5-1.1-0.9-1.1-1c-0.7-0.4,0.2,0.7-1.2-0.1c-0.7-0.8-2.7-1.8-2.8-2.3
						c2.7,2-0.1-0.5,2.2,1.1c-0.4-0.3-1-0.7-1.6-1.2c-0.1-0.1,0.1,0,0.3,0.1c-2.5-2.1-1.4-0.6-4.2-2.4c0.5,0.1-0.5-0.7-0.9-1
						c1.1,0.7,0.4,0.6-0.7,0.1c-1.8-1.2-2-1.1-3-1.6l1.1,0.7c-0.5,0-1.3-0.6-2.7-1.3c0-0.2,1.2,0.5,0.8,0.2
						c-1.6-0.5-3.1-2.1-5.3-2.8c-0.9-0.6,0-0.3-0.8-0.8c-2.4-0.9-2.5-1.3-5-2.2c0.6,0.5,0.8,0.5-1.1,0c1.4,0.4,2.8,1,4.2,1.5
						l-2.8-0.8c1.2,0.5,2.7,1,3.4,1.3c-1.3-0.4-1.2-0.3-0.7,0.1c-1.5-1-3.4-1.2-5.3-2.2l0.3-0.5c-0.7-0.3-1.4-0.6-2.1-0.9
						c-0.7-0.2-1.4-0.4-2.2-0.6c-1.5-0.4-3.1-0.8-5.1-1.4l1.2,0.5c-0.6,0.1-2.5-0.7-3.8-0.9c0.2-0.2-0.6-0.4-1.1-0.7
						c0,0.1-2.9-0.7-3.4-0.4l-1.8-0.6c-3.3-0.7-3.8-0.1-7-0.6c1-0.1-0.4-0.4,1.7-0.3c-1.1-0.1-2-0.3-2-0.2c-0.6-0.2-3-0.1-3.9-0.4
						c-0.5,0-0.6,0.2-1.8,0.1c-0.1,0,0-0.1,0-0.1c0,0.1-1.9,0-0.9,0.3c-0.8-0.2-1.8-0.3-2.8-0.4c-1.1-0.1-2.2-0.1-3.3-0.1
						c-2.2,0-4.4,0.1-5.9-0.2c-1.2,0.1-2.4,0.2-3.7,0.3c-0.6,0.1-1.2,0.1-1.8,0.2c-0.6,0.1-1.2,0.2-1.7,0.2c0.1-0.1,0-0.1,0.4-0.1
						c-1.5,0.1-1.9,0.3-2.4,0.5c-0.5,0.2-1,0.4-2.6,0.6c-1.7,0,1.7-0.5,0.6-0.4c-0.3-0.3-1.3-0.1-2.5,0.2c-0.6,0.1-1.3,0.3-1.9,0.4
						c-0.6,0.2-1.3,0.3-1.8,0.3l0.5-0.2c-0.9,0.1-1.9,0.4-3,0.8c-1.1,0.4-2.3,0.9-3.7,1.3c0,0,0.1-0.1,0-0.1c-0.9,0.4-2.1,1-3.5,1.6
						c-0.7,0.3-1.4,0.6-2.1,0.9c-0.7,0.3-1.3,0.6-1.9,0.9c0.7-0.6,1.1-0.6,0.5-0.6c-1.1,0.5,0.5,0.2-1.7,1.3
						c-0.8,0.2-2.4,0.8-2.7,0.7c0.7-0.3,1.3-0.7,2-1c-1.2,0.1-2.6,1.3-3.7,1.8l0.1-0.2c-1.6,0.8-2.2,1.4-3,1.9
						c-0.7,0.6-1.5,1.1-3.1,2.1l0.4-0.1c-1.5,1.4-1.5,0.8-3.1,2.1c-0.2,0-0.5,0-0.7,0c-1,0.9-3.6,3.1-5.4,4.7c0.4-0.5,1.2-1.3,2-2.1
						c0.8-0.7,1.7-1.5,2.4-2.1c-0.5,0.4-1.5,1.1-2.3,1.7c-0.8,0.7-1.5,1.3-1.7,1.6c0.4-0.4,0.9-0.9,1.3-1.2c-0.5,0.6-1.2,1.3-2,2.1
						c-0.4,0.4-0.8,0.8-1.3,1.1c-0.4,0.4-0.9,0.8-1.4,1.3c-0.1-0.4-1.4,0.7-2.9,2.1c-1.5,1.4-3.1,3.1-4,3.6c-3,3.6-6.2,7-9.3,11.6
						c1.6-1.3-0.9,1.3-0.2,1.4c-0.7,1.1-1,1.5-1.1,1.6l-2.3,3.1c-0.6,0.7,0.5-1.1,0.3-1.1c-1.5,2.4-0.9,0.9-1.9,2.4
						c0.4-0.2-0.2,1-1.1,2.4l1.3-1.8c-1.6,3.6-2.1,2.7-3.6,6.4l0.4-1.2c-0.2,0.5-0.5,1.1-0.9,1.9c-0.3,0.8-0.7,1.6-1.1,2.5
						c-0.8,1.7-1.3,3.5-1.5,4.5c-0.2,0.3-0.5,0.7-0.2-0.2c-1,2.2-1.7,4.8-2.5,7.3c-0.7,2.5-1.3,4.8-1.9,6.6l-0.1-0.4
						c-0.2,0.9-0.1,1.6-0.6,2.6c0-0.1-0.1-0.4-0.2,0c-0.1,0.5-0.3,2.4-0.6,3.6l0.1-1c-0.3,1.1-0.5,2.2-0.7,3.1
						c-0.1,1-0.2,1.8-0.3,2.7c-0.2,1.7-0.2,3.3-0.4,5.3c-0.2,0-0.5,0.9-0.7,2c-0.2,1.1-0.4,2.5-0.5,3.5l-0.1-0.1
						c-0.5,5.5-0.1,9.4,0.2,14.4c-0.1,0.8-0.2,1.9-0.1,3.1c0,1.2,0.1,2.6,0.2,4.1c0.2,2.9,0.6,6.1,0.9,8.6c0-0.8,0.4,0.1,0.5,1
						c0.1,1.2,0.9,3.2,0.5,3.1l-0.1-0.4c-0.2,1,0.3,3.4,0.8,5.2l0.6,0.2c0.1,0.6,0.2,1.3,0.3,2c0.2,0.7,0.4,1.4,0.6,2.1
						c0.2,0.7,0.4,1.5,0.7,2.2c0.3,0.7,0.6,1.4,0.8,2.1c0.3,0.7,0.5,1.4,0.8,2c0.3,0.6,0.5,1.2,0.8,1.8c0.5,1.1,0.8,2.1,1,2.8
						c0.7,1,1.3,2.4,2,3.4l-0.3,0.1c0.8,1.5,1.4,2.6,2.1,3.8c0.8,1.1,1.5,2.4,2.8,4.1l-0.7-0.6c0.7,0.9,1.3,1.4,1.9,1.9
						c0.6,0.4,1.2,0.9,1.9,1.7l0.1,0.8c1.3,1.6,2.7,3.1,4.1,4.6c1.5,1.4,3,2.8,4.8,3.9c-0.1,0-0.3,0-0.8-0.4c1.5,1.3,6,4.6,5.7,3.7
						c-0.1,0.2,0.8,0.7,2,1.3c0.6,0.3,1.2,0.7,1.9,0.9c0.7,0.3,1.3,0.5,1.8,0.7l-0.4,0.1c1.8,0.5,1.9,0.5,4.3,1.4
						c0.6,0.3,0.4,0.4-0.3,0c1.8,0.9,1.5,0.4,3.8,1.4l-0.9-0.1c2,0.7,1.9,0.6,3,0.8c1.3,0.3,3.8,1.2,4,1.5c0.3,0,1.5,0,2.7,0.4
						c0.1,0.1-0.3,0.1-0.5,0.1c1.7,0.5,3,0.7,4.2,0.8c1.2,0.1,2.2,0.3,3.4,0.6c0,0.1,0.2,0.2,0.4,0.2c-2.8-0.4-5-0.9-4.8-0.8
						c-0.1,0.3,2.2,0.7,0.3,0.7c0.9,0.1,2.2,0.1,3.4,0.2c1.3,0.1,2.6,0.1,3.7,0.3c0.1,0,0.2,0.1,0.3,0.1l-0.2,0
						c0.5,0.1,1,0.1,1.4,0.1c0.7,0.1,1.1,0.2,1.8,0.2c0.2,0.2,2.6,0.4,3.7,0.4c-0.1-0.3,1.4-0.2,0-0.5c0.2,0-0.2,0-1,0
						c-0.2,0-0.4,0-0.5,0c0,0,0,0,0.1,0c-0.7-0.1-1.7-0.1-2.8-0.2c0.9-0.1,1.8-0.1,3.1,0.1c0.6-0.2,1.2-0.3,1.6-0.4
						c1.5,0.4,4.5,0.7,4.9,0.9c3.4-0.2,8.1-0.4,10.2-1.1c1-0.2,1.1,0,1.5,0.1c-0.6,0.1-1.2,0.2-1.5,0.3c1-0.2,2.4-0.3,3.6-0.5
						c1.2-0.2,2.3-0.4,2.5-0.6c2.5-0.2-1.3,0.6,2,0l-0.4,0.2c3.4-0.3,6-1.2,8.6-2.3c2.6-1.1,5.2-2.3,8.7-3.6
						c-0.5,0.2-0.7,0.3-0.8,0.3c3.9-1.7,7.5-4.1,11.1-6.5c3.5-2.4,7-4.9,10.5-7.1c2-1.3,2-1.6,3.1-2.5l0.6,0c0.6-0.4,1.3-0.7,2-0.7
						c1.7,0,3.1,0.5,4.7,1c1.6,0.5,3.2,0.8,5.2,1.5l-0.4-0.4c1.4,0.5,4.4,2.1,4.1,2.2c0.2,0.1,0.6,0.1,1,0.5l0,0.2
						c1.2,0.6,2.4,1.1,3.6,1.6c1.4,0.6,1.3,0.7,1.3,0.8c0,0.1,0.1,0.2,0.4,0.3c0.3,0.2,1,0.4,2.1,0.5c0.9,0.1,2.1,0,3-0.3
						c0.9-0.2,1.5-0.4,1.2-0.4c-0.7,0.1-1.7,0.1-1.8-0.1c0.5,0,1-0.2,1.5-0.2c0.1-0.2,0.4-0.5,0.2-0.7c-0.1-0.1-0.3-0.2-0.7-0.2
						c-0.4,0-1,0-1.8-0.1c-0.4,0.1-0.8,0.1-1.2,0.1c-0.4,0-0.8,0-1.2,0c-0.2-0.1-0.5-0.2-0.7-0.4c0.6,0.1,1.3,0.3,1.9,0.3
						c-1.1-0.3-1.8-0.3-2.6-0.4c-0.1-0.2-0.4-0.3-0.8-0.6c-0.8-0.1-1.5-0.4-2.3-0.6c-0.2-0.3,1.1,0.2-0.3-0.7
						c-1.1-0.4,0.8,0.9-1,0.1c-0.9-0.8-0.5-0.8-1.9-1.3c-0.1-0.2,0.2-0.1,0.7,0.1c-1.2-0.5-3.1-1.6-3.8-1.7c-0.6-0.4-1.6-0.8-2.6-1
						c-0.5-0.1-0.9-0.2-1.2-0.3c-0.3-0.1-0.4-0.2-0.4-0.3c-0.4,0-2.2-0.1-3.4-0.3c1.1,0,0-0.3-1.3-0.5c-0.7-0.1-1.4-0.2-2-0.2
						c-0.6,0-1,0-0.8-0.2c-0.3,0.1-0.5,0.2-0.9,0.3c-0.3,0.2-0.7,0.3-1,0.5c-0.7,0.4-1.3,0.9-2,1.3c-1.3,1-2.7,2-3.7,2.9
						c0.1-0.1,0.3-0.4,0.5-0.5c-1.3,0.9-1.7,1-2.6,1.5c0.1,0.4-1.9,1.9-2.9,2.9c-1.8,0.8,0.7-1,0-1c0.3,0.2-2.6,2.1-1.9,2
						c-1.4,0.6-1.1,0.6-1.9,0.8c0.1,0.5-1.1,0.8-2,1.7c-1.9,0.9-0.7-0.1-2.6,1.2c-0.5,0.2-0.3,0-0.1-0.2
						C968.1,541.2,968.5,540.9,968.5,540.9z M915.6,551.4L915.6,551.4c0.5,0,0.9,0.1,1.1,0.1C916.5,551.5,916.2,551.4,915.6,551.4z
						 M911,550.7c0.6,0.1,1.2,0.2,2,0.4c0.1,0.1,0,0.2-0.5,0.1C912.8,551.1,911.7,550.9,911,550.7z M920.7,553.8
						c-0.8,0-1-0.1-1.1-0.2c0.4,0,0.8,0,1.3,0.1c0,0,0.1,0,0.1,0C920.9,553.7,920.8,553.8,920.7,553.8z"/>
					<path class="st26" d="M922,553.5c0.1,0,0.2,0,0.3,0c-0.2,0-0.3-0.1-0.4-0.1c-0.1,0-0.2,0-0.3,0.1
						C921.8,553.5,921.9,553.5,922,553.5z"/>
					<path class="st26" d="M1036.9,455.5L1036.9,455.5C1036.9,455.5,1036.9,455.6,1036.9,455.5
						C1036.9,455.5,1036.9,455.6,1036.9,455.5z"/>
					<polygon class="st26" points="862.3,513.8 862.3,513.8 862.5,514.2 					"/>
					<path class="st26" d="M1025.9,478.8c0,0-0.1,0.1-0.2,0.3C1025.6,479,1025.7,478.9,1025.9,478.8z"/>
					<path class="st26" d="M1020,488.3l-0.9,1.3C1019.5,489,1019.8,488.6,1020,488.3z"/>
					<path class="st26" d="M1015.1,495.2c0,0.1,0,0.2,0,0.2l0,0L1015.1,495.2z"/>
					<path class="st26" d="M1000.4,379.9c-0.1-0.1-0.2-0.1-0.3-0.2C999.4,379.4,999.9,379.6,1000.4,379.9z"/>
					<path class="st26" d="M1029.4,407c-0.3-0.3-0.5-0.7-0.8-1.1C1029,406.6,1029.2,407.1,1029.4,407z"/>
					<path class="st26" d="M957.8,367C957.8,367,957.8,367,957.8,367c-0.1,0-0.2,0-0.3,0L957.8,367z"/>
					<path class="st26" d="M1027.7,404.4c0.4,0.6,0.7,1.1,1,1.6C1028.4,405.5,1028,404.9,1027.7,404.4z"/>
					<path class="st26" d="M1010.6,528.9l0.2,0.4c0,0,0,0,0.1,0L1010.6,528.9z"/>
					<path class="st26" d="M1010.8,529.3l0.3,0.4C1011,529.5,1010.9,529.3,1010.8,529.3z"/>
					<path class="st26" d="M1011.7,530.4l-0.6-0.8C1011.3,529.9,1011.5,530.3,1011.7,530.4z"/>
					<path class="st26" d="M1005.7,518.4l-0.1-0.1C1005.7,518.4,1005.7,518.4,1005.7,518.4z"/>
					<path class="st26" d="M1004.9,515c0.1,0.9,0.2,2.2,0.6,3.3l0.1,0.1c-0.1-0.2-0.3-0.9-0.4-1.6
						C1005.1,516.1,1005,515.4,1004.9,515z"/>
					<path class="st26" d="M1011,502.1c-0.6,0.7-1.2,1.5-1.8,2.2c0.4-0.3,0.9-0.8,0.1,0.3C1011.7,501.9,1008.7,505.1,1011,502.1z"/>
					<path class="st26" d="M1016.8,495.3c-0.9,1.3,0.1,0.1,0.1,0.2C1017.5,494.6,1017.6,494.4,1016.8,495.3z"/>
					<path class="st26" d="M1038.9,435.3l0.3,0.1C1039,434.2,1039.1,435.4,1038.9,435.3z"/>
					<path class="st26" d="M1035.7,423.3c0.1,0.4,0.1,0.8,0.1,1.2l0.3,0.5C1036,424.4,1035.9,423.8,1035.7,423.3z"/>
					<path class="st26" d="M1035.2,415.7l0.2,0.5c-0.2-0.6-0.5-1.3-0.8-1.9C1034.8,414.8,1035.1,415.3,1035.2,415.7z"/>
					<path class="st26" d="M945.4,364l0.4,0.3C946.6,364.2,946.7,363.9,945.4,364z"/>
					<path class="st26" d="M900.5,377.4c-0.5,0.1-1.7,0.8-2.3,1.4C899.1,378.2,900,377.7,900.5,377.4z"/>
					<path class="st26" d="M855.7,503c-0.1-0.3-0.2-0.6-0.4-0.9c0.2,0.6,0.4,1.1,0.6,1.7L855.7,503z"/>
				</g>
			</g>
		</g>
	</g>
</g>
<rect x="875.9" y="402.9" class="st8" width="155.1" height="155.1"/>
<text transform="matrix(1 0 0 1 875.9463 423.1543)"><tspan x="0" y="0" class="st9 st10">Nu ved jeg </tspan><tspan x="0" y="36" class="st9 st10">hvad jeg skal </tspan><tspan x="0" y="72" class="st9 st10">vælge.</tspan></text>
<rect x="525.2" y="466.8" class="st8" width="152.1" height="25.2"/>
<text transform="matrix(1 0 0 1 525.2173 483.8374)" class="st9 st19">KEA Choices</text>
<path class="st11" d="M611.2,261c-4.4,1-8.8,2-13.2,2.8c2.2-0.1,4.5-0.3,6.7-0.6C606.9,262.7,609.2,262,611.2,261z"/>
<path class="st11" d="M679,89H510.2c-15.9,0-28.7,11.7-28.7,26.1v207.8c8.2,0.1,16.4,0.5,24.6,0.4c9.6-0.2,19.3-0.5,28.9,0.1
	c3.2,0.2,6.4,0.6,9.7,1.1c18.9-0.3,37.8-1,56.7-1.1c19.5-0.1,39-0.3,58.5-0.4c16-0.1,31.9,0.2,47.9,0.4V115.1
	C707.8,100.7,694.9,89,679,89z"/>
<path class="st12" d="M658.8,114H531.2c-15.9,0-28.7,11.7-28.7,26.1v183.2c1.2,0,2.5,0,3.7,0c9.6-0.2,19.3-0.5,28.9,0.1
	c3.2,0.2,6.4,0.6,9.7,1.1c18.9-0.3,37.8-1,56.7-1.1c19.5-0.1,39-0.3,58.5-0.4c9.2,0,18.5,0,27.7,0.1V140.2
	C687.6,125.7,674.7,114,658.8,114z"/>
<rect x="502.1" y="176.3" class="st13" width="93.2" height="48.7"/>
<rect x="595.3" y="176.3" class="st14" width="93.2" height="48.7"/>
<rect x="595.3" y="225" class="st15" width="93.2" height="48.7"/>
<rect x="502.1" y="225" class="st16" width="93.2" height="48.7"/>
<rect x="595.3" y="273.7" class="st17" width="93.2" height="48.7"/>
<rect x="502.1" y="273.7" class="st18" width="93.2" height="48.7"/>
<rect x="505.1" y="190.8" class="st8" width="90.2" height="27.5"/>
<text transform="matrix(1 0 0 1 505.0586 207.8447)" class="st9 st19">England</text>
<rect x="599.9" y="239.5" class="st8" width="83.5" height="18.2"/>
<text transform="matrix(1 0 0 1 599.9258 253.1328)" class="st9 st20">Brasilien</text>
<rect x="506.7" y="291.6" class="st8" width="83.5" height="18.2"/>
<text transform="matrix(1 0 0 1 506.7378 305.1841)" class="st9 st20">Norge</text>
<rect x="508.4" y="240.4" class="st8" width="83.5" height="18.2"/>
<text transform="matrix(1 0 0 1 508.417 253.9722)" class="st9 st20">Spanien</text>
<rect x="599.9" y="195" class="st8" width="83.5" height="18.2"/>
<text transform="matrix(1 0 0 1 599.9258 208.6372)" class="st9 st20">USA</text>
<rect x="599.9" y="291.6" class="st8" width="83.5" height="18.2"/>
<text transform="matrix(1 0 0 1 599.9258 305.1841)" class="st9 st20">Tyskland</text>
<rect x="536.2" y="134.8" class="st8" width="152.1" height="25.2"/>
<text transform="matrix(1 0 0 1 536.2173 151.8374)" class="st9 st19">KEA Choices</text>
<circle class="st3" cx="94.1" cy="474.2" r="18.9"/>
<circle class="st4" cx="101.4" cy="471.6" r="10.6"/>
<ellipse transform="matrix(0.7071 -0.7071 0.7071 0.7071 -299.3175 211.8403)" class="st5" cx="106.1" cy="467.2" rx="4" ry="4.3"/>
</svg>
