<svg id="Layer_1" data-name="Layer 1" xmlns="http://www.w3.org/2000/svg" viewBox="0 0 1191 628">
  <defs>
    <style>
      .cls-1 {
        fill: #f7b06b;
      }

      .cls-2 {
        fill: #f4f482;
      }

      .cls-3 {
        fill: #29abe2;
      }

      .cls-4 {
        fill: #f2f2f2;
      }

      .cls-4, .cls-5, .cls-6 {
        stroke: #000;
      }

      .cls-29, .cls-4, .cls-5, .cls-6 {
        stroke-miterlimit: 10;
      }

      .cls-30, .cls-6 {
        fill: #fff;
      }

      .cls-7 {
        fill: #fcb6fc;
      }

      .cls-8 {
        fill: #d2d2d2;
      }

      .cls-9 {
        font-size: 30px;
      }

      .cls-31, .cls-50, .cls-66, .cls-9 {
        font-family: KeplerStd-BoldScnDisp, Kepler Std;
        font-weight: 700;
      }

      .cls-10 {
        letter-spacing: -0.02em;
      }

      .cls-11 {
        letter-spacing: 0em;
      }

      .cls-12 {
        letter-spacing: 0.01em;
      }

      .cls-13 {
        letter-spacing: 0em;
      }

      .cls-14 {
        letter-spacing: 0.01em;
      }

      .cls-15 {
        letter-spacing: 0em;
      }

      .cls-16 {
        letter-spacing: 0em;
      }

      .cls-17 {
        letter-spacing: 0.01em;
      }

      .cls-18 {
        letter-spacing: 0.01em;
      }

      .cls-19 {
        letter-spacing: 0.01em;
      }

      .cls-20 {
        letter-spacing: 0.02em;
      }

      .cls-21 {
        letter-spacing: 0em;
      }

      .cls-22 {
        letter-spacing: 0.01em;
      }

      .cls-23 {
        letter-spacing: 0em;
      }

      .cls-24 {
        letter-spacing: 0em;
      }

      .cls-25 {
        letter-spacing: 0.02em;
      }

      .cls-26 {
        letter-spacing: -0.01em;
      }

      .cls-27 {
        letter-spacing: 0em;
      }

      .cls-28 {
        letter-spacing: 0em;
      }

      .cls-29 {
        stroke: #ccc;
      }

      .cls-31 {
        font-size: 25.19px;
      }

      .cls-32 {
        letter-spacing: 0.02em;
      }

      .cls-33 {
        letter-spacing: 0em;
      }

      .cls-34 {
        letter-spacing: -0.02em;
      }

      .cls-35 {
        letter-spacing: 0.03em;
      }

      .cls-36 {
        letter-spacing: 0.01em;
      }

      .cls-37 {
        letter-spacing: 0.01em;
      }

      .cls-38 {
        letter-spacing: 0em;
      }

      .cls-39 {
        fill: aqua;
      }

      .cls-40 {
        fill: #f0f;
      }

      .cls-41 {
        fill: #eae134;
      }

      .cls-42 {
        fill: #166610;
      }

      .cls-43 {
        fill: #b73786;
      }

      .cls-44 {
        fill: #d85025;
      }

      .cls-45 {
        letter-spacing: 0.01em;
      }

      .cls-46 {
        letter-spacing: 0.01em;
      }

      .cls-47 {
        letter-spacing: -0.01em;
      }

      .cls-48 {
        letter-spacing: 0.01em;
      }

      .cls-49 {
        letter-spacing: 0em;
      }

      .cls-50 {
        font-size: 20.15px;
      }

      .cls-51 {
        letter-spacing: 0.01em;
      }

      .cls-52 {
        letter-spacing: -0.07em;
      }

      .cls-53 {
        letter-spacing: 0.01em;
      }

      .cls-54 {
        letter-spacing: 0em;
      }

      .cls-55 {
        letter-spacing: 0.01em;
      }

      .cls-56 {
        letter-spacing: 0em;
      }

      .cls-57 {
        letter-spacing: 0em;
      }

      .cls-58 {
        letter-spacing: 0em;
      }

      .cls-59 {
        letter-spacing: -0.01em;
      }

      .cls-60 {
        letter-spacing: 0.01em;
      }

      .cls-61 {
        letter-spacing: 0.01em;
      }

      .cls-62 {
        letter-spacing: 0em;
      }

      .cls-63 {
        letter-spacing: 0.01em;
      }

      .cls-64 {
        letter-spacing: 0em;
      }

      .cls-65 {
        fill: red;
      }

      .cls-66 {
        font-size: 24px;
      }

      .cls-67 {
        letter-spacing: -0.02em;
      }

      .cls-68 {
        letter-spacing: 0em;
      }

      .cls-69 {
        letter-spacing: 0em;
      }

      .cls-70 {
        letter-spacing: 0.01em;
      }

      .cls-71 {
        letter-spacing: 0.02em;
      }

      .cls-72 {
        letter-spacing: -0.01em;
      }

      .cls-73 {
        letter-spacing: 0em;
      }

      .cls-74 {
        letter-spacing: -0.02em;
      }

      .cls-75 {
        letter-spacing: 0em;
      }

      .cls-76 {
        letter-spacing: 0em;
      }

      .cls-77 {
        letter-spacing: 0em;
      }

      .cls-78 {
        letter-spacing: 0em;
      }

      .cls-79 {
        letter-spacing: 0em;
      }

      .cls-80 {
        letter-spacing: 0.01em;
      }

      .cls-81 {
        letter-spacing: 0.01em;
      }

      .cls-82 {
        letter-spacing: 0em;
      }

      .cls-83 {
        letter-spacing: -0.03em;
      }

      .cls-84 {
        letter-spacing: -0.01em;
      }

      .cls-85 {
        letter-spacing: 0.01em;
      }

      .cls-86 {
        letter-spacing: 0.02em;
      }

      .cls-87 {
        letter-spacing: 0em;
      }

      .cls-88 {
        letter-spacing: 0em;
      }

      .cls-89 {
        letter-spacing: -0.02em;
      }

      .cls-90 {
        letter-spacing: 0em;
      }

      .cls-91 {
        letter-spacing: -0.01em;
      }

      .cls-92 {
        letter-spacing: -0.01em;
      }

      .cls-93 {
        letter-spacing: -0.04em;
      }

      .cls-94 {
        letter-spacing: 0.01em;
      }

      .cls-95 {
        letter-spacing: 0em;
      }

      .cls-96 {
        letter-spacing: 0em;
      }

      .cls-97 {
        fill: #eaad5c;
      }

      .cls-98 {
        fill: #b597ff;
      }

      .cls-99 {
        letter-spacing: 0em;
      }

      .cls-100 {
        letter-spacing: 0.01em;
      }

      .cls-101 {
        letter-spacing: 0em;
      }

      .cls-102 {
        letter-spacing: 0.01em;
      }

      .cls-103 {
        letter-spacing: 0.01em;
      }

      .cls-104 {
        letter-spacing: 0em;
      }

      .cls-105 {
        letter-spacing: 0em;
      }

      .cls-106 {
        letter-spacing: -0.04em;
      }

      .cls-107 {
        fill: #bea4ff;
      }

      .cls-108 {
        letter-spacing: 0em;
      }

      .cls-109 {
        letter-spacing: 0.01em;
      }

      .cls-110 {
        letter-spacing: -0.01em;
      }

      .cls-111 {
        letter-spacing: 0.01em;
      }
    </style>
  </defs>
  <title>keanetworkstoryboard</title>
  <rect class="cls-1" width="388" height="307"/>
  <rect class="cls-2" y="321" width="388" height="307"/>
  <rect class="cls-1" x="399" width="388" height="307"/>
  <rect class="cls-1" x="803" width="388" height="307"/>
  <rect class="cls-2" x="399" y="321" width="388" height="307"/>
  <rect class="cls-2" x="803" y="321" width="388" height="307"/>
  <g>
    <path class="cls-3" d="M26.93,307a9.67,9.67,0,0,0,.25,4.37c11.87,10.83,157.85,16.78,189.66,5,.49-27.85-18.71-61.65-38.16-80.26-8.62-8.25-32.83-17.83-38.46-26.6-6.26-9.76,3-14.93,8.28-25.21,13-25.34,8.06-57.59-18.27-73.29C109.68,98.76,57,104.95,49,130.35c-7.3,23.13,15,63.87,32.49,78C55.6,234.84,38.77,268.85,26.93,307Z" transform="translate(-10 -15)"/>
    <circle class="cls-4" cx="69.85" cy="132.85" r="18.85"/>
    <circle class="cls-5" cx="75.14" cy="126.24" r="10.58"/>
    <ellipse class="cls-6" cx="81.76" cy="125.91" rx="3.97" ry="4.3"/>
    <circle class="cls-4" cx="116.15" cy="134.17" r="18.85"/>
    <circle class="cls-5" cx="121.44" cy="127.56" r="10.58"/>
    <ellipse class="cls-6" cx="128.06" cy="127.23" rx="3.97" ry="4.3"/>
  </g>
  <g>
    <path class="cls-7" d="M173.15,160.54c32.85-9.15,10.61-22.14,4.65-46.43-3.31-13.52-10.59-42.2-4.7-56C185.93,28,287.06,42.95,319.22,36.87c51.94-9.82,89.83,114.27,73.37,164.07-8.31,25.13-7.18,51.06-16.94,75.35-5.68,14.12-58.9,7-71.74,6.17-54.68-3.73-121.19-96.28-135.52-117.65" transform="translate(-10 -15)"/>
    <g>
      <path class="cls-8" d="M168.94,164.44c-.31-.3-.34,0,.35.95l.74.5Z" transform="translate(-10 -15)"/>
      <path class="cls-8" d="M172.88,171.24c.91,1,2.06,2.15,1.8,1.26-1-.92-1.12-1.27-2.27-2.25-.7-.93-1.07-1.73-.86-1.64a18.24,18.24,0,0,0-1.49-1.93,19.93,19.93,0,0,0,3.06,4.51C173.29,171.57,173,171.28,172.88,171.24Z" transform="translate(-10 -15)"/>
      <path class="cls-8" d="M248.41,256.22l-.55-.49C248,255.87,248.19,256,248.41,256.22Z" transform="translate(-10 -15)"/>
      <path class="cls-8" d="M312.24,283.84a2.4,2.4,0,0,0-.79,0C311.95,283.86,312.36,283.88,312.24,283.84Z" transform="translate(-10 -15)"/>
      <path class="cls-8" d="M324.24,285.21l-.71-.07A3.19,3.19,0,0,0,324.24,285.21Z" transform="translate(-10 -15)"/>
      <path class="cls-8" d="M248.41,256.22l1.41,1.27C250,257.48,249.11,256.81,248.41,256.22Z" transform="translate(-10 -15)"/>
      <path class="cls-8" d="M182.74,183.48c-.25-.31-.47-.55-.68-.77l.61.75Z" transform="translate(-10 -15)"/>
      <path class="cls-8" d="M225.12,235.48l-.4-.41a4.44,4.44,0,0,0-.43-.25Z" transform="translate(-10 -15)"/>
      <path class="cls-8" d="M208.73,218a1.36,1.36,0,0,0,.91.44,4,4,0,0,1-.93-.75S208.67,217.86,208.73,218Z" transform="translate(-10 -15)"/>
      <path class="cls-8" d="M185.06,188.43l-.44-.51Z" transform="translate(-10 -15)"/>
      <path class="cls-8" d="M237.5,247.34a.49.49,0,0,0,.1.22S237.57,247.45,237.5,247.34Z" transform="translate(-10 -15)"/>
      <path class="cls-8" d="M191.35,142.82s0,0,0,0S191.39,143,191.35,142.82Z" transform="translate(-10 -15)"/>
      <path class="cls-8" d="M173.13,160.47l.36-.12a.3.3,0,0,0,0-.18Z" transform="translate(-10 -15)"/>
      <path class="cls-8" d="M346.38,286.35h-.1C345.69,286.39,346,286.38,346.38,286.35Z" transform="translate(-10 -15)"/>
      <path class="cls-8" d="M387.07,108.76c.46,2.27-1.45-3.47-.66-.08C386.42,108.33,387.79,111.54,387.07,108.76Z" transform="translate(-10 -15)"/>
      <path class="cls-8" d="M183.08,184l.59.78C183.41,184.41,183.23,184.17,183.08,184Z" transform="translate(-10 -15)"/>
      <path class="cls-8" d="M386.41,108.67h0l.08.35Z" transform="translate(-10 -15)"/>
      <path class="cls-8" d="M382.34,258.41a2.5,2.5,0,0,0-.24.48S382.19,258.77,382.34,258.41Z" transform="translate(-10 -15)"/>
      <path class="cls-8" d="M359.39,284.92l.94-.1C360,284.85,359.66,284.88,359.39,284.92Z" transform="translate(-10 -15)"/>
      <path class="cls-8" d="M385.48,238.92a10.1,10.1,0,0,0,.23-1.36,2.09,2.09,0,0,0-.07.2A5,5,0,0,1,385.48,238.92Z" transform="translate(-10 -15)"/>
      <path class="cls-8" d="M388.86,218.77l-.13.36-.11.64Z" transform="translate(-10 -15)"/>
      <path class="cls-8" d="M172.92,84a4.64,4.64,0,0,1-.13,1C172.95,84.64,173.39,87.58,172.92,84Z" transform="translate(-10 -15)"/>
      <path class="cls-8" d="M182.62,183.58a1.34,1.34,0,0,1,.46.41l-.42-.53C182.59,183.44,182.55,183.45,182.62,183.58Z" transform="translate(-10 -15)"/>
      <path class="cls-8" d="M383.42,237.76l.54-3.21C383.79,235.45,383.59,236.61,383.42,237.76Z" transform="translate(-10 -15)"/>
      <path class="cls-8" d="M287.81,39.67l-.75,0A4.27,4.27,0,0,0,287.81,39.67Z" transform="translate(-10 -15)"/>
      <path class="cls-8" d="M385.46,225c.19-.56.36-1.16.51-1.78a2.64,2.64,0,0,0,0-.39Z" transform="translate(-10 -15)"/>
      <path class="cls-8" d="M172.79,85h0Z" transform="translate(-10 -15)"/>
      <path class="cls-8" d="M177.44,105.77c-.69-3-.68-1.33-1-1.92-.91-3.57-.12-1.72-.2-3-.58-2.22-1.27-3.88-1.58-5.57,0-.14,0-.47.14-.1-.78-2.33-1.3-7.08-2-9.83a1.32,1.32,0,0,1,0-.38c-.13.48-.3.57-.45.5a12.23,12.23,0,0,1-.38-3.07,4,4,0,0,0,.33,1.29L172,82.27c.19-1.33.36,1.95.62,1.92-.25-1.39-.51-2.9-.71-4.33a26.64,26.64,0,0,1-.35-3.87c.16-.23.26,1,.33,2s.18,1.6.2.16l.18,3.33c.29-2.59.15,2,.5-.37-.17-2.18-.31-3.39-.4-4.61l-.16-1.94c0-.73,0-1.57,0-2.66-.2-1-.28.32-.47-.66a13.22,13.22,0,0,1,.58-5.27,11.34,11.34,0,0,0,.43-1.51,22.61,22.61,0,0,0,.42-2.42,7.44,7.44,0,0,1,.06-1.66,8.74,8.74,0,0,1,.3-1.19c.08-.24.17-.51.28-.81s.31-.59.51-.93l-.11,1.11c.43-.89.68-1.48.91-1.89s.29-.72.43-1a7.21,7.21,0,0,1,2.12-2.61,21.6,21.6,0,0,0-1.58,2,10.39,10.39,0,0,0,1.48-1.71,4.5,4.5,0,0,1,1.17-1.4l.56,0a38.57,38.57,0,0,1,12.46-6.75c-.23.18-1,.55.13.28,5.91-2.12,13.07-3.2,19.13-3.76l2.28-.57c.54-.06,1,0,.44.14,2.38-.14.1-.2,1.23-.44,1.35-.16,1.8,0,1,.16a101.8,101.8,0,0,1,16.38-1.34l-.86.12c3.46,0,3.88-.75,7.1-.57l-.61.07c7.52-.08,15.83-.36,21.57.11,1.09-.42,7.45.24,7.94-.34,4.3.33,3.06.43,9.12.69,1.62,0,2.42-.34,4.42-.39l0,.31,2.72-.3,1.44.38,1.88-.07c-.75,0-1.59-.15-1.48-.23a37.83,37.83,0,0,1,7.23.37q3.47-.15,6.95-.35a12.31,12.31,0,0,1-2.23.29c3.71-.39.68.32,4.08-.05-.46-.06.24-.19.32-.25a59.65,59.65,0,0,0,8.43-.31l-.53.25A77.1,77.1,0,0,0,318,38.5c1.45-.27,2.74-.5,4.1-.68l2-.16h2.07c-2-.11-1.54-.48.11-.5.21.11.43.25.64.37,1.07-.11-1.7-.27.49-.33,2.09.21,1.35.49.16.49a21.8,21.8,0,0,1,2.51.21c.13.12-.46.08-.63.17,1.08-.12,4.15,1.2,5.65,1.36l.1.13a45.17,45.17,0,0,1,6.09,2.74c.84.44,1.61.94,2.45,1.43s1.66,1.09,2.57,1.78c.23-.16,1.65.94,2.83,1.68a91.08,91.08,0,0,1,7.77,8.16c2,2.1.74.48,1.69,1.38,0,.32,2.51,3.53,1.05,2l1.93,2.5,1.55,2.11c1,1.41,2.13,3,3.88,5.57-.27-.63-.65-1.3-.36-1,.66.93,1.26,2.27,1.08,2.19l-.18-.24c4.05,5.82,7.08,14.62,9.76,19.54l-.15-.28c.87,1.74,1.69,3.5,2.51,5.26.95,2.51-.77-1.42-.19.48,2.7,5.69,3.44,9.3,5.3,14.13a77.69,77.69,0,0,0,2.36,9,80.78,80.78,0,0,1,2.43,10l.1-.34a9.76,9.76,0,0,1,.46,2.68c.1-.17-.17-1.51.11-.69a176.42,176.42,0,0,1,4.48,36.17c.08,4.41,1,2.49.61,8.07-.1-.53-.2-1.06-.32-1.58a94.47,94.47,0,0,1-3,26.6,7.09,7.09,0,0,1,.21-1.37c-.33.87-.85,2.41-1.24,3.89a12.24,12.24,0,0,0-.58,2.75c-.43,1.32-.26.26-.61,1-.62,1.79-.95,4.65-1.39,5.56-.07.16,0-.53.11-.87-.17,1.22-1.32,5.56-.79,4.48-.83,3.23-1.16,6.26-1.78,8.84,0,1.75-1.09,5.58-.75,6.19-.41-.31-1.27,5.68-1.37,7.78,0-.71-.42,1.77-.48.94-.36,2.36-.63,4.52-.33,4.15-1.22,4.24-1.06,8.76-2.22,11a119.12,119.12,0,0,1-4.68,19.29c-.09-.09,0-.55.22-1.18s.43-1.46.68-2.26c.51-1.6,1-3.16.69-3.1-.79,2.88-1.35,5.19-2.11,7.41l-.55,1.69c-.1.28-.19.58-.29.84a5.42,5.42,0,0,1-.35.73,7.54,7.54,0,0,1-2.59,2.61c-1.25.73.61-.59.86-1a17.8,17.8,0,0,1-7.42,3.5c-2.67.7-5.35,1.11-8,1.53a6.78,6.78,0,0,1,1.11-.25c-1,.15-2.42.2-2.29.39l1-.16c.85.05-.17.34-1.43.59s-2.77.47-2.86.56c1.75-.67-5.29.12-2.48-.76-.69.07-1.55.19-1.39.32-1,0-1.36-.08-.32-.27-3.77.2-2.43.39-5.85.39,0-.1.7-.14,1.06-.25a33.55,33.55,0,0,1-6.37.2c.18-.05-.16-.14.71-.12-5-.12-8.5.18-13.95-.4,1.64-.31-1.84-.28-2.1-.67l-2.94-.12,1.16.28c-2.57-.21-4.86-.15-7.06-.47l1.92,0-4.82-.37,2.71.39c-2.62,0,.24.5-3.17.08.7,0-2.57-.24-3.89-.58h0c-.64,0-1.29,0-2,0a23.29,23.29,0,0,1-2.46-.29c-.47-.18.44-.36.13-.48a8.65,8.65,0,0,1-1.49,0,14.28,14.28,0,0,1-2.15-.27,27.44,27.44,0,0,0-3.88-.59c.54,0,.61-.15.45-.23-.36,0-.72,0-1.08,0-1.12-.42-1.27-.5-1-.6-3.4-1.06,1,.78-3-.62.33.07.18,0,.86.15A82.13,82.13,0,0,1,279,274.89c-.89-.81,3.16,1.32,2.08.49-1.28-.58-2.63-1.07-3.92-1.72l-3.92-1.88c-1.31-.63-2.55-1.37-3.8-2.05s-2.46-1.39-3.59-2.17l.84.59c-.91,0-3.31-2.39-5.72-3.76.58.36.89.27.71.21-1.51-1.11-3.09-2.18-4.9-3.37s-3.75-2.6-6-4.29l.63.34c-1.63-1.5-4.52-3.67-6.28-5.29-.63-.36-1.65-1.26-1.15-.57a99,99,0,0,0-7.85-7.14,62.15,62.15,0,0,1-7.18-6.94c.56.55,1.41,1.22,1,.78l-4.05-3.82c.14.48.41.62,1.12,1.57a20.58,20.58,0,0,1-2.75-2.43c1.86,1.69.25-.28-.42-1.14.08.18-.24,0-.23.08-1.74-2.37-.69,0-3.24-3.08l.23.07c-1.07-1-2.13-1.93-3.2-3.12-.26-.67,1.18,1.07,1.41,1-1.57-1.62-3.42-2.9-4.59-4.59.7.66,1.63,1.67,2.33,2.33a25.24,25.24,0,0,0-2.58-3.24l.1.12c-.82-1-1.65-1.93-2.45-2.92l.58.78c-2.38-1.65-3.93-4.19-6.74-6.78,2.74,2.52.59.3,1,.32-.57-.79-1.46-2-1.12-1.7-1.36-1.2-1.8-2.4-3.7-4.11,0-.15-1.23-1.48-.78-1.32-1.56-1.74.22.53,0,.46-2.57-2.54-5.07-6.77-8.65-10.53-2.9-3.39-3.68-3.83-6.33-7-.73-1.2,1,.69,1,.69a55.22,55.22,0,0,0-3.68-4.84c.33.29.12-.1-.18-.69-1-1.35-1-.7-2.2-2.59a10.1,10.1,0,0,1,1.33,1.14c-1.26-1.57-2.6-3-3.89-4.68-.19-.55.94.87,1.47,1.39a56.31,56.31,0,0,0-4.32-5.25l.79,1.28c-.51-.69-.07-.49.34,0a5.66,5.66,0,0,1,1.61,2.54l-.92-1.16c.43,1.57,3.58,4.76,5.35,7.16l-1.08-.75,2.12,2.24c.31.59.39,1.08-.55-.06,1.13,1.83,1.25,1.43,2.19,3,.1.18,0,.12-.1,0l1.37,1.58c-.32-.27,0,.46-.76-.6,2.09,3.13,4,4.59,4.58,5.9l-.21-.23c3.34,4,.55.21,3.26,3l1.06,2.52.56.21c.33.42,1,1.26.77,1.19,1.43,1.42-.11-.35.78.43,1.41,2.19,4.64,5.41,4.65,6.17.77.56-1.45-2,.45,0,.1.95,2.12,2.39,3.49,4.33-.68-.37-2-2.16-.67-.21,1.28.78,2.93,3.56,4.33,5,.34-.17,3,3.16,5.34,5.53a27.77,27.77,0,0,0,2.22,2.66l4,4.45-.11,0c.67.19,2.88,2.52,4.57,4.15-.22.09-.58-.15-1.53-1l1.54,1.57a17,17,0,0,1,2,1.7l-.59-.19c2.1,2,4.42,3.92,7.05,6.62.33,0-1.69-2.57,1.32,0,0,.2,0,.48-.84-.2a13.61,13.61,0,0,1,1.42,1.26l-1.32-.92c1.18,1.25.79.47,1.77,1.43-.15.13.66.78.41.77-.28-.22-.83-.86-1.26-1.17a34.15,34.15,0,0,1,2.78,2.94c0-.17.18-.2,1,.54,2.19,1.95.59.85,1.79,2.07.63.36,2,1.68,2.19,1.49a3.58,3.58,0,0,1,.88,1c1.21.92,5.49,4.48,4.36,3.16l-.29-.26.2.15h0c1,.72,2,1.5,3,2.3l3,2.38a75.55,75.55,0,0,0,6.12,4.53l-.06.08c1.22.82,2.61,1.7,3.92,2.5s2.52,1.56,3.47,2c.75.44,1.68,1.19,1.3,1.1l2.21,1.18,2.81,1.64c-2.09-.91.6.53-2.11-1a36.91,36.91,0,0,0,6,3.12c-1.09-.22,1.88,1.2,3.19,1.7l-1.8-1c1.45.61,2.69,1.19,4,1.79h-.82a30.13,30.13,0,0,0,4,1.63l1.92.64c.64.18,1.28.31,1.89.46,1.24.3,2.43.58,3.58.92a25.09,25.09,0,0,1,3.39,1c1.61.1-3.18-.84-1.72-.81,1.35.3,2.71.74,3.85,1.07s2.09.49,2.52.54a13,13,0,0,0,3.69.22,17.39,17.39,0,0,1,3.78.13c-.49-.16-.94-.52,2-.36,2.73.3,3.32.8,1.58.74-.66-.05-1-.12-.94-.15-.89,0-2.05-.1-1,.13l.37-.09c1.35.25,5.12.58,4.21.69,2.08.07.9-.11-.63-.31,3.5.49,5.49.49,9.11.88-.57-.11-1.09-.29-.52-.24,5.31.53,2.36-.05,6,.13,2,.3-.76.4,2.88.44,2.21.23.46.34-.43.39,3.33-.05,6.19.41,8.1.5l-1.75.05c1,0,1.91,0,2.78,0l-1-.26a7.54,7.54,0,0,1,1.88.17c1.06-.14-.81-.4,1.3-.6,1.37.14,4.17-.14,4.65.15-4.32,0,.48.32-3.17.4.71,0,1.56,0,2.6,0,.16,0-.15.07-.43.09,4.15.18,1.89-.37,6.18-.57-.53.21,1,.28,1.71.18-1.73.11-.84-.23.72-.49a27.65,27.65,0,0,0,4.4-.56l-1.64.14a35.47,35.47,0,0,1,3.78-.74c.19.11-1.71.37-1,.32,2-.64,4.83-.49,7.66-1.67,1.36-.37.24.28,1.44-.1,1.56-.77,2.41-1.2,3.29-1.67a8,8,0,0,0,3-2.72c-.43.41-.69.61-.63.47a10.85,10.85,0,0,0,1-1.93A10.42,10.42,0,0,1,372,281.5a12.15,12.15,0,0,0,2.85-2.71,12.63,12.63,0,0,1-3.89,3,7.22,7.22,0,0,0,1.14-.82c0-.07-.19.05-.61.16a7.41,7.41,0,0,0,3-2.16,9.4,9.4,0,0,0,1.11-1.62c.18-.29.3-.61.45-.92s.26-.61.4-.92l.52.29a33.82,33.82,0,0,0,1.95-5.56l.84-3c.27-1.08.59-2.24,1-3.52l-.56,1.63c0-.75.86-3.19,1.14-4.9.15.2.48-.83.77-1.52-.13.06.84-3.82.55-4.37.25-.76.5-1.52.72-2.28.9-4.21.33-4.93,1.08-9,0,1.26.46-.57.15,2.19a9.93,9.93,0,0,0,.33-2.62c.25-.78.34-3.82.72-5a7.63,7.63,0,0,1,.08-2.33c.07-.16.1,0,.1,0s.24-2.41-.18-1.11c1.24-4.09,1.84-11.71,3.09-15.22.5-3,1.23-6.49,1.88-9.12,0,.18.09,0-.06.52a9.6,9.6,0,0,0,.61-3,9.73,9.73,0,0,1,.79-3.39c.95-2-.5,2.21,0,.95.4-.19.75-1.42,1.16-2.94s.91-3.36,1.43-4.72l-.14.69c.83-2.1,1-5.35,1.63-8.92,0,0,0,.18.09,0,.06-2.5.43-7.16.49-10.64.21,1.09,0,1.58.35.94,0-1.56-.43.43-.37-2.67.19-1,.33-3.24.62-3.54l0,2.94c.39-1.5.07-3.8.1-5.35l.16.2c-.11-4.51-.5-4.55-.75-9.37l-.09.51c-.56-2.6.08-2.22-.43-4.82l.33-.83c-.25-1.73-1-6-1.51-9.1a75.81,75.81,0,0,1,1.52,7.55,50.4,50.4,0,0,0-1-6.7,14.4,14.4,0,0,1,.36,2.23,80.11,80.11,0,0,1-1.62-8.19c.42.24.11-2-.33-4.57a57,57,0,0,1-1-6.83c-1.57-5.89-2.61-11.8-4.7-18.59.16,2.58-.62-2-1.08-1.38a21.1,21.1,0,0,1-.72-2.32c-.38-1.63-.8-3.24-1.23-4.86-.21-1.18.63,1.44.71,1.26-1.12-3.45-.24-1.52-.89-3.84-.05.54-.7-1.09-1.36-3,.26.94.5,1.88.74,2.83-2-4.63-1-4.29-3.22-8.92l.78,1.43c-.54-1.2-1.45-3.44-2.47-5.63a36.23,36.23,0,0,0-2.88-5.39c-.14-.45-.26-1.07.29-.05-1.31-2.85-3-5.89-4.7-8.75s-3.37-5.5-4.57-7.63l.38.32a26.39,26.39,0,0,1-2-2.86c.09,0,.39.31.09-.15s-2-2.41-2.83-3.72c.32.32.61.65.91,1-.84-1.29-1.69-2.35-2.46-3.33s-1.57-1.82-2.34-2.63c-1.56-1.61-3.08-3.07-4.94-4.85.36-.33-3.06-3.79-5-5.35h.11a39.21,39.21,0,0,0-8.21-5.2,40.18,40.18,0,0,0-8.84-3,24.56,24.56,0,0,0-9.43-1.14l-1.47.1c-.49.06-1,.14-1.47.2-1,.14-1.92.3-2.83.44-1.83.27-3.64.42-5.25.51,1,0-.13.36-1.27.5-1.52,0-4.18.58-4,.16l.54,0c-1.17-.32-4.28-.08-6.73,0l-.39.54c-6.42-.59-16.82.38-20.33-.34-1.55.12-3.47.1-5,.21l.09-.28c-4.3-.12-6.45-.18-11.77-.15l1.09-.19c-3,0-3.79.79-6.56.8l-.83-.43c-5.23,0-10.54-.35-15.72.14.08-.06.24-.19,1.08-.22-2.47,0-9.56,0-8.64.53-.08-.38-5.41.18-8.23.54l.42-.3a37.52,37.52,0,0,1-5.75,1c-.79,0-.71-.17.34-.18-2.64.07-2,.43-5.22.6l1.17-.3a14.84,14.84,0,0,0-3.94.71,26.64,26.64,0,0,1-5.55.43,12.47,12.47,0,0,1-3.36.85c-.23-.06.33-.22.62-.29-4.52.61-6.57,1.63-9.66,2.18a.83.83,0,0,0-.55,0c3.5-1,6.37-1.52,6.1-1.45-.05-.26-2.93.33-.72-.52-2.28.68-6.07,2.08-8.82,2.91a3,3,0,0,1-.39,0l.27-.12a13.63,13.63,0,0,0-1.7.66c-.88.27-1.43.49-2.25.81a7.39,7.39,0,0,0-1.9.71c-.9.45-1.91,1-2.56,1.37.24.18-1.46,1.11.23.41-.21.11.22-.19,1.08-.65.19-.11.43-.23.55-.31l-.08.07c.86-.46,2-1,3.32-1.55a29.1,29.1,0,0,1-3.59,1.79c-.6.49-1.21,1.1-1.57,1.39a19.39,19.39,0,0,0-3.39,1.73l-1.46,1a5.53,5.53,0,0,1-.83.55A18.66,18.66,0,0,0,172.12,58l-.54,1.75-.24.83c-.06.27-.09.54-.13.8A18,18,0,0,0,171,64a4.8,4.8,0,0,1-.47,1.9c0-.74.15-1.61.13-2-.29,2.56-.62,7.55-.15,8.15-.14,3.19-.36-1.79-.25,2.6-.05-.2-.08-.39-.12-.59a48,48,0,0,0,1.14,11.38c.71,3.55,1.49,7.18,2.07,11.92a5,5,0,0,1-.09-1.13c.88,5.35,2.23,10.78,3.61,16.16A92.2,92.2,0,0,0,182.24,128a22.39,22.39,0,0,0,2.61,4.54l0,.72,1.74,2.66a24.86,24.86,0,0,1,2.34,5.77l.39,1.52c.09.52.24,1.05.32,1.6a15.77,15.77,0,0,1,.26,3.6,3.5,3.5,0,0,0,.27-.66,8.13,8.13,0,0,1-1.08,3.56,10.42,10.42,0,0,1-.92,1.27c-.28.26-.45.39-.43.29a2.42,2.42,0,0,1-.95,1l-.15-.08a20.86,20.86,0,0,1-4,2.86c-1.77.76-1.69.55-1.82.45s-.43-.09-3,.87c-1.91.78-5.53,2.2-4.75,2.1a6.63,6.63,0,0,1,2.21-.39l-1.82.63c-.2.54-1.53,1.45,3.17.37,1-.47,2.07-.87,3.07-1.39l1.09-.19c-.88.35-1.75.73-2.65,1a7.63,7.63,0,0,0,2-.65c.54-.26,1-.51,1.52-.81a4.65,4.65,0,0,0,1.4-.38c.48-.29.94-.64,1.39-1a14.42,14.42,0,0,0,1.33-1.05c.45-.08-1.09,1.16.89,0,.61-.53.23-.4,0-.33s-.23,0-.17,0,.29-.27.78-.73a14.74,14.74,0,0,0,1.27-.78,3.59,3.59,0,0,0,.45-.42,4.42,4.42,0,0,0,.67-.9c.25-.18.11.28-.42.89a13.17,13.17,0,0,0,1.72-2.75,13.46,13.46,0,0,0,.47-1.47,5.67,5.67,0,0,0,.07-1.06,6.8,6.8,0,0,0,.24-1.7,13.55,13.55,0,0,0-.18-2c-.09-.62-.2-1.17-.28-1.55s-.06-.63.06-.61l-.8-1.76-1.14-2.39c.79,1.2.26-.16-.47-1.69s-1.58-3.27-1.16-3.07c-1.36-1.63-3.58-6.47-5.27-9.63a3.82,3.82,0,0,1,.46.79,28.71,28.71,0,0,1-1.28-3.68c-.46-.09-1.69-3-2.37-4.54-.37-2.46.88,1.29,1,.44-.12.11-.55-.88-.87-1.8s-.62-1.76-.64-1.33a9,9,0,0,1-.21-2.66c-.56-.21-.5-1.71-1.17-3.18-.4-2.75.28-.8-.56-3.72C176.66,103.18,177.44,105.77,177.44,105.77Zm14.31-60.63h0c-.58.2-1.08.36-1.39.49C190.64,45.52,191,45.38,191.74,45.14Zm5.8-1.64c-.72.15-1.6.4-2.54.64-.23,0,0-.19.55-.34C195.26,44,196.64,43.63,197.54,43.51Zm-12.85,2.31a4.11,4.11,0,0,1,1.35-.54l-1.56.75-.09.08A1,1,0,0,1,184.69,45.82Z" transform="translate(-10 -15)"/>
      <path class="cls-8" d="M183.27,46.95l-.35.2.55-.21.27-.24Z" transform="translate(-10 -15)"/>
      <path class="cls-8" d="M247.76,255.64l.1.09a1.9,1.9,0,0,1-.18-.2A1.42,1.42,0,0,1,247.76,255.64Z" transform="translate(-10 -15)"/>
      <polygon class="cls-8" points="271.03 24.77 271.02 24.7 270.49 24.75 271.03 24.77"/>
      <path class="cls-8" d="M223.77,232.28a1.81,1.81,0,0,0-.26-.36A2.34,2.34,0,0,0,223.77,232.28Z" transform="translate(-10 -15)"/>
      <path class="cls-8" d="M213.9,221.73l-1.3-1.58C213.15,220.84,213.57,221.33,213.9,221.73Z" transform="translate(-10 -15)"/>
      <path class="cls-8" d="M206.63,213.33a.51.51,0,0,0-.23-.09v0Z" transform="translate(-10 -15)"/>
      <path class="cls-8" d="M358.39,283.15l.42-.06C359.78,282.89,359.12,283,358.39,283.15Z" transform="translate(-10 -15)"/>
      <path class="cls-8" d="M306,282.2c.56,0,1.12,0,1.7,0C306.81,282.11,306.08,282,306,282.2Z" transform="translate(-10 -15)"/>
      <path class="cls-8" d="M383.36,238.11h0l.06-.36Z" transform="translate(-10 -15)"/>
      <path class="cls-8" d="M310.18,282.44a20.61,20.61,0,0,0-2.44-.23C308.51,282.3,309.41,282.42,310.18,282.44Z" transform="translate(-10 -15)"/>
      <path class="cls-8" d="M176.9,175.48l-.3-.44s0,0-.07,0Z" transform="translate(-10 -15)"/>
      <path class="cls-8" d="M176.52,175l-.37-.46A2.7,2.7,0,0,0,176.52,175Z" transform="translate(-10 -15)"/>
      <path class="cls-8" d="M175.37,173.57l.78,1A5.83,5.83,0,0,0,175.37,173.57Z" transform="translate(-10 -15)"/>
      <path class="cls-8" d="M185.55,187.37l.18.07C185.66,187.38,185.6,187.36,185.55,187.37Z" transform="translate(-10 -15)"/>
      <path class="cls-8" d="M188.3,190.9c-.63-.86-1.46-2.25-2.41-3.39l-.15-.06C186.28,187.91,187.54,190.2,188.3,190.9Z" transform="translate(-10 -15)"/>
      <path class="cls-8" d="M199,206.25l-2.32-3c.33.58.77,1.34-.34,0C199.09,207.2,195.91,202.43,199,206.25Z" transform="translate(-10 -15)"/>
      <path class="cls-8" d="M206.42,215.22c-1.36-1.49-.1.12-.22.08C207.12,216.2,207.34,216.42,206.42,215.22Z" transform="translate(-10 -15)"/>
      <path class="cls-8" d="M269.15,270.93l-.31.12C270.21,271.81,268.91,271,269.15,270.93Z" transform="translate(-10 -15)"/>
      <path class="cls-8" d="M284.09,276.9c-.45-.22-.9-.44-1.33-.71l-.74-.08C282.7,276.4,283.38,276.68,284.09,276.9Z" transform="translate(-10 -15)"/>
      <path class="cls-8" d="M292.54,281.65l-.67-.16,1.27.33c.43.09.87.16,1.3.24A17,17,0,0,1,292.54,281.65Z" transform="translate(-10 -15)"/>
      <path class="cls-8" d="M388.43,222.38l-.39.4C387.9,223.83,388.21,224.1,388.43,222.38Z" transform="translate(-10 -15)"/>
      <path class="cls-8" d="M396.91,162.25a11.38,11.38,0,0,0-.14-3.45C396.87,160.18,396.81,161.56,396.91,162.25Z" transform="translate(-10 -15)"/>
      <polygon class="cls-8" points="287.18 22.23 288.4 22.1 286.1 22.22 287.18 22.23"/>
    </g>
  </g>
  <text class="cls-9" transform="translate(199.95 57.15)"><tspan class="cls-10">H</tspan><tspan class="cls-11" x="17.34" y="0">v</tspan><tspan x="28.98" y="0">or </tspan><tspan class="cls-12" x="57.42" y="0">k</tspan><tspan class="cls-13" x="71.04" y="0">a</tspan><tspan x="83.79" y="0">n j</tspan><tspan class="cls-14" x="109.8" y="0">e</tspan><tspan x="121.8" y="0">g </tspan><tspan class="cls-15" x="0" y="36">fi</tspan><tspan class="cls-14" x="14.61" y="36">nd</tspan><tspan x="43.65" y="36">e </tspan><tspan class="cls-15" x="59.79" y="36">e</tspan><tspan x="71.58" y="36">n </tspan><tspan x="0" y="72">f</tspan><tspan class="cls-14" x="7.71" y="72">o</tspan><tspan class="cls-16" x="21.57" y="72">k</tspan><tspan class="cls-17" x="34.62" y="72">u</tspan><tspan class="cls-18" x="49.05" y="72">s</tspan><tspan class="cls-19" x="59.31" y="72">g</tspan><tspan class="cls-20" x="72.15" y="72">r</tspan><tspan class="cls-15" x="83.16" y="72">u</tspan><tspan class="cls-21" x="97.35" y="72">p</tspan><tspan class="cls-22" x="111.42" y="72">p</tspan><tspan x="126" y="72">e </tspan><tspan x="0" y="108">t</tspan><tspan class="cls-23" x="8.49" y="108">i</tspan><tspan x="16.02" y="108">l </tspan><tspan class="cls-15" x="27.48" y="108">m</tspan><tspan class="cls-24" x="48.99" y="108">i</tspan><tspan x="56.43" y="108">t</tspan><tspan x="0" y="144" xml:space="preserve"> K</tspan><tspan class="cls-25" x="20.94" y="144">E</tspan><tspan class="cls-26" x="35.97" y="144">A</tspan><tspan x="50.97" y="144">-</tspan><tspan class="cls-21" x="59.43" y="144">p</tspan><tspan class="cls-13" x="73.5" y="144">r</tspan><tspan class="cls-27" x="83.97" y="144">o</tspan><tspan x="97.77" y="144">j</tspan><tspan class="cls-28" x="104.97" y="144">e</tspan><tspan class="cls-15" x="116.88" y="144">k</tspan><tspan x="130.05" y="144">t?</tspan></text>
  <g>
    <path class="cls-29" d="M605.16,259c-4.37,1-8.76,2-13.17,2.81,2.24-.15,4.47-.34,6.71-.56A26.82,26.82,0,0,0,605.16,259Z" transform="translate(-10 -15)"/>
    <path class="cls-29" d="M673,87H504.24c-15.87,0-28.74,11.69-28.74,26.12v207.8c8.21.14,16.41.5,24.63.36,9.63-.16,19.27-.49,28.89.07,3.22.18,6.45.63,9.68,1.09,18.88-.3,37.75-1,56.66-1.11,19.5-.08,39-.3,58.5-.4,16-.08,31.92.23,47.88.37V113.12C701.75,98.69,688.89,87,673,87Z" transform="translate(-10 -15)"/>
    <path class="cls-30" d="M652.81,112H525.18c-15.87,0-28.74,11.69-28.74,26.12V321.31q1.85,0,3.7,0c9.63-.16,19.27-.49,28.89.07,3.21.18,6.43.63,9.65,1.08,18.89-.3,37.78-1,56.69-1.1,19.5-.08,39-.3,58.5-.4,9.23,0,18.46,0,27.68.15V138.15C681.55,123.73,668.68,112,652.81,112Z" transform="translate(-10 -15)"/>
    <text class="cls-31" transform="translate(506.22 136.84)">K<tspan class="cls-32" x="13.95" y="0">E</tspan><tspan x="26.57" y="0">A </tspan><tspan class="cls-33" x="43.04" y="0">N</tspan><tspan class="cls-34" x="56.69" y="0">E</tspan><tspan class="cls-35" x="68.38" y="0">T</tspan><tspan class="cls-36" x="81.42" y="0">W</tspan><tspan class="cls-37" x="100.72" y="0">O</tspan><tspan class="cls-38" x="115.6" y="0">R</tspan><tspan x="129.02" y="0">K</tspan></text>
    <rect class="cls-39" x="486.07" y="159.31" width="93.19" height="48.69"/>
    <rect class="cls-40" x="579.26" y="159.31" width="93.19" height="48.69"/>
    <rect class="cls-41" x="579.26" y="208" width="93.19" height="48.69"/>
    <rect class="cls-42" x="486.07" y="208" width="93.19" height="48.69"/>
    <rect class="cls-43" x="579.26" y="256.7" width="93.19" height="48.69"/>
    <rect class="cls-44" x="486.07" y="256.7" width="93.19" height="48.69"/>
    <text class="cls-31" transform="translate(489.06 190.84)"><tspan class="cls-45">D</tspan><tspan class="cls-46" x="14.91" y="0">e</tspan><tspan class="cls-47" x="25.16" y="0">s</tspan><tspan class="cls-36" x="33.35" y="0">i</tspan><tspan class="cls-48" x="39.77" y="0">g</tspan><tspan class="cls-36" x="50.55" y="0">n</tspan><tspan class="cls-49" x="62.94" y="0">e</tspan><tspan x="72.84" y="0">r</tspan></text>
    <text class="cls-50" transform="translate(583.93 236.13)"><tspan class="cls-51">I</tspan><tspan class="cls-52" x="5.96" y="0">T</tspan><tspan x="14.55" y="0">-</tspan><tspan class="cls-53" x="20.23" y="0">u</tspan><tspan class="cls-54" x="29.9" y="0">d</tspan><tspan class="cls-55" x="39.35" y="0">v</tspan><tspan class="cls-56" x="47.29" y="0">i</tspan><tspan class="cls-57" x="52.35" y="0">k</tspan><tspan class="cls-53" x="61.27" y="0">l</tspan><tspan class="cls-58" x="66.19" y="0">e</tspan><tspan x="74.11" y="0">r</tspan></text>
    <text class="cls-50" transform="translate(490.74 288.18)">G<tspan class="cls-56" x="11.55" y="0">u</tspan><tspan class="cls-55" x="21.2" y="0">ld</tspan><tspan class="cls-59" x="35.96" y="0">s</tspan><tspan class="cls-60" x="42.55" y="0">m</tspan><tspan class="cls-56" x="57.2" y="0">e</tspan><tspan x="65.24" y="0">d</tspan></text>
    <text class="cls-50" transform="translate(492.42 236.97)"><tspan class="cls-61">V</tspan><tspan class="cls-46" x="10.26" y="0">V</tspan><tspan x="20.65" y="0">S</tspan></text>
    <text class="cls-50" transform="translate(583.93 191.64)"><tspan class="cls-55">D</tspan><tspan class="cls-62" x="11.99" y="0">r</tspan><tspan x="19.08" y="0">i</tspan><tspan class="cls-53" x="24.04" y="0">f</tspan><tspan x="29.34" y="0">t</tspan></text>
    <text class="cls-50" transform="translate(583.93 288.18)"><tspan class="cls-63">O</tspan><tspan class="cls-58" x="11.99" y="0">p</tspan><tspan class="cls-64" x="21.5" y="0">t</tspan><tspan x="27.22" y="0">o</tspan><tspan class="cls-60" x="36.41" y="0">m</tspan><tspan class="cls-58" x="51.06" y="0">e</tspan><tspan class="cls-62" x="58.97" y="0">r</tspan><tspan x="66.07" y="0">i</tspan></text>
  </g>
  <path class="cls-3" d="M1178.71,307a9.67,9.67,0,0,1-.25,4.37c-11.87,10.83-157.85,16.78-189.66,5-.49-27.85,18.71-61.65,38.16-80.26,8.62-8.25,32.83-17.83,38.46-26.6,6.26-9.76-3-14.93-8.28-25.21-13-25.34-8.06-57.59,18.27-73.29,20.55-12.26,73.27-6.07,81.28,19.33,7.3,23.13-15,63.87-32.49,78C1150,234.84,1166.86,268.85,1178.71,307Z" transform="translate(-10 -15)"/>
  <circle class="cls-4" cx="1115.79" cy="132.85" r="18.85"/>
  <circle class="cls-5" cx="1110.5" cy="139.24" r="10.58"/>
  <ellipse class="cls-6" cx="1103.88" cy="140.91" rx="3.97" ry="4.3"/>
  <circle class="cls-4" cx="1069.49" cy="134.17" r="18.85"/>
  <circle class="cls-5" cx="1064.2" cy="140.56" r="10.58"/>
  <ellipse class="cls-6" cx="1057.58" cy="141.23" rx="3.97" ry="4.3"/>
  <g>
    <path class="cls-7" d="M1039.08,170c-28-5.47-20.6-33.23-23.46-53.8-1.54-11-6.92-20.46-9.54-31.18-2.67-10.91-1.58-21.14-7.83-31.27C977.34,19.91,894,32.72,860.93,38.31c-47.39,8-7.24,123.31-5,154.34,1.62,22.35-1.74,51.9,5.61,73.1,8.11,23.39,56.19,41.7,79.16,30,25.35-12.88,15.68-52.18,16.64-74.49,1.52-35.46,53.5-36,80.22-48.24" transform="translate(-10 -15)"/>
    <g>
      <path class="cls-8" d="M1037.84,173.66c.34-.25.05-.32-1,.16l-.62.63Z" transform="translate(-10 -15)"/>
      <path class="cls-8" d="M1030.44,175.92c-1.21.61-2.61,1.33-1.68,1.36,1.17-.71,1.51-.71,2.74-1.54,1.07-.41,1.91-.61,1.77-.41a14.58,14.58,0,0,0,2.18-1,25.46,25.46,0,0,0-5,1.84C1030,176.23,1030.37,176,1030.44,175.92Z" transform="translate(-10 -15)"/>
      <path class="cls-8" d="M957.44,240.6v-.72C957.43,240.07,957.43,240.32,957.44,240.6Z" transform="translate(-10 -15)"/>
      <path class="cls-8" d="M933.29,297.7a1.88,1.88,0,0,0,.72-.25C933.56,297.6,933.17,297.7,933.29,297.7Z" transform="translate(-10 -15)"/>
      <path class="cls-8" d="M921.73,298.35l.68,0A3,3,0,0,0,921.73,298.35Z" transform="translate(-10 -15)"/>
      <path class="cls-8" d="M957.44,240.6v1.85C957.55,242.57,957.46,241.5,957.44,240.6Z" transform="translate(-10 -15)"/>
      <path class="cls-8" d="M1015.91,181.11c.37-.12.67-.23.95-.35l-.9.28Z" transform="translate(-10 -15)"/>
      <path class="cls-8" d="M959.08,210.16l.22-.53c0-.17,0-.34.06-.5Z" transform="translate(-10 -15)"/>
      <path class="cls-8" d="M975.38,193.32a1.33,1.33,0,0,0-.6.81,3.85,3.85,0,0,1,.91-.75C975.67,193.32,975.58,193.3,975.38,193.32Z" transform="translate(-10 -15)"/>
      <path class="cls-8" d="M1010.55,181.37l.63-.21Z" transform="translate(-10 -15)"/>
      <path class="cls-8" d="M956.5,226.87a.47.47,0,0,0-.1.22S956.47,227,956.5,226.87Z" transform="translate(-10 -15)"/>
      <path class="cls-8" d="M1020.47,153.27s0,0,0,0S1020.53,153.44,1020.47,153.27Z" transform="translate(-10 -15)"/>
      <path class="cls-8" d="M1039.06,170.1l-.37-.07a.3.3,0,0,0-.11.14Z" transform="translate(-10 -15)"/>
      <path class="cls-8" d="M900.92,294.31l.09,0C901.55,294.49,901.25,294.4,900.92,294.31Z" transform="translate(-10 -15)"/>
      <path class="cls-8" d="M842.94,119.81c.12,2.25-.92-3.55-.64-.17C842.36,119.32,843.25,122.6,842.94,119.81Z" transform="translate(-10 -15)"/>
      <path class="cls-8" d="M1015.32,181.23l-.93.25C1014.82,181.38,1015.1,181.3,1015.32,181.23Z" transform="translate(-10 -15)"/>
      <path class="cls-8" d="M842.3,119.65h0l0,.35Z" transform="translate(-10 -15)"/>
      <path class="cls-8" d="M863,266.15a2.14,2.14,0,0,0,.07.49S863.07,266.5,863,266.15Z" transform="translate(-10 -15)"/>
      <path class="cls-8" d="M889.06,290.25l-.8-.43C888.57,290,888.83,290.14,889.06,290.25Z" transform="translate(-10 -15)"/>
      <path class="cls-8" d="M858.52,247.74a9.56,9.56,0,0,0-.12-1.34,2,2,0,0,0,0,.21A4.78,4.78,0,0,1,858.52,247.74Z" transform="translate(-10 -15)"/>
      <path class="cls-8" d="M857.36,227.82l-.05.37,0,.63Z" transform="translate(-10 -15)"/>
      <path class="cls-8" d="M1010,93.74a4.72,4.72,0,0,1,.07,1C1010.17,94.33,1011.24,97.06,1010,93.74Z" transform="translate(-10 -15)"/>
      <path class="cls-8" d="M1015.86,181a1.29,1.29,0,0,1-.54.27l.64-.19C1016,181,1016,180.95,1015.86,181Z" transform="translate(-10 -15)"/>
      <path class="cls-8" d="M856.23,247.18l-.29-3.2C856,244.87,856.11,246,856.23,247.18Z" transform="translate(-10 -15)"/>
      <path class="cls-8" d="M903,31.47l.73-.1A3.88,3.88,0,0,0,903,31.47Z" transform="translate(-10 -15)"/>
      <path class="cls-8" d="M855.32,234.48a16.39,16.39,0,0,0,.14-1.81,2.54,2.54,0,0,0-.08-.37Z" transform="translate(-10 -15)"/>
      <path class="cls-8" d="M1010.09,94.7s0,0,0,0S1010.09,94.69,1010.09,94.7Z" transform="translate(-10 -15)"/>
      <path class="cls-8" d="M1017,114.75c-.55-3.08-.63-1.37-1-2-.91-3.57-.12-1.72-.22-3-.7-2.21-1.55-3.78-2.08-5.4,0-.14-.07-.46.13-.12-1-2.2-2.44-6.71-3.74-9.18a1.27,1.27,0,0,1,0-.37c0,.49-.17.62-.33.57-.47-1.27-1.07-2.29-1-2.85a3.7,3.7,0,0,0,.59,1.16l-.57-1.3c-.09-1.32.75,1.79,1,1.7a54,54,0,0,1-2.76-7.61c.16-.5,1.51,4.7,1,1.92.27,1.05.56,2.1.87,3.15-.3-2.53.61,1.89.41-.46-.63-2-1-3.17-1.37-4.3a32.38,32.38,0,0,1-1.08-4.35c-.37-.9-.21.37-.58-.54a15.58,15.58,0,0,1-.59-5.21,11.19,11.19,0,0,0-.39-4.05,12.86,12.86,0,0,1-1.17-4.76l.57,1a12.27,12.27,0,0,0-.85-3.27c-.11-.3-.23-.6-.38-1.11s-.28-1.21-.55-2.31c.41.72,1,3.23.86,2.59a6,6,0,0,0-.6-2.33,8.29,8.29,0,0,1-.77-1.75l.17-.55a31.41,31.41,0,0,0-3.21-6.45c-.68-1-1.48-2-2.22-3s-1.71-1.87-2.55-2.82c.26.14.92.72.2-.24A55.18,55.18,0,0,0,978.2,36.77c-.76-.22-1.52-.39-2.3-.54-.51-.18-.91-.45-.33-.31-2.22-.87-.18.14-1.3-.12-1.29-.42-1.64-.74-.8-.54-2-.49-5-1.19-7.91-1.75-1.47-.33-3-.56-4.34-.83l-3.74-.74.86,0c-3.38-.61-3.9,0-7-.56h.61c-7.37-.94-15.56-.91-21.2-1.32-1.07.39-7.33-.09-7.79.53a89,89,0,0,0-9-.18c-1.59.06-2.34.53-4.29.72l-.07-.3c-.88.17-1.76.34-2.63.53l-1.44-.25-1.83.23c.73,0,1.57,0,1.46.11a37.16,37.16,0,0,1-7.09.29c-2.25.34-4.49.65-6.73,1a11.61,11.61,0,0,1,2.15-.5c-3.57.74-.69-.25-4,.43.45,0-.22.21-.28.28a69.43,69.43,0,0,0-8.17,1l.5-.28c-5,.63-10.51,1.63-16.1,2.54,2-.23,1.62.21,0,.51l-.71-.21c-1,.37,1.73-.16-.4.44-2.09.31-1.46-.13-.28-.44l-2.51.54c-.16-.07.42-.22.55-.37a27.45,27.45,0,0,1-2.83.49l-.91.15-.87.24a5.93,5.93,0,0,0-1.4.56l-.18,0a21.48,21.48,0,0,0-6.31,3.49,24.15,24.15,0,0,0-4.45,4.53c.14.23-1,1.71-1.55,3A35.64,35.64,0,0,0,839,59.67c-.57,2.87,0,.88-.11,2.2a7.52,7.52,0,0,0-.63,1.9c-.18.77-.3,1.26-.21.18-.41,2.45-.6,4-.75,5.77s-.26,3.65-.28,6.77c.14-.67.22-1.43.29-1,0,1.13-.2,2.56-.32,2.4l0-.3c.14,7-.4,16.17.74,21.65l-.06-.31c.28,1.9.59,3.8.91,5.69.28,2.63-.39-1.55-.3.41,1.2,6.1,1.27,9.72,2.38,14.72-.12,4,2.52,13.79,3.13,19.09l.11-.34a10.3,10.3,0,0,1,.4,2.65c.11-.17-.14-1.5.12-.68,2.54,11.38,4.87,23.57,7.12,35.26.8,4.27,1.41,2.24,2,7.71l-.6-1.47A70.38,70.38,0,0,1,854.8,195c.25,4.44.31,8.88.51,13.18a5.23,5.23,0,0,1-.18-1.37,31.43,31.43,0,0,0,.22,6.76c0,1.34-.18.31-.27,1.14-.14,1.83.32,4.59.08,5.56,0,.17-.08-.51-.1-.85.12,1.19,0,5.56.27,4.41-.1,3.25.2,6.21.13,8.8.33,1.68.1,5.57.55,6.09-.48-.21,0,5.73.48,7.76-.21-.67,0,1.8-.23,1,.25,2.35.7,4.48.85,4,0,.55,0,1.09.09,1.63s.16,1.07.26,1.59c.2,1,.43,2.06.67,3a20,20,0,0,1,1,4.81l.86,2.49c.15.41.27.82.44,1.23l.53,1.21a21.08,21.08,0,0,0,1.17,2.32A23.74,23.74,0,0,0,863.5,272a43.27,43.27,0,0,0,6.4,7.34c-.26.11-1.5-1.14-2.68-2.38s-2.17-2.55-2.26-2.32c.46.62,1,1.12,1.44,1.64a18.45,18.45,0,0,0,1.39,1.43l1.35,1.28,1.37,1.16c1.81,1.54,3.68,3,6.07,4.74,1.24.92-.84-.32-1.29-.6,2.49,1.69,4.9,3.32,7.36,4.69,1.2.73,2.46,1.33,3.66,2s2.45,1.17,3.7,1.64a5,5,0,0,1-1.08-.36c1,.43,2.21,1.05,2.18.82l-1-.36c-.7-.47.31-.19,1.53.19a22.84,22.84,0,0,0,2.77.77c-.93-.06.26.48,1.35.94s2.05.88.6.75c.66.2,1.51.4,1.41.22.95.38,1.24.54.2.37,3.62,1,2.39.47,5.66,1.39,0,.09-.71-.06-1.08,0,1.71.29,3.42.55,6.21,1.22-.18,0,.13.17-.71,0,4.85,1,8.36,1,13.74,1.37-1.61.39,1.84.2,2.13.52,1,0,2-.11,2.93-.23l-1.18-.1a66.87,66.87,0,0,0,7-1c-.61.16-1.23.37-1.85.5a40.14,40.14,0,0,0,4.7-1.09c-.89.19-1.78.41-2.68.51,1.25-.33,1.15-.47,1.16-.55s.13-.16,1.78-.55c-.64.25,2.43-.72,3.72-1.13h0c1.13-.6,2.2-1.33,3.86-2.22.47-.18-.11.57.2.46.42-.52,1.72-1.29,2.86-2.35l.88-.76c.27-.27.52-.54.76-.79a7.66,7.66,0,0,0,1.06-1.31c-.28.46-.18.59,0,.5.18-.31.33-.65.5-1,.83-.85,1-1,1-.72,2.15-2.88-1,.67,1.58-2.7a3.92,3.92,0,0,1-.4.78c2.5-3.5,3.68-7.36,4.84-11,.7-1-.87,3.3-.2,2.13,1.66-5.45,2.05-11.48,2.38-16.86l-.09,1c-.49-.77.47-4,.21-6.75,0,.67.29.88.23.7a122.86,122.86,0,0,0-.65-13.13l.17.68c0-2.18-.23-5.72-.29-8.06-.17-.69-.22-2-.37-1.2.21-3.63,0-7-.12-10.38a23.79,23.79,0,0,1,1.24-9.53c-.25.71-.31,1.76-.2,1.18.18-.87.45-1.72.67-2.58s.61-1.67.91-2.51c-.37.3-.39.59-1,1.58a13.39,13.39,0,0,1,.42-1.48c.1-.3.21-.63.34-.95l.47-.92c-1,2.23.35.14.94-.71-.14.12,0-.23-.15-.19.87-1.12.9-1.23.91-1.53a1.54,1.54,0,0,1,.22-.64,6.28,6.28,0,0,1,1.17-1.52l0,.23c.44-.58.82-1.16,1.26-1.73s.95-1.09,1.51-1.64c.64-.27-1,1.2-.9,1.42.76-.79,1.39-1.67,2.15-2.41.37-.38.74-.76,1.12-1.1a8.55,8.55,0,0,1,1.25-.87c-.34.32-.8.66-1.22,1s-.83.78-1.15,1.11c1.81-1.21,2-1.37,3.28-2.3l-.13.09c1-.73,2.09-1.31,3.12-2l-.83.45c1.93-2.08,4.7-3,7.88-4.95-3.09,1.92-.43.48-.56.87.89-.33,2.23-.84,1.89-.59,1.51-.9,2.74-1,4.92-2.18.13,0,1.75-.65,1.47-.28,2.12-.83-.56,0-.43-.16,3.19-1.53,7.93-2.29,12.66-4.11,4.15-1.36,4.85-1.89,8.73-3.1,1.36-.2-1,.63-1,.63a46.31,46.31,0,0,0,5.75-1.54c-.39.19.05.15.69.09,1.61-.46,1-.63,3.15-1.08a9.32,9.32,0,0,1-1.51.82c1.88-.61,3.71-1.3,5.64-2,.57,0-1.11.59-1.77.9,2.19-.7,5.67-1.83,6.26-2.31l-1.44.35c.8-.26.48.1-.1.32a5.24,5.24,0,0,1-2.88.66l1.38-.47c-1.59-.12-5.58,1.71-8.42,2.43l1.07-.72-2.8,1.12c-.64.06-1.13-.05.25-.48-2.08.34-1.75.62-3.55.87-.2,0-.12,0,.05-.09l-1.95.65c.36-.19-.41-.2.83-.46-3.61.72-5.64,1.85-7.06,1.93l.29-.11c-4.87,1.53-.4.42-4,1.83-.9,0-1.79,0-2.68,0l-.39.44c-.51.14-1.51.43-1.36.26-1.8.81.36,0-.66.56-2.51.49-6.55,2.4-7.25,2.18-.77.54,2.33-.71-.14.42-.92-.22-2.88,1.23-5.08,2,.52-.57,2.62-1.28.38-.58a9.73,9.73,0,0,1-2.7,1.41,28.46,28.46,0,0,0-3.13,1.49c0,.18-.85.75-2.12,1.5a40.26,40.26,0,0,0-4.06,2.89c0-.06-.28.14-.79.5s-1.16,1-1.92,1.58-1.5,1.44-2.25,2.15-1.33,1.53-1.86,2.1V204a10.14,10.14,0,0,1-1.13,2.16c-.15.25-.32.5-.48.77l-.43.84-.83,1.65c-.16-.17,0-.58.47-1.75-.33.66-.73,1.28-1,2a16.18,16.18,0,0,1-.78,2.52c0-.21,0-.4-.06-.61a42.48,42.48,0,0,0-1.74,9.47c.26.2.93-2.87.84,1-.14.14-.38.28-.41-.75a13.45,13.45,0,0,1,0,1.87l-.19-1.57c-.15,1.68.16.89.12,2.23-.2,0-.14,1-.3.8,0-.34.08-1.17,0-1.69a38.62,38.62,0,0,1-.3,4c.11-.13.27,0,.31,1.11.11,2.87-.21,1-.25,2.67.17.69.1,2.53.4,2.56a3.43,3.43,0,0,1-.15,1.33c.2,1.48.41,6.91.63,5.23v-.38l0,.24h0c.56,4.83.35,10.07.48,14.87h-.1c.14,2.87,0,6.37,0,8.43-.06.85-.33,2-.42,1.61a27.55,27.55,0,0,1-.68,5.54c.16-2.19-.25.72.2-2.24-.24,1.4-.42,2.24-.61,3.11-.09.44-.17.88-.24,1.41s-.2,1.12-.3,1.87c0-.53-.19,0-.44.76s-.54,1.86-.74,2.5c.29-.59.49-1.22.74-1.83a30.49,30.49,0,0,1-1.3,3.94c0-.26,0-.53-.06-.79-1.18,2.6-2.18,4.92-3.37,7a15.15,15.15,0,0,1-4.44,5c-.5.55.14.13.72-.41s1.21-1.06.83-.49a15.17,15.17,0,0,1-1.48,1.29c-.53.37-1,.71-1.5,1-1,.57-1.77.93-2.09,1.17-.77.44-1.35.73-1.79,1s-.79.55-1.15.77a10.37,10.37,0,0,1-3.27,1.53c.24,0,.5,0,.37.16a4.94,4.94,0,0,1-2,.9,5.91,5.91,0,0,1-2.43.28c-.29-.08-.06-.26.75-.47.62-.13.91-.2.9-.15.81-.26,1.87-.6.83-.46l-.3.2c-1.27.3-4.84.87-4,.54-2,.36-.81.32.65.16-1.68.16-3,.34-4.32.41a35.52,35.52,0,0,1-4.43.09c.55.08,1.07.19.51.21-5.13-.3-2.27.17-5.77,0-2-.4.75-.34-2.76-.61-2.11-.43-.4-.35.45-.36a35.44,35.44,0,0,1-7.61-1.59c.55.11,1.1.19,1.66.27a23.87,23.87,0,0,1-2.6-.54l.88.46a6.68,6.68,0,0,1-1.72-.56c-1-.1.66.59-1.36.27-.62-.24-1.6-.47-2.47-.72a5.24,5.24,0,0,1-1.78-.74c3.93,1.36-.35-.41,3,.55a16.64,16.64,0,0,1-2.38-.73c-.13-.08.15,0,.42,0a9.56,9.56,0,0,0-2.78-.85,8.81,8.81,0,0,1-2.93-.79c.55,0-.76-.67-1.4-.88,1.53.62.63.57-.84.13-2.36-1.2-2.68-1-3.92-1.67.47.25.93.51,1.4.73a18.39,18.39,0,0,1-3.44-1.42c-.08-.19,1.55.65,1,.31-2-.62-4-2.41-6.5-3.71-1-.81.07-.35-.86-1a14.5,14.5,0,0,1-2.75-1.86c-.7-.54-1.35-1.16-2.73-2.09.63.75.76.86-1.2-.45,1.45,1.13,2.94,2.19,4.49,3.18L876.9,283l-1.51-.94c1.3,1,2.93,1.95,3.72,2.56-1.49-.8-1.32-.76-.78-.13a23.64,23.64,0,0,0-2.76-2.08,16.73,16.73,0,0,1-2.9-2.32l.45-.39c-1.39-1.39-2.69-2.54-4-3.86-.68-.66-1.32-1.4-2-2.18l-1-1.32-.52-.72-.47-.8a14.39,14.39,0,0,0,.81,1.41,5.8,5.8,0,0,1-1.21-1.63c-.5-.76-.92-1.69-1.34-2.4.24.05-.17-.89-.28-1.58a6.74,6.74,0,0,1-.75-1.71,6.59,6.59,0,0,0-1-2.13c-.15-.75-.29-1.51-.37-2.28-.89-4-1.62-4.5-2.23-8.48.4,1.16.21-.65.84,2a13,13,0,0,0-.51-2.51c0-.79-.8-3.64-.7-4.89a7.25,7.25,0,0,1-.51-2.22c0-.17.1,0,.1,0s-.32-2.34-.44-1c.23-4.17-.7-11.56-.22-15.19-.12-2.93-.21-6.47-.23-9.14.06.17.1,0,.08.51.18-3.68-.57-2.26-.38-6.45.31-2.14.18,2.23.3.89.65-.58-.1-5.06.25-7.89l0,.68c.19-2.16-.31-5.27-.41-8.8,0,0,.06.17.1,0-.43-2.4-.75-7-1.38-10.33.39,1,.34,1.52.51.84-.25-1.51-.33.49-.86-2.5,0-1-.27-3.18-.05-3.51l.5,2.83c.12-1.51-.64-3.66-.86-5.16l.19.16c-.88-4.31-1.28-4.29-2.22-8.91v.5c-.91-2.44-.23-2.16-1.05-4.61l.22-.84c-.45-1.64-1.64-5.73-2.36-8.69.65,1.62,1.56,5.07,2.2,7.19a63.47,63.47,0,0,0-1.63-6.4,16.46,16.46,0,0,1,.54,2.14,55.66,55.66,0,0,1-2.18-7.85c.87.42-1.66-8.59-1.56-11.09-1.48-5.75-2.23-11.55-3.47-18.33-.16,2.51-.37-2-.89-1.46a17.12,17.12,0,0,1-.39-2.33l-.41-4.87c0-1.17.37,1.49.48,1.32-.49-3.48,0-1.5-.16-3.82-.14.5-.49-1.16-.68-3.16l.12,2.83c-1-4.82-.1-4.27-1-9.14l.38,1.53c-.45-2.5-1-9.29-1.64-11.73,0-.45.16-1.05.29.05-.41-6-1.08-13.45-.49-18.13l.13.46a15.68,15.68,0,0,1,.09-3.36c.06.08.12.46.16-.05a27.22,27.22,0,0,1,.33-4.45v1.28L841,61.23a35.07,35.07,0,0,1,1.6-6.37c.22.1.74-.93,1.46-2.14.35-.61.72-1.29,1.14-1.9l.56-.9.54-.75v.1a25.08,25.08,0,0,1,6-6.32,21.41,21.41,0,0,1,7.66-3.52c3.9-.28,13.28-2,19.62-2.67-1,.06.11-.37,1.23-.56,1.49-.12,4.06-.87,3.88-.43l-.53.06c1.17.25,4.2-.27,6.59-.53l.33-.57c6.32,0,16.35-2,19.83-1.49,1.5-.24,3.37-.36,4.87-.57l-.07.29,11.46-.38-1.05.22c2.92,0,3.68-.87,6.38-.88l.81.42c5.1.06,10.23.61,15.26.67-.09.06-.25.17-1.07.12,2.4.13,9.15,1.26,8.37.6,0,.19,1.3.38,2.94.56l5,.63-.47.19a25,25,0,0,1,5.6.73c.73.24.59.4-.37.05,2.41.85,2,.23,4.91,1.31-.38-.06-.76-.14-1.15-.19A15.64,15.64,0,0,0,976,38a18.7,18.7,0,0,1,2.92,1.19,6.16,6.16,0,0,1,1.9,1.15,10.62,10.62,0,0,1,3.11,1.23c.14.18-.39,0-.66-.12,3.71,2.26,5.74,3.09,7.86,5.23,0,.11.1.28.27.46A33.79,33.79,0,0,0,988,44.42c-.86-.67-1.43-1-1.3-.91-.09.17,2.1,1.83.13.84.94.57,2.26,1.3,3.55,2.18.61.48,1.24,1,1.83,1.47.29.25.59.48.84.75s.47.54.69.8a2,2,0,0,1,.17.32l-.21-.19a13.27,13.27,0,0,0,1.16,1.23,22.06,22.06,0,0,1,1.27,1.81,6.56,6.56,0,0,0,1,1.59c.46.79,1,1.68,1.31,2.29.2-.23,1,1.41.42-.21.07.21-.12-.23-.6-1-.11-.18-.24-.39-.32-.5L998,55A33.15,33.15,0,0,0,996,52.12c.37.4.75.82,1.12,1.31a8.28,8.28,0,0,1,.56.79c.16.3.32.62.48,1a13.71,13.71,0,0,1,1.31,1.51c.56,1.88,1.56,5.39,1.4,6,1.4,4,2,9.8,2.92,12.43a4.5,4.5,0,0,1,0,1.89c-.15-.7-.25-1.54-.38-1.91l.79,4.6a11,11,0,0,0,.87,3.15c.51,3.09-.73-1.65.28,2.54-.09-.18-.16-.36-.24-.54,1.48,8.45,5.33,12.69,7.49,21.71a4.88,4.88,0,0,1-.22-1.08c.75,2.53,1.46,5.1,2,7.71a64.2,64.2,0,0,1,1.11,8c.44,5.4.45,10.82.42,16.07a19.72,19.72,0,0,0,.64,5.1l-.24.67c.23,1,.45,2,.72,3.06.45,2.17.62,4.08,1,6.13a17.47,17.47,0,0,0,2.69,6.64l-.19-.74c.25.44.56,1,.94,1.61s.79,1.19,1.22,1.69c.81,1,1.53,1.77,1.32,1.72a4.37,4.37,0,0,1,1.12,1l-.06.16a20,20,0,0,0,2,1.47c.36.22.7.46,1.06.66l1.11.57c1.66,1,1.49,1,1.48,1.18s.18.5,2.87,1.51c2,.68,5.93,1.07,5.17.8a6.45,6.45,0,0,1-2.1-.74l1.87.34c.21-.19.69-.33.57-.58s-.86-.58-3-1.32l-1.54-.32c-.51-.12-1-.28-1.51-.42-.28-.2-.58-.37-.84-.58.81.33,1.62.64,2.45.92a19.19,19.19,0,0,0-3.26-1.22,4.92,4.92,0,0,0-1-.8l-1.41-.57c-.47-.2-.91-.46-1.37-.69-.18-.36,1.3.5-.26-.76-1.2-.76.78,1.21-1.09-.22a6.2,6.2,0,0,1-.78-1.06,7.18,7.18,0,0,0-1.05-1c-.06-.27.21,0,.73.42a34,34,0,0,1-3.13-3.72c-.29-.72-.88-1.89-1.3-2.91s-.67-1.87-.43-1.87a17.24,17.24,0,0,1-1.46-4c.56,1.23.22-.08,0-1.66s-.47-3.42-.15-3.1c-.75-1.89-.83-7.09-1.16-10.62a3.85,3.85,0,0,1,.12.9c0-2,.11-2.58.16-3.86-.4-.24-.57-3.36-.87-5,.28-2.47.52,1.48.85.69-.3.14-.5-4.27-.73-3.42a10.09,10.09,0,0,1,.27-2.63c-.51-.29-.22-1.76-.71-3.29a7.34,7.34,0,0,1,.06-1.8,6.24,6.24,0,0,0-.32-2C1016.32,112.1,1017,114.74,1017,114.75ZM994.49,47.8h0l1,1.1Zm-4.59-4A22.63,22.63,0,0,1,992,45.48c.1.22-.14.14-.59-.27.14.09,0-.14-.35-.41ZM997,54.16a3.46,3.46,0,0,1-.71-1.13l.94,1.28.09.07A1.39,1.39,0,0,1,997,54.16Z" transform="translate(-10 -15)"/>
      <path class="cls-8" d="M998.2,55.39l.21.32-.22-.51L998,55Z" transform="translate(-10 -15)"/>
      <path class="cls-8" d="M957.44,239.75v.13a1.82,1.82,0,0,1,0-.27A1.38,1.38,0,0,1,957.44,239.75Z" transform="translate(-10 -15)"/>
      <polygon class="cls-8" points="899.59 15.8 899.6 15.87 900.12 15.77 899.59 15.8"/>
      <path class="cls-8" d="M961.63,207.88a1.65,1.65,0,0,0,.26-.34A2.13,2.13,0,0,0,961.63,207.88Z" transform="translate(-10 -15)"/>
      <path class="cls-8" d="M971,197.77c.53-.39,1.11-.71,1.68-1A15.36,15.36,0,0,0,971,197.77Z" transform="translate(-10 -15)"/>
      <path class="cls-8" d="M980.38,192.46a.5.5,0,0,0,.14-.2h0Z" transform="translate(-10 -15)"/>
      <path class="cls-8" d="M888.93,292.28l-.39-.17C887.62,291.72,888.24,292,888.93,292.28Z" transform="translate(-10 -15)"/>
      <path class="cls-8" d="M939.48,296.8a10.05,10.05,0,0,1-1.51.76C938.87,297.29,939.51,296.94,939.48,296.8Z" transform="translate(-10 -15)"/>
      <path class="cls-8" d="M856.26,247.53h0l0-.36Z" transform="translate(-10 -15)"/>
      <path class="cls-8" d="M935.65,298.32a11.77,11.77,0,0,0,2.31-.76C937.23,297.78,936.39,298.11,935.65,298.32Z" transform="translate(-10 -15)"/>
      <path class="cls-8" d="M1025.28,178.46l.51-.14s0,0,0-.06Z" transform="translate(-10 -15)"/>
      <path class="cls-8" d="M1025.84,178.26l.55-.2A2.62,2.62,0,0,0,1025.84,178.26Z" transform="translate(-10 -15)"/>
      <path class="cls-8" d="M1027.54,177.62l-1.15.44A5.12,5.12,0,0,0,1027.54,177.62Z" transform="translate(-10 -15)"/>
      <path class="cls-8" d="M1011.34,182.23l-.13.14C1011.29,182.33,1011.33,182.28,1011.34,182.23Z" transform="translate(-10 -15)"/>
      <path class="cls-8" d="M1007.12,183.4c1-.25,2.59-.47,4-.91l.11-.11C1010.58,182.7,1008,183,1007.12,183.4Z" transform="translate(-10 -15)"/>
      <path class="cls-8" d="M989.26,187.49q1.75-.59,3.51-1.11c-.64.1-1.5.23.09-.32C988.34,187.22,993.83,185.95,989.26,187.49Z" transform="translate(-10 -15)"/>
      <path class="cls-8" d="M978.63,191.75c1.77-.9-.09-.14,0-.23C977.53,192.19,977.27,192.35,978.63,191.75Z" transform="translate(-10 -15)"/>
      <path class="cls-8" d="M957.26,265.32l-.23-.22C956.9,266.6,957.12,265.13,957.26,265.32Z" transform="translate(-10 -15)"/>
      <path class="cls-8" d="M955,280.91c.23-.45.51-.88.71-1.34v-.76l-.33,1.06Z" transform="translate(-10 -15)"/>
      <path class="cls-8" d="M948.77,287.89l.38-.51c-.51.63-1,1.3-1.52,1.9C948,288.85,948.39,288.35,948.77,287.89Z" transform="translate(-10 -15)"/>
      <path class="cls-8" d="M857.69,231.37l-.3.47C857.47,232.86,857.84,233.06,857.69,231.37Z" transform="translate(-10 -15)"/>
      <path class="cls-8" d="M853.17,171.92a11.48,11.48,0,0,0-.6-3.31C852.83,169.93,853,171.26,853.17,171.92Z" transform="translate(-10 -15)"/>
      <polygon class="cls-8" points="884.07 19.78 882.9 20.02 885.13 19.68 884.07 19.78"/>
    </g>
  </g>
  <g>
    <path class="cls-65" d="M468.23,64.94l13.62,13.62" transform="translate(-10 -15)"/>
    <path class="cls-65" d="M464.69,68.47l13.62,13.62c4.56,4.56,11.63-2.51,7.07-7.07L471.77,61.4c-4.56-4.56-11.63,2.51-7.07,7.07Z" transform="translate(-10 -15)"/>
  </g>
  <g>
    <path class="cls-65" d="M516.88,59.53c-5.33-5.84-10.33-11.89-15.14-18.16" transform="translate(-10 -15)"/>
    <path class="cls-65" d="M520.42,56q-7.52-8.28-14.35-17.15c-1.66-2.16-4.28-3.25-6.84-1.79-2.12,1.21-3.44,4.7-1.79,6.84,5.07,6.59,10.33,13,15.92,19.18,4.33,4.78,11.39-2.31,7.07-7.07Z" transform="translate(-10 -15)"/>
  </g>
  <g>
    <path class="cls-65" d="M588,61c-.92-7.3,1.23-14,1.51-21.19" transform="translate(-10 -15)"/>
    <path class="cls-65" d="M593,61c-.69-7.15,1.11-14.08,1.51-21.19.37-6.43-9.64-6.41-10,0-.4,7.11-2.21,14-1.51,21.19.62,6.35,10.62,6.41,10,0Z" transform="translate(-10 -15)"/>
  </g>
  <g>
    <path class="cls-65" d="M641,67.1c1.82-7.72,2-16,6.05-22.7" transform="translate(-10 -15)"/>
    <path class="cls-65" d="M645.82,68.43c1.6-7.19,1.87-15,5.55-21.51,3.16-5.62-5.48-10.66-8.63-5-4.18,7.43-4.74,15.74-6.56,23.9-1.39,6.27,8.24,8.95,9.64,2.66Z" transform="translate(-10 -15)"/>
  </g>
  <g>
    <path class="cls-65" d="M711.55,250.49c8.11,6.26,17.45,10.68,25.73,16.65" transform="translate(-10 -15)"/>
    <path class="cls-65" d="M709,254.81c8.18,6.16,17.37,10.76,25.73,16.65,5.27,3.71,10.27-5,5-8.63-8.36-5.89-17.55-10.49-25.73-16.65-5.14-3.87-10.13,4.81-5,8.63Z" transform="translate(-10 -15)"/>
  </g>
  <g>
    <path class="cls-65" d="M453.31,279a22,22,0,0,1-13.62,6.05" transform="translate(-10 -15)"/>
    <path class="cls-65" d="M449.78,275.47a17.16,17.16,0,0,1-10.09,4.59c-2.69.26-5,2.11-5,5,0,2.51,2.3,5.26,5,5a28.4,28.4,0,0,0,17.16-7.52c4.71-4.4-2.37-11.46-7.07-7.07Z" transform="translate(-10 -15)"/>
  </g>
  <g>
    <path class="cls-65" d="M450.28,235.11c-9.8-2.35-20.39-2.08-30.27-4.54" transform="translate(-10 -15)"/>
    <path class="cls-65" d="M451.61,230.29c-10-2.23-20.3-2.22-30.27-4.54-6.26-1.46-8.93,8.18-2.66,9.64,10,2.32,20.29,2.31,30.27,4.54,6.27,1.4,8.95-8.24,2.66-9.64Z" transform="translate(-10 -15)"/>
  </g>
  <g>
    <path class="cls-65" d="M455.26,174.57c-5.82-4.57-12.55-7.4-18.16-12.11" transform="translate(-10 -15)"/>
    <path class="cls-65" d="M457.78,170.25c-5.46-4.16-11.82-7-17.15-11.33-5-4-12.07,3-7.07,7.07,6,4.88,13,8.21,19.18,12.89,2.16,1.65,5.57.32,6.84-1.79,1.53-2.55.34-5.21-1.79-6.84Z" transform="translate(-10 -15)"/>
  </g>
  <g>
    <path class="cls-65" d="M454.23,130.16c-4.64-7.33-11.07-16.15-19.68-19.68" transform="translate(-10 -15)"/>
    <path class="cls-65" d="M458.55,127.63c-5.45-8.53-11.95-17.28-21.47-21.47-5.84-2.57-10.93,6-5,8.63,8,3.54,13.28,10.68,17.88,17.88,3.45,5.41,12.11.4,8.63-5Z" transform="translate(-10 -15)"/>
  </g>
  <g>
    <path class="cls-65" d="M715.25,133.54a50.85,50.85,0,0,1,18.16,3" transform="translate(-10 -15)"/>
    <path class="cls-65" d="M715.25,138.54a50.44,50.44,0,0,1,16.83,2.85c6.08,2.16,8.69-7.5,2.66-9.64a59.1,59.1,0,0,0-19.49-3.21c-6.44,0-6.44,10,0,10Z" transform="translate(-10 -15)"/>
  </g>
  <g>
    <path class="cls-65" d="M709.87,182.92A165.82,165.82,0,0,0,731.06,195" transform="translate(-10 -15)"/>
    <path class="cls-65" d="M707.35,187.24a176.35,176.35,0,0,0,21.19,12.11c5.75,2.85,10.82-5.77,5-8.63a176.35,176.35,0,0,1-21.19-12.11c-5.33-3.64-10.34,5-5,8.63Z" transform="translate(-10 -15)"/>
  </g>
  <text class="cls-66" transform="translate(868.07 45.35)"><tspan class="cls-67">H</tspan><tspan class="cls-68" x="13.85" y="0">e</tspan><tspan x="23.28" y="0">r </tspan><tspan class="cls-12" x="35.09" y="0">k</tspan><tspan class="cls-69" x="45.98" y="0">a</tspan><tspan x="56.18" y="0">n</tspan><tspan x="0" y="28.8">j</tspan><tspan class="cls-70" x="5.76" y="28.8">e</tspan><tspan x="15.36" y="28.8">g </tspan><tspan class="cls-68" x="28.8" y="28.8">fi</tspan><tspan class="cls-70" x="40.49" y="28.8">nd</tspan><tspan x="63.72" y="28.8">e</tspan><tspan class="cls-68" x="0" y="57.6">e</tspan><tspan x="9.43" y="57.6">n K</tspan><tspan class="cls-71" x="37.78" y="57.6">E</tspan><tspan x="49.8" y="57.6">A </tspan><tspan class="cls-72" x="0" y="86.4">s</tspan><tspan class="cls-68" x="7.9" y="86.4">t</tspan><tspan class="cls-70" x="14.66" y="86.4">ud</tspan><tspan class="cls-73" x="37.68" y="86.4">e</tspan><tspan class="cls-74" x="47.11" y="86.4">r</tspan><tspan class="cls-68" x="55.08" y="86.4">e</tspan><tspan class="cls-70" x="64.51" y="86.4">nd</tspan><tspan x="87.74" y="86.4">e</tspan><tspan class="cls-70" x="0" y="115.2">d</tspan><tspan class="cls-68" x="11.5" y="115.2">e</tspan><tspan x="20.93" y="115.2">r </tspan><tspan class="cls-12" x="32.74" y="115.2">k</tspan><tspan class="cls-75" x="43.63" y="115.2">a</tspan><tspan x="53.83" y="115.2">n </tspan><tspan class="cls-76" x="0" y="144">h</tspan><tspan class="cls-77" x="11.3" y="144">j</tspan><tspan class="cls-78" x="17.18" y="144"></tspan><tspan class="cls-79" x="31.75" y="144">l</tspan><tspan class="cls-80" x="37.42" y="144">p</tspan><tspan x="49.08" y="144">e </tspan><tspan class="cls-68"><tspan x="0" y="172.8">m</tspan><tspan class="cls-81" x="17.21" y="172.8">i</tspan><tspan class="cls-82" x="23.33" y="172.8">g! </tspan></tspan></text>
  <g>
    <path class="cls-65" d="M701.08,71.91c8.72-5.37,16.16-12.54,24.67-18.18" transform="translate(-10 -15)"/>
    <path class="cls-65" d="M703.6,76.22c8.66-5.47,16.2-12.45,24.67-18.18,5.3-3.59.3-12.26-5-8.63-8.47,5.73-16,12.71-24.67,18.18-5.43,3.43-.41,12.09,5,8.63Z" transform="translate(-10 -15)"/>
  </g>
  <g>
    <path class="cls-29" d="M607.16,575c-4.37,1-8.76,2-13.17,2.81,2.24-.15,4.47-.34,6.71-.56A26.82,26.82,0,0,0,607.16,575Z" transform="translate(-10 -15)"/>
    <path class="cls-29" d="M675,403H506.24c-15.87,0-28.74,11.69-28.74,26.12v207.8c8.21.14,16.41.5,24.63.36,9.63-.16,19.27-.49,28.89.07,3.22.18,6.45.63,9.68,1.09,18.88-.3,37.75-1,56.66-1.11,19.5-.08,39-.3,58.5-.4,16-.08,31.92.23,47.88.37V429.12C703.75,414.69,690.89,403,675,403Z" transform="translate(-10 -15)"/>
    <path class="cls-30" d="M654.81,428H527.18c-15.87,0-28.74,11.69-28.74,26.12V637.31q1.85,0,3.7,0c9.63-.16,19.27-.49,28.89.07,3.21.18,6.43.63,9.65,1.08,18.89-.3,37.78-1,56.69-1.1,19.5-.08,39-.3,58.5-.4,9.23,0,18.46,0,27.68.15V454.15C683.55,439.73,670.68,428,654.81,428Z" transform="translate(-10 -15)"/>
    <text class="cls-31" transform="translate(508.22 452.84)">K<tspan class="cls-32" x="13.95" y="0">E</tspan><tspan x="26.57" y="0">A </tspan><tspan class="cls-33" x="43.04" y="0">N</tspan><tspan class="cls-34" x="56.69" y="0">E</tspan><tspan class="cls-35" x="68.38" y="0">T</tspan><tspan class="cls-36" x="81.42" y="0">W</tspan><tspan class="cls-37" x="100.72" y="0">O</tspan><tspan class="cls-38" x="115.6" y="0">R</tspan><tspan x="129.02" y="0">K</tspan></text>
    <rect class="cls-39" x="488.07" y="475.31" width="185.93" height="48.69"/>
    <rect class="cls-41" x="488" y="524" width="186.44" height="48.69"/>
    <rect class="cls-44" x="488.07" y="572.7" width="185.93" height="48.69"/>
    <text class="cls-31" transform="translate(491.06 506.84)"><tspan class="cls-83">F</tspan><tspan class="cls-53" x="10.6" y="0">o</tspan><tspan class="cls-84" x="22.24" y="0">k</tspan><tspan class="cls-85" x="33.19" y="0">u</tspan><tspan class="cls-45" x="45.31" y="0">s</tspan><tspan class="cls-48" x="53.92" y="0">g</tspan><tspan class="cls-86" x="64.7" y="0">r</tspan><tspan class="cls-49" x="73.94" y="0">u</tspan><tspan class="cls-87" x="85.86" y="0">p</tspan><tspan class="cls-46" x="97.67" y="0">p</tspan><tspan x="109.91" y="0">e </tspan><tspan class="cls-46" x="123.46" y="0">s</tspan><tspan class="cls-33" x="132.2" y="0"></tspan><tspan class="cls-88" x="143.76" y="0">g</tspan><tspan class="cls-46" x="154.19" y="0">e</tspan><tspan x="164.44" y="0">s</tspan></text>
    <text class="cls-50" transform="translate(496.93 551.92)"><tspan class="cls-89">H</tspan><tspan class="cls-56" x="11.69" y="0">j</tspan><tspan class="cls-57" x="16.62" y="0"></tspan><tspan class="cls-90" x="28.85" y="0">l</tspan><tspan x="33.61" y="0">p t</tspan><tspan class="cls-56" x="51.74" y="0">i</tspan><tspan x="56.8" y="0">l </tspan><tspan class="cls-51" x="64.49" y="0">H</tspan><tspan class="cls-91" x="76.62" y="0">T</tspan><tspan class="cls-58" x="86.35" y="0">M</tspan><tspan x="100.34" y="0">L-</tspan><tspan class="cls-92" x="115.19" y="0">k</tspan><tspan class="cls-63" x="123.87" y="0">o</tspan><tspan class="cls-61" x="133.34" y="0">d</tspan><tspan class="cls-58" x="142.99" y="0">e</tspan><tspan x="150.91" y="0">n</tspan></text>
    <text class="cls-50" transform="translate(492.74 604.18)">G<tspan class="cls-56" x="11.55" y="0">u</tspan><tspan class="cls-55" x="21.2" y="0">ld</tspan><tspan class="cls-59" x="35.96" y="0">s</tspan><tspan class="cls-60" x="42.55" y="0">m</tspan><tspan class="cls-56" x="57.2" y="0">e</tspan><tspan x="65.24" y="0">d </tspan><tspan class="cls-93" x="77.67" y="0">F</tspan><tspan class="cls-58" x="86.05" y="0">e</tspan><tspan class="cls-94" x="93.97" y="0">r</tspan><tspan class="cls-58" x="101.13" y="0">n</tspan><tspan class="cls-55" x="110.84" y="0">i</tspan><tspan class="cls-57" x="116.01" y="0">s</tspan><tspan class="cls-95" x="122.8" y="0">e</tspan><tspan class="cls-96" x="130.72" y="0">r</tspan><tspan class="cls-95" x="137.81" y="0">i</tspan><tspan class="cls-63" x="142.75" y="0">n</tspan><tspan x="152.76" y="0">g</tspan></text>
  </g>
  <g>
    <path class="cls-65" d="M470.23,380.94l13.62,13.62" transform="translate(-10 -15)"/>
    <path class="cls-65" d="M466.69,384.47l13.62,13.62c4.56,4.56,11.63-2.51,7.07-7.07L473.77,377.4c-4.56-4.56-11.63,2.51-7.07,7.07Z" transform="translate(-10 -15)"/>
  </g>
  <g>
    <path class="cls-65" d="M518.88,375.53c-5.33-5.84-10.33-11.89-15.14-18.16" transform="translate(-10 -15)"/>
    <path class="cls-65" d="M522.42,372q-7.52-8.28-14.35-17.15c-1.66-2.16-4.28-3.25-6.84-1.79-2.12,1.21-3.44,4.7-1.79,6.84,5.07,6.59,10.33,13,15.92,19.18,4.33,4.78,11.39-2.31,7.07-7.07Z" transform="translate(-10 -15)"/>
  </g>
  <g>
    <path class="cls-65" d="M590,377c-.92-7.3,1.23-14,1.51-21.19" transform="translate(-10 -15)"/>
    <path class="cls-65" d="M595,377c-.69-7.15,1.11-14.08,1.51-21.19.37-6.43-9.64-6.41-10,0-.4,7.11-2.21,14-1.51,21.19.62,6.35,10.62,6.41,10,0Z" transform="translate(-10 -15)"/>
  </g>
  <g>
    <path class="cls-65" d="M643,383.1c1.82-7.72,2-16,6.05-22.7" transform="translate(-10 -15)"/>
    <path class="cls-65" d="M647.82,384.43c1.6-7.19,1.87-15,5.55-21.51,3.16-5.62-5.48-10.66-8.63-5-4.18,7.43-4.74,15.74-6.56,23.9-1.39,6.27,8.24,8.95,9.64,2.66Z" transform="translate(-10 -15)"/>
  </g>
  <g>
    <path class="cls-65" d="M713.55,566.49c8.11,6.26,17.45,10.68,25.73,16.65" transform="translate(-10 -15)"/>
    <path class="cls-65" d="M711,570.81c8.18,6.16,17.37,10.76,25.73,16.65,5.27,3.71,10.27-5,5-8.63-8.36-5.89-17.55-10.49-25.73-16.65-5.14-3.87-10.13,4.81-5,8.63Z" transform="translate(-10 -15)"/>
  </g>
  <g>
    <path class="cls-65" d="M455.31,595a22,22,0,0,1-13.62,6.05" transform="translate(-10 -15)"/>
    <path class="cls-65" d="M451.78,591.47a17.16,17.16,0,0,1-10.09,4.59c-2.69.26-5,2.11-5,5,0,2.51,2.3,5.26,5,5a28.4,28.4,0,0,0,17.16-7.52c4.71-4.4-2.37-11.46-7.07-7.07Z" transform="translate(-10 -15)"/>
  </g>
  <g>
    <path class="cls-65" d="M452.28,551.11c-9.8-2.35-20.39-2.08-30.27-4.54" transform="translate(-10 -15)"/>
    <path class="cls-65" d="M453.61,546.29c-10-2.23-20.3-2.22-30.27-4.54-6.26-1.46-8.93,8.18-2.66,9.64,10,2.32,20.29,2.31,30.27,4.54,6.27,1.4,8.95-8.24,2.66-9.64Z" transform="translate(-10 -15)"/>
  </g>
  <g>
    <path class="cls-65" d="M457.26,490.57c-5.82-4.57-12.55-7.4-18.16-12.11" transform="translate(-10 -15)"/>
    <path class="cls-65" d="M459.78,486.25c-5.46-4.16-11.82-7-17.15-11.33-5-4-12.07,3-7.07,7.07,6,4.88,13,8.21,19.18,12.89,2.16,1.65,5.57.32,6.84-1.79,1.53-2.55.34-5.21-1.79-6.84Z" transform="translate(-10 -15)"/>
  </g>
  <g>
    <path class="cls-65" d="M456.23,446.16c-4.64-7.33-11.07-16.15-19.68-19.68" transform="translate(-10 -15)"/>
    <path class="cls-65" d="M460.55,443.63c-5.45-8.53-11.95-17.28-21.47-21.47-5.84-2.57-10.93,6-5,8.63,8,3.54,13.28,10.68,17.88,17.88,3.45,5.41,12.11.4,8.63-5Z" transform="translate(-10 -15)"/>
  </g>
  <g>
    <path class="cls-65" d="M717.25,449.54a50.85,50.85,0,0,1,18.16,3" transform="translate(-10 -15)"/>
    <path class="cls-65" d="M717.25,454.54a50.44,50.44,0,0,1,16.83,2.85c6.08,2.16,8.69-7.5,2.66-9.64a59.1,59.1,0,0,0-19.49-3.21c-6.44,0-6.44,10,0,10Z" transform="translate(-10 -15)"/>
  </g>
  <g>
    <path class="cls-65" d="M711.87,498.92A165.82,165.82,0,0,0,733.06,511" transform="translate(-10 -15)"/>
    <path class="cls-65" d="M709.35,503.24a176.35,176.35,0,0,0,21.19,12.11c5.75,2.85,10.82-5.77,5-8.63a176.35,176.35,0,0,1-21.19-12.11c-5.33-3.64-10.34,5-5,8.63Z" transform="translate(-10 -15)"/>
  </g>
  <g>
    <path class="cls-65" d="M703.08,387.91c8.72-5.37,16.16-12.54,24.67-18.18" transform="translate(-10 -15)"/>
    <path class="cls-65" d="M705.6,392.22c8.66-5.47,16.2-12.45,24.67-18.18,5.3-3.59.3-12.26-5-8.63-8.47,5.73-16,12.71-24.67,18.18-5.43,3.43-.41,12.09,5,8.63Z" transform="translate(-10 -15)"/>
  </g>
  <path class="cls-97" d="M36.93,626a9.67,9.67,0,0,0,.25,4.37c11.87,10.83,157.85,16.78,189.66,5,.49-27.85-18.71-61.65-38.16-80.26-8.62-8.25-32.83-17.83-38.46-26.6-6.26-9.76,3-14.93,8.28-25.21,13-25.34,8.06-57.59-18.27-73.29C119.68,417.76,67,423.95,59,449.35c-7.3,23.13,15,63.87,32.49,78C65.6,553.84,48.77,587.85,36.93,626Z" transform="translate(-10 -15)"/>
  <circle class="cls-4" cx="79.85" cy="451.85" r="18.85"/>
  <circle class="cls-5" cx="85.14" cy="445.24" r="10.58"/>
  <ellipse class="cls-6" cx="91.76" cy="444.91" rx="3.97" ry="4.3"/>
  <circle class="cls-4" cx="126.15" cy="453.17" r="18.85"/>
  <circle class="cls-5" cx="131.44" cy="446.56" r="10.58"/>
  <ellipse class="cls-6" cx="138.06" cy="446.23" rx="3.97" ry="4.3"/>
  <path class="cls-97" d="M1166.71,626a9.67,9.67,0,0,1-.25,4.37c-11.87,10.83-157.85,16.78-189.66,5-.49-27.85,18.71-61.65,38.16-80.26,8.62-8.25,32.83-17.83,38.46-26.6,6.26-9.76-3-14.93-8.28-25.21-13-25.34-8.06-57.59,18.27-73.29,20.55-12.26,73.27-6.07,81.28,19.33,7.3,23.13-15,63.87-32.49,78C1138,553.84,1154.86,587.85,1166.71,626Z" transform="translate(-10 -15)"/>
  <g>
    <circle class="cls-4" cx="1103.79" cy="465.85" r="18.85"/>
    <circle class="cls-5" cx="1098.5" cy="472.24" r="10.58"/>
    <ellipse class="cls-6" cx="1091.88" cy="473.91" rx="3.97" ry="4.3"/>
  </g>
  <g>
    <circle class="cls-4" cx="1061.79" cy="463.85" r="18.85"/>
    <circle class="cls-5" cx="1056.5" cy="470.24" r="10.58"/>
    <ellipse class="cls-6" cx="1049.88" cy="471.91" rx="3.97" ry="4.3"/>
  </g>
  <path class="cls-98" d="M178.5,480.54c28.31-9.15,9.14-22.14,4-46.43-2.86-13.52-9.13-42.2-4.05-56,11-30.11,98.22-15.13,125.95-21.21,44.77-9.82,77.43,114.27,63.24,164.07-7.16,25.13-6.19,51.06-14.6,75.35-4.89,14.12-50.77,7-61.84,6.17-47.13-3.73-104.46-96.28-116.82-117.65" transform="translate(-10 -15)"/>
  <text class="cls-9" transform="translate(205.95 406.15)"><tspan class="cls-10">H</tspan><tspan class="cls-11" x="17.34" y="0">v</tspan><tspan x="28.98" y="0">o</tspan><tspan class="cls-99" x="42.66" y="0">r</tspan><tspan class="cls-100" x="53.01" y="0">d</tspan><tspan class="cls-13" x="67.53" y="0">a</tspan><tspan x="80.28" y="0">n </tspan><tspan class="cls-12" x="99.09" y="0">k</tspan><tspan class="cls-13" x="112.71" y="0">a</tspan><tspan x="125.46" y="0">n </tspan><tspan x="0" y="36">j</tspan><tspan class="cls-14" x="7.2" y="36">e</tspan><tspan x="19.2" y="36">g </tspan><tspan class="cls-101" x="36" y="36">s</tspan><tspan class="cls-12" x="46.08" y="36">k</tspan><tspan class="cls-11" x="59.7" y="36">a</tspan><tspan class="cls-22" x="72.57" y="36">b</tspan><tspan x="86.94" y="36">e </tspan><tspan class="cls-102" x="103.08" y="36">e</tspan><tspan x="115.2" y="36">t</tspan><tspan class="cls-103" x="0" y="72">n</tspan><tspan class="cls-102" x="14.76" y="72">e</tspan><tspan class="cls-104" x="26.88" y="72">t</tspan><tspan class="cls-101" x="35.31" y="72">v</tspan><tspan class="cls-15" x="46.86" y="72"></tspan><tspan class="cls-104" x="64.95" y="72">r</tspan><tspan class="cls-105" x="75.33" y="72">k </tspan><tspan class="cls-23" x="92.85" y="72">p</tspan><tspan x="107.19" y="72"></tspan><tspan x="0" y="108">K</tspan><tspan class="cls-25" x="16.62" y="108">E</tspan><tspan class="cls-106" x="31.65" y="108">A</tspan><tspan x="45.87" y="108">?</tspan></text>
  <g>
    <path class="cls-98" d="M1009,530.9c-8.75,1.53-11.91-4.85-19.51-6.31-9.74-1.86-6.82-2.15-16.36,4.48-12.39,8.61-21.79,15-37.45,16.84-58.21,6.85-91.53-25.24-89.62-84.4,1.73-53.34,38.44-103.18,94.71-102.52,44.14.52,91.06,26.57,90.67,76.24-.15,18.66-10.35,35.67-20.08,50.68-4.57,7-12.45,13.22-12.93,20.31s7.55,20,12.06,24.66" transform="translate(-10 -15)"/>
    <g>
      <path class="cls-107" d="M1010,531.36c.29.17.3-.08-.34-.74l-.68-.27Z" transform="translate(-10 -15)"/>
      <path class="cls-107" d="M1006.72,526.21c-.73-.78-1.65-1.65-1.52-.91.86.7.88,1,1.86,1.69.55.72.86,1.33.67,1.28.26.21.81,1.16,1.29,1.4a16.8,16.8,0,0,0-2.52-3.4C1006.37,526,1006.62,526.18,1006.72,526.21Z" transform="translate(-10 -15)"/>
      <path class="cls-107" d="M1030.14,448.88c-.05.18-.12.36-.18.54A3.34,3.34,0,0,0,1030.14,448.88Z" transform="translate(-10 -15)"/>
      <path class="cls-107" d="M1020.73,396.33c.24.35.36.47.4.47C1020.9,396.5,1020.7,396.24,1020.73,396.33Z" transform="translate(-10 -15)"/>
      <path class="cls-107" d="M1015.27,388.67c.13.15.23.29.35.44A1.62,1.62,0,0,0,1015.27,388.67Z" transform="translate(-10 -15)"/>
      <path class="cls-107" d="M1030.14,448.88l.42-1.41C1030.48,447.35,1030.32,448.18,1030.14,448.88Z" transform="translate(-10 -15)"/>
      <path class="cls-107" d="M1000,516a4.61,4.61,0,0,0,.41.7c-.12-.22-.24-.44-.34-.67Z" transform="translate(-10 -15)"/>
      <path class="cls-107" d="M1021.2,471.25l-.21.39a2.86,2.86,0,0,0-.07.39Z" transform="translate(-10 -15)"/>
      <path class="cls-107" d="M1011.59,487a1,1,0,0,0,.09-.82,2.45,2.45,0,0,1-.36.87S1011.44,487.12,1011.59,487Z" transform="translate(-10 -15)"/>
      <path class="cls-107" d="M999.61,511.7l.18.48Z" transform="translate(-10 -15)"/>
      <path class="cls-107" d="M1027,459.33a.36.36,0,0,0,.16-.12S1027.09,459.24,1027,459.33Z" transform="translate(-10 -15)"/>
      <path class="cls-107" d="M989.36,523.22s0,0,0,0S989.5,523.25,989.36,523.22Z" transform="translate(-10 -15)"/>
      <path class="cls-107" d="M1009,531l-.29.05a.33.33,0,0,0,0,.16Z" transform="translate(-10 -15)"/>
      <path class="cls-107" d="M1002.67,376.89l.06,0C1003.12,377.18,1002.91,377,1002.67,376.89Z" transform="translate(-10 -15)"/>
      <path class="cls-107" d="M863.5,400.78c1.17-1.37-1.27,2.64.39.51C863.64,401.43,864.89,399,863.5,400.78Z" transform="translate(-10 -15)"/>
      <path class="cls-107" d="M999.85,515.53l-.3-.71C999.67,515.15,999.77,515.37,999.85,515.53Z" transform="translate(-10 -15)"/>
      <path class="cls-107" d="M863.9,401.3h0l.17-.22Z" transform="translate(-10 -15)"/>
      <path class="cls-107" d="M966.56,361a1.58,1.58,0,0,0,.36.22S966.84,361.11,966.56,361Z" transform="translate(-10 -15)"/>
      <path class="cls-107" d="M993.84,371.93l-.61-.4C993.47,371.7,993.67,371.82,993.84,371.93Z" transform="translate(-10 -15)"/>
      <path class="cls-107" d="M951.42,358.83a6.1,6.1,0,0,0-1.06-.13l.16.05A3,3,0,0,1,951.42,358.83Z" transform="translate(-10 -15)"/>
      <path class="cls-107" d="M935.54,358.29l.3.05.5,0Z" transform="translate(-10 -15)"/>
      <path class="cls-107" d="M946.44,542.47a2.9,2.9,0,0,1,.76,0C946.91,542.37,949,541.6,946.44,542.47Z" transform="translate(-10 -15)"/>
      <path class="cls-107" d="M1000.14,515.92a.86.86,0,0,1-.3-.39l.22.49C1000.12,516,1000.16,516,1000.14,515.92Z" transform="translate(-10 -15)"/>
      <path class="cls-107" d="M950.57,361c-.82-.1-1.64-.2-2.46-.26Z" transform="translate(-10 -15)"/>
      <path class="cls-107" d="M853.23,503.09l.23.52A2.51,2.51,0,0,0,853.23,503.09Z" transform="translate(-10 -15)"/>
      <path class="cls-107" d="M940.75,360.42a9.79,9.79,0,0,0-1.39-.17,1.59,1.59,0,0,0-.29.08Z" transform="translate(-10 -15)"/>
      <path class="cls-107" d="M947.2,542.49h0Z" transform="translate(-10 -15)"/>
      <path class="cls-107" d="M961.53,534.93c-2,1.21-.76.88-1.08,1.32-2.38,1.52-1.27.42-2.19.73-.74.48-1.36.94-2,1.35a10.68,10.68,0,0,1-1.74,1.06c-.11,0-.35.08-.12-.12-1.53,1.12-5,2.23-6.94,3.23a.82.82,0,0,1-.3,0c.39.07.5.23.47.38-1,.35-1.81.83-2.27.69a2.29,2.29,0,0,0,.92-.43l-1,.4c-1.06-.07,1.43-.51,1.35-.79-1,.38-2.11.78-3.17,1.13a18.19,18.19,0,0,1-2.9.71c-.39-.22,3.76-1,1.54-.75.84-.15,1.68-.29,2.51-.49-2,0,1.5-.38-.37-.45a55.61,55.61,0,0,1-6.91,1.48c-.72.29.29.24-.44.53a10.1,10.1,0,0,1-4.13.21,7.34,7.34,0,0,0-3.18.13,7.08,7.08,0,0,1-3.75.65l.84-.43a11.5,11.5,0,0,0-2.58.34,8.15,8.15,0,0,1-2.71.11c.61-.16,2.57-.17,2.08-.21-2.23-.27-1.57.24-3.28.27l-.35-.34c-1.74,0-3.57,0-5.45,0s-3.81-.08-5.73-.34c.22-.07.89-.1,0-.31A56.62,56.62,0,0,1,894,541.65c-.6-.06-1.2-.15-1.78-.27-.39-.14-.68-.38-.24-.29-1.67-.72-.15.14-1,0s-1.23-.62-.58-.48l-1.28-.36-1.43-.51c-1-.39-2.1-.73-3.13-1.24s-2.1-1-3-1.51-1.78-1.1-2.47-1.6l.61.26a12,12,0,0,0-1.41-.78c-.39-.21-.73-.35-1.06-.5a8,8,0,0,1-2.25-1.39l.42.22c-4.64-3.34-9.31-7.73-11.69-11.42a11.65,11.65,0,0,1-2-2.45c-.79-1.11-1.46-2.22-1.82-2.2-.39-.72-.65-1.21-.84-1.62l-.45-1.07c-.15-.35-.32-.73-.59-1.27s-.65-1.25-1.1-2.31S855.7,509.34,855,508l.27-.16-1.11-1.77-.09-1.15c-.22-.42-.42-.85-.6-1.29.17.54.31,1.18.19,1.13-.93-2-1.69-5.17-1.51-5.29-.58-1.66-1.24-3.29-1.71-5a7.48,7.48,0,0,1,.65,1.58c-1-2.65.19-.58-.72-3,0,.35-.22-.14-.3-.18,0-.32-.1-.74-.2-1.22s-.17-1-.27-1.6c-.21-1.15-.5-2.39-.71-3.45l.27.38c-.55-3.87-1.32-8.15-1.53-12.56,0,1.58-.39,1.25-.51,0l.29-.54c-.25-.82,0,1.36-.39-.34-.07-1.65.3-1.12.47-.19-.09-.66-.16-1.33-.2-2,.09-.12.16.35.28.46-.22-.82.24-3.46-.14-4.64l.09-.11c0-2.2,0-3.8,0-5.3s.09-2.89.17-4.68c-.3-.09-.1-1.48-.22-2.57.3-2.63.91-5.5,1.39-8.64.25-2.22-.12-.68-.11-1.7.28-.12.81-3.25.7-1.59.74-3.74.92-4.78,2-9.5-.23.48-.43,1-.43.72.17-.86.62-1.9.71-1.74l0,.23c.3-1.32.73-2.72,1.21-4.14s1.12-2.81,1.69-4.2c1.22-2.73,2.41-5.31,3.08-7.37l-.07.23.79-2.1c.27-.7.58-1.38.87-2.07,1-1.82-.38,1.19.44-.1,1.77-4.52,3.66-6.67,5.5-10.19a18.66,18.66,0,0,0,2-2.37c.36-.5.73-1,1.11-1.6l1.23-1.7a41.06,41.06,0,0,1,5-6.09l-.29.06c.59-.91.94-.89,1.5-1.45-.18,0-.9.75-.52.2a68.15,68.15,0,0,1,10.06-9.57c1.82-1.48,3.78-2.8,5.7-4.13s3.94-2.53,6-3.61c2.94-1.66,1.21-1.79,5.21-3.37l-.93.85c5.92-3.47,12.84-5.52,19.28-7.3a3.27,3.27,0,0,1-1,.43,10.14,10.14,0,0,0,1.39-.25c.55-.1,1.14-.22,1.7-.35a7.09,7.09,0,0,0,2-.64c1-.17.27.13.91.11,1.42-.06,3.49-.77,4.26-.64.13,0-.39.13-.64.18.9-.3,4.29-.36,3.38-.58,1.26,0,2.46-.17,3.6-.23a31.56,31.56,0,0,1,3.22,0c1.31-.38,4.31.23,4.74-.21-.2.41,4.4.59,6,.56-.54.08,1.37.28.73.41,1.81.16,3.47.3,3.19,0a28.33,28.33,0,0,0,4.81.79,9,9,0,0,1,3.67.87,96.18,96.18,0,0,1,14.87,3.57c-.31.37-5.13-1.67-5.08-1.1,4.45,1.2,7.12,1.7,11.3,3.6,1.07.52-.7-.08-1.1-.17a101.94,101.94,0,0,1,11.75,5.59,3.58,3.58,0,0,1-.82-.33c.71.39,1.59,1,1.62.78l-.71-.35c-.48-.45.29-.18,1.21.19s2,.94,2.07.9c-1.47-.26,3.34,2.33,1.1,1.76.47.25,1.06.57,1,.39.62.49.78.7,0,.37,2.41,1.6,1.75.76,3.81,2.39-.07.07-.51-.22-.79-.3a17.88,17.88,0,0,1,4,2.83c-.14,0,0,.19-.49-.25.72.62,1.41,1.17,2.09,1.69l1.92,1.62a30.89,30.89,0,0,1,3.87,3.89c-.59-.3-.36,0,0,.4s.77,1,.7,1.2l1.52,1.65-.44-.8,1.81,2.15a14.09,14.09,0,0,1,1.55,2.09c-.3-.39-.64-.74-1-1.1.78,1,1.41,2,2.13,3l-1-1.83c1.26,1.56.27-.44,1.63,1.82-.16-.21.11.2.47.79a14.55,14.55,0,0,1,.89,1.91h0a11.61,11.61,0,0,1,1.76,3c.06.39-.5-.09-.47.17a12.2,12.2,0,0,1,1.41,2.45,16.41,16.41,0,0,0,1.37,2.7c-.23-.35-.42-.29-.41-.16l.55.65c.24.89.24,1,0,.94.86,2.61.16-1,1,2.17a6.26,6.26,0,0,1-.31-.6,63.66,63.66,0,0,1,2.41,9c-.19.94-.63-2.55-.73-1.5.54,2.1.91,4.3,1.32,6.5a45.68,45.68,0,0,1,.53,6.52l0-.79c.52.57-.13,3.14,0,5.26,0-.52-.27-.69-.21-.55a79.28,79.28,0,0,1-1,10.16v-.56c-.45,1.64-1.12,4.32-1.72,6,0,.56-.39,1.55,0,1-2.49,5.09-3.54,10.25-6.45,14.44.27-.54.54-1.33.32-.91-.59,1.3-1.27,2.56-1.9,3.84.36-.19.39-.43,1-1.14a12.49,12.49,0,0,1-1.15,2.59c.82-1.76-.33-.17-.86.49.13-.09.06.2.15.18-1.47,1.74.23.57-1.57,3.07l0-.2a30.58,30.58,0,0,1-1.62,3c-.5.3.53-1.11.39-1.29-.89,1.49-1.37,3.19-2.44,4.37.33-.66.9-1.56,1.23-2.23a15.49,15.49,0,0,0-1.94,2.54l.07-.1-1.71,2.4.48-.58c-.58,2.23-2.29,3.75-3.8,6.29,1.44-2.49.1-.52,0-.88-.54.53-1.32,1.34-1.19,1-.69,1.22-1.63,1.64-2.61,3.39-.13,0-1,1.15-.94.75-1.08,1.47.4-.23.4,0-.75,1.19-1.85,2.42-2.94,3.89a12.73,12.73,0,0,0-2.52,5.34,9.22,9.22,0,0,0-.09,3.89l.38,1.53c.19.54.34,1.16.6,1.92.16,1.08-.6-.76-.56-.77a14.79,14.79,0,0,0,1.48,4.5c-.21-.28-.14.07,0,.58.54,1.22.68.67,1.28,2.32a6.33,6.33,0,0,1-.92-1c.74,1.39,1.6,2.7,2.47,4.06.06.46-.71-.72-1.07-1.18.92,1.59,2.47,4,3,4.35l-.54-1c.36.55,0,.42-.31,0-1-1.23-1.06-2-1-2.11.2.33.41.65.62,1-.11-1.29-2.33-4-3.2-6.15q.37.37.77.71c-.44-.66-.83-1.36-1.25-2-.07-.52,0-.91.49.12-.38-1.61-.68-1.31-.88-2.73,0-.16,0-.1.09,0-.19-.5-.4-1-.54-1.51.16.28.22-.32.39.64-.12-.7-.24-1.33-.36-1.89s-.21-1.07-.25-1.52-.08-.86-.07-1.21a3.14,3.14,0,0,1,.22-.9v.23c.27-1.91.34-2,.21-2s-.3.11.08-1.39a18.69,18.69,0,0,1,1.58-1.46l-.07-.49c.2-.36.68-1,.7-.83.65-1.4-.25.15.06-.71,1.32-1.5,3.24-4.44,3.9-4.48.28-.7-1.35,1.35-.12-.39.79-.13,1.52-1.94,2.86-3.2-.14.61-1.36,1.85,0,.59.35-1.13,2.32-2.72,3.13-4.07-.24-.26,1.73-2.88,3-5.14,0,.21,2.77-4,4.09-6l0,.09c-.07-.58,1.24-2.69,2.05-4.31.16.17.07.49-.33,1.39l.84-1.48a8.74,8.74,0,0,1,.77-1.9l0,.51c.54-1,1-2,1.49-3.17s1.05-2.29,1.74-3.58c-.17-.25-1.62,1.79-.48-1.06.17,0,.44-.05.15.7a9.39,9.39,0,0,1,.56-1.36c-.09.41-.2.81-.3,1.21.65-1.16.12-.7.56-1.67.17.1.44-.67.52-.46a10,10,0,0,0-.53,1.22,17.62,17.62,0,0,1,1.5-2.76c-.15.05-.23-.09.05-.93.79-2.13.5-.64,1.07-1.85.09-.55.67-1.89.4-2a2.24,2.24,0,0,1,.54-.92c.3-1.14,1.48-5.3.84-4.1l-.1.28,0-.19h0c.69-3.78,1.83-7.79,1.94-11.64h.1c0-1.15.08-2.42,0-3.6s-.12-2.29-.24-3.1.08-1.59.23-1.32a35,35,0,0,1-.43-4.44c.39,1.72.12-.62.31,1.77a25.1,25.1,0,0,0-.18-2.55,18.9,18.9,0,0,0-.53-2.63c.18.39.22-.05.12-.71a19.47,19.47,0,0,0-.44-2.07l.15,1.6c-.29-1.18-.48-2.22-.68-3.29l.44.5a18.86,18.86,0,0,0-.78-3.25l-.49-1.49-.59-1.39c-.39-.91-.74-1.78-1.07-2.65a14.4,14.4,0,0,1-.84-2.59c-.69-1,.83,2.4.15,1.49-.4-1-.67-2.06-1-2.94s-.51-1.58-.66-1.88a11.64,11.64,0,0,0-.76-1.55,10.58,10.58,0,0,0-.71-.92,11.69,11.69,0,0,1-1.65-2.46c.09.41,0,.86-1.3-1-1.13-1.8-1-2.47-.21-1.39.29.42.4.65.35.66.42.55,1,1.29.6.51l-.25-.17c-.24-.48-.77-1.33-1.17-2s-.74-1.13-.45-.91c-1.06-1.24-.57-.44.1.56-.75-1.15-1.39-2-2-2.89s-1.41-1.66-2.28-2.79c.24.39.4.8.11.45-2.66-3.19-1.4-1.2-3.33-3.22-1-1.25.72.09-1.42-1.77-1.16-1.29,0-.48.52-.07-2-1.67-3.49-3.35-4.58-4.37l1.1.82c-.66-.49-1.15-.94-1.7-1.35l.46.67c-.6-.53-1.14-.94-1.06-1-.75-.39.25.7-1.17-.14-.74-.78-2.66-1.83-2.78-2.29,2.66,2-.11-.49,2.22,1.15-.45-.32-1-.69-1.63-1.19-.08-.1.13,0,.32.12-2.48-2.07-1.38-.62-4.17-2.41.45.08-.47-.7-.95-1,1.13.73.38.59-.72.05a22.75,22.75,0,0,0-3-1.65l1.07.69a17.56,17.56,0,0,1-2.68-1.27c0-.19,1.23.55.79.24-1.61-.46-3.11-2.06-5.3-2.81-.91-.56,0-.35-.76-.82-2.42-.88-2.46-1.33-5-2.23.63.54.79.48-1.08,0,1.41.45,2.77,1,4.17,1.53l-2.76-.78c1.23.52,2.66,1,3.38,1.31-1.33-.35-1.17-.35-.66.08-1.55-1-3.4-1.24-5.29-2.17l.27-.53a20.09,20.09,0,0,0-2.13-.86c-.71-.22-1.43-.41-2.17-.61-1.48-.42-3.09-.77-5.06-1.41l1.25.47c-.59.07-2.45-.69-3.78-.89.17-.16-.62-.43-1.15-.69,0,.13-2.95-.69-3.4-.37l-1.75-.64c-3.27-.68-3.84-.14-7-.62,1-.08-.44-.42,1.71-.28a6.37,6.37,0,0,0-2-.18c-.6-.24-3-.07-3.93-.36a5.1,5.1,0,0,1-1.81.11c-.13,0,0-.1,0-.1s-1.88,0-.85.3a19.28,19.28,0,0,0-2.84-.45c-1.06-.07-2.19-.09-3.31-.11a44.51,44.51,0,0,1-5.88-.16c-1.17.09-2.45.24-3.7.35l-1.84.18-1.68.24c.13-.08,0-.1.39-.13a5.88,5.88,0,0,0-2.36.5,9.2,9.2,0,0,1-2.64.61c-1.72,0,1.7-.5.64-.42-.28-.28-1.27-.07-2.46.22l-1.89.44a10.91,10.91,0,0,1-1.83.34l.52-.17a16.63,16.63,0,0,0-3,.78c-1.12.4-2.34.91-3.68,1.3,0,0,.11-.1,0-.1-.87.42-2.13,1-3.48,1.61l-2.07.88-1.93.93c.66-.57,1.06-.62.49-.65-1.09.52.48.24-1.68,1.27a15.19,15.19,0,0,1-2.71.7c.67-.35,1.34-.71,2-1-1.23.12-2.63,1.33-3.73,1.79l.06-.21a18.1,18.1,0,0,0-3,1.91c-.73.57-1.54,1.06-3.11,2.07l.39-.11c-1.49,1.44-1.55.75-3.09,2.11-.24,0-.5,0-.73,0-1,.89-3.62,3.06-5.39,4.69a22.74,22.74,0,0,1,2-2.06l2.36-2.06c-.54.4-1.45,1.08-2.29,1.73a12,12,0,0,0-1.74,1.63,10.4,10.4,0,0,1,1.31-1.17,25.21,25.21,0,0,1-2,2.07q-.59.55-1.27,1.14t-1.39,1.29c-.07-.43-1.42.66-2.9,2.06a39.42,39.42,0,0,1-4,3.6,143.5,143.5,0,0,0-9.33,11.59c1.59-1.28-.89,1.34-.19,1.4a14,14,0,0,1-1.05,1.55l-2.34,3.11c-.64.69.52-1.11.34-1.08-1.51,2.37-.85.86-1.91,2.41.38-.22-.2,1-1.06,2.37l1.34-1.83c-1.63,3.57-2.1,2.73-3.59,6.42l.39-1.21c-.2.47-.51,1.12-.87,1.87l-1.06,2.48a20.09,20.09,0,0,0-1.48,4.5c-.2.31-.53.69-.24-.16a67.36,67.36,0,0,0-2.45,7.28c-.65,2.48-1.32,4.81-1.9,6.6l-.05-.39a12,12,0,0,1-.56,2.65c0-.07-.05-.39-.17,0a28.78,28.78,0,0,1-.61,3.55l.05-1a31.87,31.87,0,0,0-.68,3.12c-.14,1-.23,1.84-.31,2.69-.19,1.71-.21,3.34-.42,5.31-.21,0-.51.86-.72,2s-.39,2.53-.51,3.45l-.06-.07a90.91,90.91,0,0,0,.16,14.44,23,23,0,0,0-.14,3.09c0,1.23.11,2.63.19,4.09.24,2.91.57,6.06.87,8.59,0-.78.36.07.54,1,.06,1.2.92,3.18.47,3.08l-.08-.42c-.21,1,.35,3.36.85,5.22l.59.18c.06.63.16,1.3.29,2s.35,1.41.56,2.13.44,1.46.68,2.2.56,1.44.83,2.14l.8,2,.79,1.81a18.33,18.33,0,0,1,1,2.79c.67,1,1.33,2.38,2,3.39l-.28.08c.82,1.48,1.41,2.6,2.11,3.77s1.52,2.4,2.8,4.05l-.68-.56a8.31,8.31,0,0,0,1.92,1.87,12,12,0,0,1,1.9,1.67l.1.77c1.31,1.59,2.73,3.09,4.15,4.59a29.66,29.66,0,0,0,4.78,3.87c-.09,0-.26,0-.8-.37,1.45,1.29,6,4.59,5.68,3.71-.09.19.83.72,2,1.35.59.31,1.24.65,1.88.94l1.79.74-.43.09a35.75,35.75,0,0,1,4.33,1.41c.55.27.41.42-.32,0,1.84.92,1.55.44,3.83,1.4l-.93-.15a9.78,9.78,0,0,0,3,.78,14.77,14.77,0,0,1,4,1.54A8,8,0,0,1,899,545c.14.13-.31.09-.54.06a21,21,0,0,0,4.16.83,21.86,21.86,0,0,1,3.36.58c0,.1.19.16.38.22-2.77-.42-5-.88-4.77-.85-.05.25,2.18.69.33.73.92.07,2.16.13,3.44.24a29.89,29.89,0,0,1,3.7.34,1.45,1.45,0,0,1,.28.12h-.23a7,7,0,0,0,1.39.12c.7.1,1.14.16,1.82.22A15.5,15.5,0,0,0,916,548c-.08-.28,1.39-.2,0-.47.18,0-.21,0-1,0h-.48l.08,0-2.79-.19a10.05,10.05,0,0,1,3.06.12c.59-.15,1.23-.33,1.59-.4,1.51.45,4.48.73,4.9.93,3.44-.15,8.1-.38,10.2-1.11a2.87,2.87,0,0,1,1.5.09c-.55.11-1.22.16-1.52.27,1-.16,2.4-.32,3.65-.48a7.16,7.16,0,0,0,2.51-.63c2.46-.2-1.32.57,2,0l-.43.19a27,27,0,0,0,8.57-2.27c2.6-1.09,5.19-2.31,8.65-3.64a2.63,2.63,0,0,1-.84.28,72.3,72.3,0,0,0,11.07-6.47c3.54-2.44,7-4.87,10.53-7.11a24.4,24.4,0,0,0,3.08-2.5l.55,0a4.23,4.23,0,0,1,2-.73,15.66,15.66,0,0,1,4.67,1c1.6.48,3.15.85,5.18,1.47l-.43-.4c1.43.55,4.43,2.15,4.08,2.22a2.18,2.18,0,0,1,1,.48l0,.16a31.15,31.15,0,0,0,3.61,1.57c1.4.62,1.27.67,1.27.85s.06.17.39.32a7.35,7.35,0,0,0,2.12.52,10.44,10.44,0,0,0,3-.25c.9-.23,1.48-.44,1.17-.45-.67.07-1.72.14-1.78-.06.5,0,1-.17,1.48-.25.1-.24.4-.53.23-.72a1.15,1.15,0,0,0-.68-.23c-.39,0-1,0-1.8-.14a7.17,7.17,0,0,1-1.17.09,6.67,6.67,0,0,1-1.18,0,7.38,7.38,0,0,1-.69-.38,11.17,11.17,0,0,0,1.93.31,15.24,15.24,0,0,0-2.57-.41,3.34,3.34,0,0,0-.84-.57,17.1,17.1,0,0,1-2.33-.61c-.17-.3,1.12.19-.25-.66-1.1-.39.76.91-1,.07-.94-.79-.53-.77-1.88-1.33-.12-.21.19-.12.71.12-1.16-.54-3.07-1.63-3.81-1.65a9.3,9.3,0,0,0-2.55-1c-.46-.11-.88-.22-1.17-.33s-.42-.18-.37-.28a22.25,22.25,0,0,1-3.42-.3c1.1,0,0-.29-1.28-.52-.66-.12-1.43-.2-2-.24s-1,0-.85-.2l-.88.34c-.3.15-.67.31-1,.5a21.54,21.54,0,0,0-2,1.33c-1.3,1-2.67,2-3.73,2.9a2.32,2.32,0,0,1,.52-.49,26,26,0,0,1-2.62,1.52c.06.44-1.9,1.91-2.86,2.85-1.8.78.7-1,0-1,.26.21-2.58,2.15-1.89,2-1.35.62-1.11.62-1.92.76.05.55-1.09.82-2,1.73-1.93.91-.7-.08-2.6,1.25-.51.22-.35,0-.06-.22S961.53,534.93,961.53,534.93Zm-52.89,10.43h0l1.14.13Zm-4.6-.66c.56.1,1.25.25,2,.35.15.11,0,.21-.51.12C905.77,545.15,904.7,544.9,904,544.7Zm9.64,3.09a2.41,2.41,0,0,1-1.1-.16l1.31.07.09,0A.77.77,0,0,1,913.68,547.79Z" transform="translate(-10 -15)"/>
      <path class="cls-107" d="M915,547.52h.31l-.44-.08-.27.07Z" transform="translate(-10 -15)"/>
      <path class="cls-107" d="M1029.92,449.51l0-.09a1.17,1.17,0,0,1-.1.19A.94.94,0,0,1,1029.92,449.51Z" transform="translate(-10 -15)"/>
      <polygon class="cls-107" points="845.32 492.79 845.26 492.83 845.48 493.17 845.32 492.79"/>
      <path class="cls-107" d="M1018.86,472.79a1.11,1.11,0,0,0-.23.26A1.42,1.42,0,0,0,1018.86,472.79Z" transform="translate(-10 -15)"/>
      <path class="cls-107" d="M1013,482.28l-.93,1.27C1012.51,483,1012.8,482.6,1013,482.28Z" transform="translate(-10 -15)"/>
      <path class="cls-107" d="M1008.08,489.19a.4.4,0,0,0,0,.21h0Z" transform="translate(-10 -15)"/>
      <path class="cls-107" d="M993.43,373.86l-.29-.15C992.44,373.37,992.91,373.61,993.43,373.86Z" transform="translate(-10 -15)"/>
      <path class="cls-107" d="M1022.39,401c-.26-.35-.51-.69-.76-1.06C1022,400.62,1022.25,401.11,1022.39,401Z" transform="translate(-10 -15)"/>
      <path class="cls-107" d="M950.83,361h0l-.28,0Z" transform="translate(-10 -15)"/>
      <path class="cls-107" d="M1020.65,398.4c.35.62.68,1.12,1,1.59A9.78,9.78,0,0,0,1020.65,398.4Z" transform="translate(-10 -15)"/>
      <path class="cls-107" d="M1003.57,522.88l.2.37s0,0,.06,0Z" transform="translate(-10 -15)"/>
      <path class="cls-107" d="M1003.84,523.27l.27.38A1.86,1.86,0,0,0,1003.84,523.27Z" transform="translate(-10 -15)"/>
      <path class="cls-107" d="M1004.7,524.43l-.58-.79A3.58,3.58,0,0,0,1004.7,524.43Z" transform="translate(-10 -15)"/>
      <path class="cls-107" d="M998.75,512.42l-.14-.1C998.65,512.39,998.7,512.42,998.75,512.42Z" transform="translate(-10 -15)"/>
      <path class="cls-107" d="M997.87,509a14.18,14.18,0,0,0,.63,3.28l.11.08a6,6,0,0,1-.41-1.57A12,12,0,0,0,997.87,509Z" transform="translate(-10 -15)"/>
      <path class="cls-107" d="M1004,496.12c-.61.74-1.22,1.48-1.78,2.24.38-.35.87-.79.15.28C1004.73,495.93,1001.67,499.07,1004,496.12Z" transform="translate(-10 -15)"/>
      <path class="cls-107" d="M1009.79,489.27c-.93,1.27.14.08.13.19C1010.46,488.6,1010.58,488.39,1009.79,489.27Z" transform="translate(-10 -15)"/>
      <path class="cls-107" d="M1031.92,429.3l.27.14C1032,428.24,1032.08,429.44,1031.92,429.3Z" transform="translate(-10 -15)"/>
      <path class="cls-107" d="M1028.68,417.3a11.55,11.55,0,0,1,.12,1.16l.34.48C1029,418.39,1028.88,417.83,1028.68,417.3Z" transform="translate(-10 -15)"/>
      <path class="cls-107" d="M1028.23,409.74l.21.49c-.24-.64-.52-1.25-.82-1.86C1027.82,408.83,1028.06,409.27,1028.23,409.74Z" transform="translate(-10 -15)"/>
      <path class="cls-107" d="M938.37,358l.37.31C939.55,358.23,939.73,357.88,938.37,358Z" transform="translate(-10 -15)"/>
      <path class="cls-107" d="M893.45,371.4a7.36,7.36,0,0,0-2.29,1.38C892.07,372.21,893,371.73,893.45,371.4Z" transform="translate(-10 -15)"/>
      <path class="cls-107" d="M848.69,497c-.13-.29-.24-.6-.35-.9.16.58.38,1.15.58,1.71Z" transform="translate(-10 -15)"/>
    </g>
  </g>
  <text class="cls-9" transform="translate(858.95 402.15)"><tspan class="cls-21">N</tspan><tspan x="16.05" y="0">u </tspan><tspan class="cls-108" x="34.59" y="0">v</tspan><tspan class="cls-11" x="46.02" y="0">e</tspan><tspan x="57.99" y="0">d j</tspan><tspan class="cls-109" x="83.7" y="0">e</tspan><tspan x="95.7" y="0">g </tspan><tspan class="cls-110" x="0" y="36">h</tspan><tspan class="cls-11" x="13.98" y="36">v</tspan><tspan x="25.62" y="36">or j</tspan><tspan class="cls-109" x="61.26" y="36">e</tspan><tspan x="73.26" y="36">g </tspan><tspan class="cls-111" x="90.06" y="36">k</tspan><tspan class="cls-13" x="103.68" y="36">a</tspan><tspan x="116.43" y="36">n </tspan><tspan class="cls-21" x="0" y="72">h</tspan><tspan class="cls-23" x="14.13" y="72">j</tspan><tspan class="cls-28" x="21.48" y="72"></tspan><tspan class="cls-104" x="39.69" y="72">l</tspan><tspan class="cls-22" x="46.77" y="72">p</tspan><tspan x="61.35" y="72">e.</tspan></text>
</svg>
